<?xml version="1.0" encoding="UTF-8" standalone="no"?>
<svg
   xmlns:dc="http://purl.org/dc/elements/1.1/"
   xmlns:cc="http://creativecommons.org/ns#"
   xmlns:rdf="http://www.w3.org/1999/02/22-rdf-syntax-ns#"
   xmlns:svg="http://www.w3.org/2000/svg"
   xmlns="http://www.w3.org/2000/svg"
   xmlns:sodipodi="http://sodipodi.sourceforge.net/DTD/sodipodi-0.dtd"
   xmlns:inkscape="http://www.inkscape.org/namespaces/inkscape"
   inkscape:version="1.0 (4035a4fb49, 2020-05-01)"
   sodipodi:docname="noun_forum discussion_2421590.svg"
   id="svg44"
   version="1.1"
   y="0px"
   x="0px"
   viewBox="0 0 64 80">
  <metadata
     id="metadata50">
    <rdf:RDF>
      <cc:Work
         rdf:about="">
        <dc:format>image/svg+xml</dc:format>
        <dc:type
           rdf:resource="http://purl.org/dc/dcmitype/StillImage" />
      </cc:Work>
    </rdf:RDF>
  </metadata>
  <defs
     id="defs48" />
  <sodipodi:namedview
     inkscape:current-layer="svg44"
     inkscape:window-maximized="1"
     inkscape:window-y="0"
     inkscape:window-x="0"
     inkscape:cy="40"
     inkscape:cx="32"
     inkscape:zoom="7.85"
     showgrid="false"
     id="namedview46"
     inkscape:window-height="1123"
     inkscape:window-width="1920"
     inkscape:pageshadow="2"
     inkscape:pageopacity="0"
     guidetolerance="10"
     gridtolerance="10"
     objecttolerance="10"
     borderopacity="1"
     bordercolor="#666666"
     pagecolor="#ffffff" />
  <title
     id="title2">forum discusstion</title>
  <g
     id="g38"
     data-name="forum discusstion">
    <path
       id="path4"
       d="M59,14H49a1,1,0,0,1-1-1V10a6,6,0,1,1,12,0v3A1,1,0,0,1,59,14Zm-9-2h8V10a4,4,0,0,0-4-4,4,4,0,0,0-4,4Z" />
    <path
       id="path6"
       d="M43,60H10a6,6,0,0,1-6-6V51a1,1,0,0,1,1-1H39a1,1,0,0,1,1,1v3a4,4,0,0,0,1.17,2.84,4,4,0,0,0,2,1.08,1,1,0,0,1,.8,1V59A1,1,0,0,1,43,60ZM6,52v2a4,4,0,0,0,4,4H39.52A6,6,0,0,1,38,54V52Z" />
    <path
       id="path8"
       d="M44,60a5.77,5.77,0,0,1-1.21-.12A6,6,0,0,1,38,54V52H15a1,1,0,0,1-1-1V28a1,1,0,0,1,1-1H26a1,1,0,0,1,.71.29L28,28.59V17a3,3,0,0,0-3-3H15a1,1,0,0,1-1-1V10a6,6,0,0,1,6-6H54a1,1,0,0,1,0,2,4,4,0,0,0-4,4V28a1,1,0,0,1-1,1H39a3,3,0,0,0-3,3V43.59l1.29-1.3A1,1,0,0,1,38,42H49a1,1,0,0,1,1,1V54A6,6,0,0,1,44,60ZM16,50H39a1,1,0,0,1,1,1v3a4,4,0,0,0,1.17,2.84A4,4,0,0,0,48,54V44H38.41l-2.7,2.71a1,1,0,0,1-1.09.21A1,1,0,0,1,34,46V32a5,5,0,0,1,5-5h9V10a6,6,0,0,1,1.53-4H20a4,4,0,0,0-4,4v2h9a5,5,0,0,1,5,5V31a1,1,0,0,1-.62.92,1,1,0,0,1-1.09-.21L25.59,29H16Z" />
    <path
       id="path10"
       d="M29,32a1,1,0,0,1-.71-.29L25.59,29H9a5,5,0,0,1-5-5V17a5,5,0,0,1,5-5H25a5,5,0,0,1,5,5V31a1,1,0,0,1-.62.92A.84.84,0,0,1,29,32ZM9,14a3,3,0,0,0-3,3v7a3,3,0,0,0,3,3H26a1,1,0,0,1,.71.29L28,28.59V17a3,3,0,0,0-3-3Z" />
    <path
       id="path12"
       d="M35,47a.84.84,0,0,1-.38-.08A1,1,0,0,1,34,46V32a5,5,0,0,1,5-5H55a5,5,0,0,1,5,5v7a5,5,0,0,1-5,5H38.41l-2.7,2.71A1,1,0,0,1,35,47Zm4-18a3,3,0,0,0-3,3V43.59l1.29-1.3A1,1,0,0,1,38,42H55a3,3,0,0,0,3-3V32a3,3,0,0,0-3-3Z" />
    <circle
       id="circle14"
       r="1.5"
       cy="20.5"
       cx="10.5" />
    <circle
       id="circle16"
       r="1.5"
       cy="20.5"
       cx="16.5" />
    <circle
       id="circle18"
       r="1.5"
       cy="20.5"
       cx="22.5" />
    <circle
       id="circle20"
       r="1.5"
       cy="35.5"
       cx="41.5" />
    <circle
       id="circle22"
       r="1.5"
       cy="35.5"
       cx="47.5" />
    <circle
       id="circle24"
       r="1.5"
       cy="35.5"
       cx="53.5" />
    <path
       id="path26"
       d="M44,14H34a1,1,0,0,1,0-2H44a1,1,0,0,1,0,2Z" />
    <path
       id="path28"
       d="M44,19H34a1,1,0,0,1,0-2H44a1,1,0,0,1,0,2Z" />
    <path
       id="path30"
       d="M44,24H34a1,1,0,0,1,0-2H44a1,1,0,0,1,0,2Z" />
    <path
       id="path32"
       d="M30,37H20a1,1,0,0,1,0-2H30a1,1,0,0,1,0,2Z" />
    <path
       id="path34"
       d="M30,42H20a1,1,0,0,1,0-2H30a1,1,0,0,1,0,2Z" />
    <path
       id="path36"
       d="M30,47H20a1,1,0,0,1,0-2H30a1,1,0,0,1,0,2Z" />
  </g>
</svg>
