<?xml version="1.0" encoding="UTF-8" standalone="no"?>
<svg
   xmlns:dc="http://purl.org/dc/elements/1.1/"
   xmlns:cc="http://creativecommons.org/ns#"
   xmlns:rdf="http://www.w3.org/1999/02/22-rdf-syntax-ns#"
   xmlns:svg="http://www.w3.org/2000/svg"
   xmlns="http://www.w3.org/2000/svg"
   xmlns:sodipodi="http://sodipodi.sourceforge.net/DTD/sodipodi-0.dtd"
   xmlns:inkscape="http://www.inkscape.org/namespaces/inkscape"
   inkscape:version="1.0 (4035a4fb49, 2020-05-01)"
   sodipodi:docname="noun_exams_1439224.svg"
   id="svg40"
   version="1.1"
   y="0px"
   x="0px"
   viewBox="0 0 100 125"
   data-name="Layer 1">
  <metadata
     id="metadata46">
    <rdf:RDF>
      <cc:Work
         rdf:about="">
        <dc:format>image/svg+xml</dc:format>
        <dc:type
           rdf:resource="http://purl.org/dc/dcmitype/StillImage" />
      </cc:Work>
    </rdf:RDF>
  </metadata>
  <defs
     id="defs44" />
  <sodipodi:namedview
     inkscape:current-layer="svg40"
     inkscape:window-maximized="1"
     inkscape:window-y="1080"
     inkscape:window-x="1"
     inkscape:cy="70.461783"
     inkscape:cx="50"
     inkscape:zoom="5.024"
     showgrid="false"
     id="namedview42"
     inkscape:window-height="1123"
     inkscape:window-width="1920"
     inkscape:pageshadow="2"
     inkscape:pageopacity="0"
     guidetolerance="10"
     gridtolerance="10"
     objecttolerance="10"
     borderopacity="1"
     bordercolor="#666666"
     pagecolor="#ffffff" />
  <title
     id="title2">Artboard 119</title>
  <path
     id="path4"
     d="M71.37,60.41a1.5,1.5,0,0,0-1.5-1.5h-9a1.5,1.5,0,0,0,0,3h9A1.5,1.5,0,0,0,71.37,60.41Z" />
  <path
     id="path6"
     d="M65.37,21.41v-7.5a1.5,1.5,0,1,0-3,0v7.5a7.51,7.51,0,0,0,7.5,7.5h13.5v28.5a1.5,1.5,0,0,0,3,0v-30a1.5,1.5,0,0,0-1.5-1.5h-15A4.51,4.51,0,0,1,65.37,21.41Z" />
  <path
     id="path8"
     d="M69.87,40.91h-12a1.5,1.5,0,0,0,0,3h12a1.5,1.5,0,0,0,0-3Z" />
  <path
     id="path10"
     d="M53.37,42.41a1.5,1.5,0,0,0-1.5-1.5h-9a1.5,1.5,0,0,0,0,3h9A1.5,1.5,0,0,0,53.37,42.41Z" />
  <path
     id="path12"
     d="M42.87,49.91a1.5,1.5,0,1,0,0,3h3a1.5,1.5,0,1,0,0-3h-3Z" />
  <path
     id="path14"
     d="M42.87,34.91h15a1.5,1.5,0,0,0,0-3h-15a1.5,1.5,0,1,0,0,3Z" />
  <path
     id="path16"
     d="M51.87,52.91h15a1.5,1.5,0,0,0,0-3h-15a1.5,1.5,0,1,0,0,3Z" />
  <path
     id="path18"
     d="M60.87,67.91a1.5,1.5,0,0,0,0,3h3a1.5,1.5,0,0,0,0-3Z" />
  <path
     id="path20"
     d="M54.87,58.91h-12a1.5,1.5,0,1,0,0,3h12a1.5,1.5,0,0,0,0-3Z" />
  <path
     id="path22"
     d="M54.87,67.91h-12a1.5,1.5,0,1,0,0,3h12a1.5,1.5,0,0,0,0-3Z" />
  <path
     id="path24"
     d="M90.58,66.69l-3-3a5.64,5.64,0,0,0-8.12,0L59.81,83.35a1.5,1.5,0,0,0-.44,1.06v9a1.5,1.5,0,0,0,1.5,1.5h9a1.5,1.5,0,0,0,1.06-.44L90.58,74.81A5.5,5.5,0,0,0,90.58,66.69ZM77.52,69.88l2.38,2.38-13,13-2.38-2.38Zm-15.15,22V85l6.88,6.88Zm9-2.12L69,87.41l13-13,2.38,2.38ZM88.46,72.69l-1.94,1.94-6.88-6.88,1.94-1.94a2.56,2.56,0,0,1,3.88,0l3,3A2.52,2.52,0,0,1,88.46,72.69Z" />
  <path
     id="path26"
     d="M54.87,91.91h-39a4.51,4.51,0,0,1-4.5-4.5v-75a4.51,4.51,0,0,1,4.5-4.5H63.25L77.81,22.47a1.5,1.5,0,0,0,2.12-2.12l-15-15a1.5,1.5,0,0,0-1.06-.44h-48a7.51,7.51,0,0,0-7.5,7.5v75a7.51,7.51,0,0,0,7.5,7.5h39a1.5,1.5,0,0,0,0-3Z" />
  <path
     id="path28"
     d="M54.87,76.91h-12a1.5,1.5,0,1,0,0,3h12a1.5,1.5,0,0,0,0-3Z" />
  <path
     id="path30"
     d="M24.87,61.91h9a1.5,1.5,0,0,0,1.5-1.5v-9a1.5,1.5,0,0,0-1.5-1.5h-9a1.5,1.5,0,0,0-1.5,1.5v9A1.5,1.5,0,0,0,24.87,61.91Zm1.5-9h6v6h-6Z" />
  <path
     id="path32"
     d="M27.22,43.19a1.5,1.5,0,0,0,1.06.44h.15a1.5,1.5,0,0,0,1.1-.66l6-9A1.5,1.5,0,1,0,33,32.29l-5,7.48-1.71-1.71a1.5,1.5,0,0,0-2.12,2.12Z" />
  <path
     id="path34"
     d="M27.22,79.19a1.5,1.5,0,0,0,1.06.44h.15a1.5,1.5,0,0,0,1.1-.66l6-9A1.5,1.5,0,1,0,33,68.29l-5,7.48-1.71-1.71a1.5,1.5,0,1,0-2.12,2.12Z" />
</svg>
