<?xml version="1.0" encoding="UTF-8" standalone="no"?>
<svg
   xmlns:dc="http://purl.org/dc/elements/1.1/"
   xmlns:cc="http://creativecommons.org/ns#"
   xmlns:rdf="http://www.w3.org/1999/02/22-rdf-syntax-ns#"
   xmlns:svg="http://www.w3.org/2000/svg"
   xmlns="http://www.w3.org/2000/svg"
   xmlns:sodipodi="http://sodipodi.sourceforge.net/DTD/sodipodi-0.dtd"
   xmlns:inkscape="http://www.inkscape.org/namespaces/inkscape"
   inkscape:version="1.0 (4035a4fb49, 2020-05-01)"
   sodipodi:docname="noun_programming_2475110.svg"
   id="svg66"
   xml:space="preserve"
   style="enable-background:new 0 0 64 64;"
   viewBox="0 0 64 80"
   y="0px"
   x="0px"
   version="1.1"><metadata
     id="metadata72"><rdf:RDF><cc:Work
         rdf:about=""><dc:format>image/svg+xml</dc:format><dc:type
           rdf:resource="http://purl.org/dc/dcmitype/StillImage" /></cc:Work></rdf:RDF></metadata><defs
     id="defs70" /><sodipodi:namedview
     inkscape:current-layer="svg66"
     inkscape:window-maximized="1"
     inkscape:window-y="0"
     inkscape:window-x="0"
     inkscape:cy="40"
     inkscape:cx="32"
     inkscape:zoom="7.85"
     showgrid="false"
     id="namedview68"
     inkscape:window-height="1123"
     inkscape:window-width="1920"
     inkscape:pageshadow="2"
     inkscape:pageopacity="0"
     guidetolerance="10"
     gridtolerance="10"
     objecttolerance="10"
     borderopacity="1"
     bordercolor="#666666"
     pagecolor="#ffffff" /><path
     id="path2"
     d="M7,62h50c2.757,0,5-2.243,5-5v-1h-0.007c0-0.118-0.014-0.237-0.056-0.351L56,39.818V7c0-2.757-2.243-5-5-5H13  c-2.757,0-5,2.243-5,5v32.818L2.063,55.649C2.021,55.763,2.007,55.882,2.007,56H2v1C2,59.757,4.243,62,7,62z M57,60H7  c-1.654,0-3-1.346-3-3h19.586l0.707,0.707C24.48,57.895,24.735,58,25,58h14c0.265,0,0.52-0.105,0.707-0.293L40.414,57H60  C60,58.654,58.654,60,57,60z M13,4h38c1.654,0,3,1.346,3,3v32H10V7C10,5.346,11.346,4,13,4z M9.693,41h44.614l5.25,14H40  c-0.265,0-0.52,0.105-0.707,0.293L38.586,56H25.414l-0.707-0.707C24.52,55.105,24.265,55,24,55H4.443L9.693,41z" /><rect
     id="rect4"
     height="2"
     width="4"
     y="51"
     x="9" /><rect
     id="rect6"
     height="2"
     width="4"
     y="51"
     x="16" /><rect
     id="rect8"
     height="2"
     width="18"
     y="51"
     x="23" /><rect
     id="rect10"
     height="2"
     width="4"
     y="51"
     x="44" /><rect
     id="rect12"
     height="2"
     width="4"
     y="51"
     x="51" /><rect
     id="rect14"
     height="2"
     width="6"
     y="47"
     x="10" /><rect
     id="rect16"
     height="2"
     width="4"
     y="47"
     x="19" /><rect
     id="rect18"
     height="2"
     width="4"
     y="47"
     x="26" /><rect
     id="rect20"
     height="2"
     width="4"
     y="47"
     x="33" /><rect
     id="rect22"
     height="2"
     width="4"
     y="47"
     x="40" /><rect
     id="rect24"
     height="2"
     width="7"
     y="47"
     x="47" /><rect
     id="rect26"
     height="2"
     width="2"
     y="43"
     x="16" /><rect
     id="rect28"
     height="2"
     width="2"
     y="43"
     x="12" /><rect
     id="rect30"
     height="2"
     width="4"
     y="43"
     x="21" /><rect
     id="rect32"
     height="2"
     width="4"
     y="43"
     x="28" /><rect
     id="rect34"
     height="2"
     width="4"
     y="43"
     x="35" /><rect
     id="rect36"
     height="2"
     width="4"
     y="43"
     x="42" /><rect
     id="rect38"
     height="2"
     width="4"
     y="43"
     x="49" /><path
     id="path40"
     d="M13,37h38c0.552,0,1-0.448,1-1V7c0-0.552-0.448-1-1-1H13c-0.552,0-1,0.448-1,1v29C12,36.552,12.448,37,13,37z M14,8h36v27  H14V8z" /><path
     id="path42"
     d="M19.293,10.293l-3,3c-0.391,0.391-0.391,1.023,0,1.414l3,3l1.414-1.414L18.414,14l2.293-2.293L19.293,10.293z" /><path
     id="path44"
     d="M30.707,10.293l-1.414,1.414L31.586,14l-2.293,2.293l1.414,1.414l3-3c0.391-0.391,0.391-1.023,0-1.414L30.707,10.293z" /><path
     id="path46"
     d="M32.293,24.293l-3,3c-0.391,0.391-0.391,1.023,0,1.414l3,3l1.414-1.414L31.414,28l2.293-2.293L32.293,24.293z" /><path
     id="path48"
     d="M43.707,24.293l-1.414,1.414L44.586,28l-2.293,2.293l1.414,1.414l3-3c0.391-0.391,0.391-1.023,0-1.414L43.707,24.293z" /><rect
     id="rect50"
     height="2"
     width="6.708"
     transform="matrix(0.4472 -0.8944 0.8944 0.4472 -4.3145 49.019)"
     y="27"
     x="34.146" /><rect
     id="rect52"
     height="2"
     width="2"
     y="30"
     x="26" /><rect
     id="rect54"
     height="2"
     width="2"
     y="30"
     x="22" /><rect
     id="rect56"
     height="2"
     width="2"
     y="30"
     x="18" /><path
     id="path58"
     d="M40,15h-2v2h1v3h2v-4C41,15.448,40.552,15,40,15z" /><rect
     id="rect60"
     height="2"
     width="2"
     y="11"
     x="38" /></svg>
