<svg version="1.0" xmlns="http://www.w3.org/2000/svg" xmlns:xlink="http://www.w3.org/1999/xlink"
	 viewBox="0 0 100 100" enable-background="new 0 0 100 100" xml:space="preserve">
	
<svg xmlns="http://www.w3.org/2000/svg" xmlns:xlink="http://www.w3.org/1999/xlink" version="1.1" width="100" height="100" viewBox="0 0 2000 2000" x="0" y="0" shape-rendering="crispEdges"><defs/><rect x="0" y="0" width="2000" height="2000" fill="#ffffff"/><rect x="776" y="200" width="64" height="64" fill="#000000"/><rect x="904" y="200" width="64" height="64" fill="#000000"/><rect x="968" y="200" width="64" height="64" fill="#000000"/><rect x="1096" y="200" width="64" height="64" fill="#000000"/><rect x="1224" y="200" width="64" height="64" fill="#000000"/><rect x="712" y="264" width="64" height="64" fill="#000000"/><rect x="776" y="264" width="64" height="64" fill="#000000"/><rect x="1032" y="264" width="64" height="64" fill="#000000"/><rect x="776" y="328" width="64" height="64" fill="#000000"/><rect x="904" y="328" width="64" height="64" fill="#000000"/><rect x="1096" y="328" width="64" height="64" fill="#000000"/><rect x="712" y="392" width="64" height="64" fill="#000000"/><rect x="776" y="392" width="64" height="64" fill="#000000"/><rect x="1032" y="392" width="64" height="64" fill="#000000"/><rect x="1160" y="392" width="64" height="64" fill="#000000"/><rect x="1224" y="392" width="64" height="64" fill="#000000"/><rect x="968" y="456" width="64" height="64" fill="#000000"/><rect x="1096" y="456" width="64" height="64" fill="#000000"/><rect x="712" y="520" width="64" height="64" fill="#000000"/><rect x="840" y="520" width="64" height="64" fill="#000000"/><rect x="1096" y="520" width="64" height="64" fill="#000000"/><rect x="1160" y="520" width="64" height="64" fill="#000000"/><rect x="712" y="584" width="64" height="64" fill="#000000"/><rect x="840" y="584" width="64" height="64" fill="#000000"/><rect x="968" y="584" width="64" height="64" fill="#000000"/><rect x="1096" y="584" width="64" height="64" fill="#000000"/><rect x="1224" y="584" width="64" height="64" fill="#000000"/><rect x="904" y="648" width="64" height="64" fill="#000000"/><rect x="1224" y="648" width="64" height="64" fill="#000000"/><rect x="200" y="712" width="64" height="64" fill="#000000"/><rect x="264" y="712" width="64" height="64" fill="#000000"/><rect x="328" y="712" width="64" height="64" fill="#000000"/><rect x="392" y="712" width="64" height="64" fill="#000000"/><rect x="456" y="712" width="64" height="64" fill="#000000"/><rect x="584" y="712" width="64" height="64" fill="#000000"/><rect x="648" y="712" width="64" height="64" fill="#000000"/><rect x="712" y="712" width="64" height="64" fill="#000000"/><rect x="776" y="712" width="64" height="64" fill="#000000"/><rect x="840" y="712" width="64" height="64" fill="#000000"/><rect x="1032" y="712" width="64" height="64" fill="#000000"/><rect x="1160" y="712" width="64" height="64" fill="#000000"/><rect x="1224" y="712" width="64" height="64" fill="#000000"/><rect x="1288" y="712" width="64" height="64" fill="#000000"/><rect x="1416" y="712" width="64" height="64" fill="#000000"/><rect x="1544" y="712" width="64" height="64" fill="#000000"/><rect x="1672" y="712" width="64" height="64" fill="#000000"/><rect x="200" y="776" width="64" height="64" fill="#000000"/><rect x="264" y="776" width="64" height="64" fill="#000000"/><rect x="328" y="776" width="64" height="64" fill="#000000"/><rect x="392" y="776" width="64" height="64" fill="#000000"/><rect x="520" y="776" width="64" height="64" fill="#000000"/><rect x="648" y="776" width="64" height="64" fill="#000000"/><rect x="776" y="776" width="64" height="64" fill="#000000"/><rect x="1160" y="776" width="64" height="64" fill="#000000"/><rect x="1288" y="776" width="64" height="64" fill="#000000"/><rect x="1416" y="776" width="64" height="64" fill="#000000"/><rect x="1480" y="776" width="64" height="64" fill="#000000"/><rect x="1736" y="776" width="64" height="64" fill="#000000"/><rect x="200" y="840" width="64" height="64" fill="#000000"/><rect x="328" y="840" width="64" height="64" fill="#000000"/><rect x="456" y="840" width="64" height="64" fill="#000000"/><rect x="520" y="840" width="64" height="64" fill="#000000"/><rect x="584" y="840" width="64" height="64" fill="#000000"/><rect x="648" y="840" width="64" height="64" fill="#000000"/><rect x="776" y="840" width="64" height="64" fill="#000000"/><rect x="904" y="840" width="64" height="64" fill="#000000"/><rect x="1032" y="840" width="64" height="64" fill="#000000"/><rect x="1160" y="840" width="64" height="64" fill="#000000"/><rect x="1288" y="840" width="64" height="64" fill="#000000"/><rect x="1352" y="840" width="64" height="64" fill="#000000"/><rect x="1480" y="840" width="64" height="64" fill="#000000"/><rect x="1608" y="840" width="64" height="64" fill="#000000"/><rect x="200" y="904" width="64" height="64" fill="#000000"/><rect x="392" y="904" width="64" height="64" fill="#000000"/><rect x="456" y="904" width="64" height="64" fill="#000000"/><rect x="520" y="904" width="64" height="64" fill="#000000"/><rect x="648" y="904" width="64" height="64" fill="#000000"/><rect x="776" y="904" width="64" height="64" fill="#000000"/><rect x="840" y="904" width="64" height="64" fill="#000000"/><rect x="904" y="904" width="64" height="64" fill="#000000"/><rect x="968" y="904" width="64" height="64" fill="#000000"/><rect x="1096" y="904" width="64" height="64" fill="#000000"/><rect x="1224" y="904" width="64" height="64" fill="#000000"/><rect x="264" y="968" width="64" height="64" fill="#000000"/><rect x="520" y="968" width="64" height="64" fill="#000000"/><rect x="584" y="968" width="64" height="64" fill="#000000"/><rect x="776" y="968" width="64" height="64" fill="#000000"/><rect x="968" y="968" width="64" height="64" fill="#000000"/><rect x="1160" y="968" width="64" height="64" fill="#000000"/><rect x="1288" y="968" width="64" height="64" fill="#000000"/><rect x="1352" y="968" width="64" height="64" fill="#000000"/><rect x="1416" y="968" width="64" height="64" fill="#000000"/><rect x="1480" y="968" width="64" height="64" fill="#000000"/><rect x="1544" y="968" width="64" height="64" fill="#000000"/><rect x="1672" y="968" width="64" height="64" fill="#000000"/><rect x="1736" y="968" width="64" height="64" fill="#000000"/><rect x="200" y="1032" width="64" height="64" fill="#000000"/><rect x="392" y="1032" width="64" height="64" fill="#000000"/><rect x="456" y="1032" width="64" height="64" fill="#000000"/><rect x="520" y="1032" width="64" height="64" fill="#000000"/><rect x="648" y="1032" width="64" height="64" fill="#000000"/><rect x="840" y="1032" width="64" height="64" fill="#000000"/><rect x="904" y="1032" width="64" height="64" fill="#000000"/><rect x="968" y="1032" width="64" height="64" fill="#000000"/><rect x="1224" y="1032" width="64" height="64" fill="#000000"/><rect x="1288" y="1032" width="64" height="64" fill="#000000"/><rect x="1352" y="1032" width="64" height="64" fill="#000000"/><rect x="1416" y="1032" width="64" height="64" fill="#000000"/><rect x="1480" y="1032" width="64" height="64" fill="#000000"/><rect x="1736" y="1032" width="64" height="64" fill="#000000"/><rect x="200" y="1096" width="64" height="64" fill="#000000"/><rect x="392" y="1096" width="64" height="64" fill="#000000"/><rect x="520" y="1096" width="64" height="64" fill="#000000"/><rect x="584" y="1096" width="64" height="64" fill="#000000"/><rect x="648" y="1096" width="64" height="64" fill="#000000"/><rect x="840" y="1096" width="64" height="64" fill="#000000"/><rect x="1032" y="1096" width="64" height="64" fill="#000000"/><rect x="1096" y="1096" width="64" height="64" fill="#000000"/><rect x="1288" y="1096" width="64" height="64" fill="#000000"/><rect x="1352" y="1096" width="64" height="64" fill="#000000"/><rect x="1480" y="1096" width="64" height="64" fill="#000000"/><rect x="1608" y="1096" width="64" height="64" fill="#000000"/><rect x="1672" y="1096" width="64" height="64" fill="#000000"/><rect x="200" y="1160" width="64" height="64" fill="#000000"/><rect x="328" y="1160" width="64" height="64" fill="#000000"/><rect x="520" y="1160" width="64" height="64" fill="#000000"/><rect x="648" y="1160" width="64" height="64" fill="#000000"/><rect x="712" y="1160" width="64" height="64" fill="#000000"/><rect x="840" y="1160" width="64" height="64" fill="#000000"/><rect x="904" y="1160" width="64" height="64" fill="#000000"/><rect x="1032" y="1160" width="64" height="64" fill="#000000"/><rect x="1672" y="1160" width="64" height="64" fill="#000000"/><rect x="1736" y="1160" width="64" height="64" fill="#000000"/><rect x="200" y="1224" width="64" height="64" fill="#000000"/><rect x="456" y="1224" width="64" height="64" fill="#000000"/><rect x="584" y="1224" width="64" height="64" fill="#000000"/><rect x="648" y="1224" width="64" height="64" fill="#000000"/><rect x="712" y="1224" width="64" height="64" fill="#000000"/><rect x="776" y="1224" width="64" height="64" fill="#000000"/><rect x="840" y="1224" width="64" height="64" fill="#000000"/><rect x="1032" y="1224" width="64" height="64" fill="#000000"/><rect x="1096" y="1224" width="64" height="64" fill="#000000"/><rect x="1160" y="1224" width="64" height="64" fill="#000000"/><rect x="1224" y="1224" width="64" height="64" fill="#000000"/><rect x="1288" y="1224" width="64" height="64" fill="#000000"/><rect x="1352" y="1224" width="64" height="64" fill="#000000"/><rect x="1416" y="1224" width="64" height="64" fill="#000000"/><rect x="1480" y="1224" width="64" height="64" fill="#000000"/><rect x="1544" y="1224" width="64" height="64" fill="#000000"/><rect x="1736" y="1224" width="64" height="64" fill="#000000"/><rect x="712" y="1288" width="64" height="64" fill="#000000"/><rect x="776" y="1288" width="64" height="64" fill="#000000"/><rect x="840" y="1288" width="64" height="64" fill="#000000"/><rect x="904" y="1288" width="64" height="64" fill="#000000"/><rect x="1096" y="1288" width="64" height="64" fill="#000000"/><rect x="1160" y="1288" width="64" height="64" fill="#000000"/><rect x="1224" y="1288" width="64" height="64" fill="#000000"/><rect x="1480" y="1288" width="64" height="64" fill="#000000"/><rect x="1736" y="1288" width="64" height="64" fill="#000000"/><rect x="712" y="1352" width="64" height="64" fill="#000000"/><rect x="776" y="1352" width="64" height="64" fill="#000000"/><rect x="904" y="1352" width="64" height="64" fill="#000000"/><rect x="1032" y="1352" width="64" height="64" fill="#000000"/><rect x="1096" y="1352" width="64" height="64" fill="#000000"/><rect x="1224" y="1352" width="64" height="64" fill="#000000"/><rect x="1352" y="1352" width="64" height="64" fill="#000000"/><rect x="1480" y="1352" width="64" height="64" fill="#000000"/><rect x="1608" y="1352" width="64" height="64" fill="#000000"/><rect x="1672" y="1352" width="64" height="64" fill="#000000"/><rect x="1736" y="1352" width="64" height="64" fill="#000000"/><rect x="776" y="1416" width="64" height="64" fill="#000000"/><rect x="840" y="1416" width="64" height="64" fill="#000000"/><rect x="904" y="1416" width="64" height="64" fill="#000000"/><rect x="968" y="1416" width="64" height="64" fill="#000000"/><rect x="1032" y="1416" width="64" height="64" fill="#000000"/><rect x="1224" y="1416" width="64" height="64" fill="#000000"/><rect x="1480" y="1416" width="64" height="64" fill="#000000"/><rect x="1544" y="1416" width="64" height="64" fill="#000000"/><rect x="712" y="1480" width="64" height="64" fill="#000000"/><rect x="840" y="1480" width="64" height="64" fill="#000000"/><rect x="1224" y="1480" width="64" height="64" fill="#000000"/><rect x="1288" y="1480" width="64" height="64" fill="#000000"/><rect x="1352" y="1480" width="64" height="64" fill="#000000"/><rect x="1416" y="1480" width="64" height="64" fill="#000000"/><rect x="1480" y="1480" width="64" height="64" fill="#000000"/><rect x="1544" y="1480" width="64" height="64" fill="#000000"/><rect x="712" y="1544" width="64" height="64" fill="#000000"/><rect x="840" y="1544" width="64" height="64" fill="#000000"/><rect x="968" y="1544" width="64" height="64" fill="#000000"/><rect x="1096" y="1544" width="64" height="64" fill="#000000"/><rect x="1160" y="1544" width="64" height="64" fill="#000000"/><rect x="1224" y="1544" width="64" height="64" fill="#000000"/><rect x="1288" y="1544" width="64" height="64" fill="#000000"/><rect x="1352" y="1544" width="64" height="64" fill="#000000"/><rect x="1480" y="1544" width="64" height="64" fill="#000000"/><rect x="1672" y="1544" width="64" height="64" fill="#000000"/><rect x="1736" y="1544" width="64" height="64" fill="#000000"/><rect x="712" y="1608" width="64" height="64" fill="#000000"/><rect x="776" y="1608" width="64" height="64" fill="#000000"/><rect x="840" y="1608" width="64" height="64" fill="#000000"/><rect x="968" y="1608" width="64" height="64" fill="#000000"/><rect x="1032" y="1608" width="64" height="64" fill="#000000"/><rect x="1352" y="1608" width="64" height="64" fill="#000000"/><rect x="1480" y="1608" width="64" height="64" fill="#000000"/><rect x="1608" y="1608" width="64" height="64" fill="#000000"/><rect x="1736" y="1608" width="64" height="64" fill="#000000"/><rect x="712" y="1672" width="64" height="64" fill="#000000"/><rect x="840" y="1672" width="64" height="64" fill="#000000"/><rect x="1096" y="1672" width="64" height="64" fill="#000000"/><rect x="1288" y="1672" width="64" height="64" fill="#000000"/><rect x="1352" y="1672" width="64" height="64" fill="#000000"/><rect x="1416" y="1672" width="64" height="64" fill="#000000"/><rect x="1480" y="1672" width="64" height="64" fill="#000000"/><rect x="1544" y="1672" width="64" height="64" fill="#000000"/><rect x="1672" y="1672" width="64" height="64" fill="#000000"/><rect x="712" y="1736" width="64" height="64" fill="#000000"/><rect x="776" y="1736" width="64" height="64" fill="#000000"/><rect x="1096" y="1736" width="64" height="64" fill="#000000"/><rect x="1160" y="1736" width="64" height="64" fill="#000000"/><rect x="1224" y="1736" width="64" height="64" fill="#000000"/><rect x="1608" y="1736" width="64" height="64" fill="#000000"/><rect x="1672" y="1736" width="64" height="64" fill="#000000"/><rect x="1736" y="1736" width="64" height="64" fill="#000000"/><rect x="200" y="200" width="448" height="64" fill="#000000"/><rect x="200" y="264" width="64" height="320" fill="#000000"/><rect x="584" y="264" width="64" height="320" fill="#000000"/><rect x="200" y="584" width="448" height="64" fill="#000000"/><rect x="200" y="200" width="64" height="64" fill="#000000"/><rect x="264" y="200" width="64" height="64" fill="#000000"/><rect x="328" y="200" width="64" height="64" fill="#000000"/><rect x="392" y="200" width="64" height="64" fill="#000000"/><rect x="456" y="200" width="64" height="64" fill="#000000"/><rect x="520" y="200" width="64" height="64" fill="#000000"/><rect x="584" y="200" width="64" height="64" fill="#000000"/><rect x="200" y="264" width="64" height="64" fill="#000000"/><rect x="584" y="264" width="64" height="64" fill="#000000"/><rect x="200" y="328" width="64" height="64" fill="#000000"/><rect x="584" y="328" width="64" height="64" fill="#000000"/><rect x="200" y="392" width="64" height="64" fill="#000000"/><rect x="584" y="392" width="64" height="64" fill="#000000"/><rect x="200" y="456" width="64" height="64" fill="#000000"/><rect x="584" y="456" width="64" height="64" fill="#000000"/><rect x="200" y="520" width="64" height="64" fill="#000000"/><rect x="584" y="520" width="64" height="64" fill="#000000"/><rect x="200" y="584" width="64" height="64" fill="#000000"/><rect x="264" y="584" width="64" height="64" fill="#000000"/><rect x="328" y="584" width="64" height="64" fill="#000000"/><rect x="392" y="584" width="64" height="64" fill="#000000"/><rect x="456" y="584" width="64" height="64" fill="#000000"/><rect x="520" y="584" width="64" height="64" fill="#000000"/><rect x="584" y="584" width="64" height="64" fill="#000000"/><rect x="328" y="328" width="192" height="192" fill="#000000"/><rect x="328" y="328" width="64" height="64" fill="#000000"/><rect x="392" y="328" width="64" height="64" fill="#000000"/><rect x="456" y="328" width="64" height="64" fill="#000000"/><rect x="328" y="392" width="64" height="64" fill="#000000"/><rect x="392" y="392" width="64" height="64" fill="#000000"/><rect x="456" y="392" width="64" height="64" fill="#000000"/><rect x="328" y="456" width="64" height="64" fill="#000000"/><rect x="392" y="456" width="64" height="64" fill="#000000"/><rect x="456" y="456" width="64" height="64" fill="#000000"/><rect x="1352" y="200" width="448" height="64" fill="#000000"/><rect x="1352" y="264" width="64" height="320" fill="#000000"/><rect x="1736" y="264" width="64" height="320" fill="#000000"/><rect x="1352" y="584" width="448" height="64" fill="#000000"/><rect x="1352" y="200" width="64" height="64" fill="#000000"/><rect x="1416" y="200" width="64" height="64" fill="#000000"/><rect x="1480" y="200" width="64" height="64" fill="#000000"/><rect x="1544" y="200" width="64" height="64" fill="#000000"/><rect x="1608" y="200" width="64" height="64" fill="#000000"/><rect x="1672" y="200" width="64" height="64" fill="#000000"/><rect x="1736" y="200" width="64" height="64" fill="#000000"/><rect x="1352" y="264" width="64" height="64" fill="#000000"/><rect x="1736" y="264" width="64" height="64" fill="#000000"/><rect x="1352" y="328" width="64" height="64" fill="#000000"/><rect x="1736" y="328" width="64" height="64" fill="#000000"/><rect x="1352" y="392" width="64" height="64" fill="#000000"/><rect x="1736" y="392" width="64" height="64" fill="#000000"/><rect x="1352" y="456" width="64" height="64" fill="#000000"/><rect x="1736" y="456" width="64" height="64" fill="#000000"/><rect x="1352" y="520" width="64" height="64" fill="#000000"/><rect x="1736" y="520" width="64" height="64" fill="#000000"/><rect x="1352" y="584" width="64" height="64" fill="#000000"/><rect x="1416" y="584" width="64" height="64" fill="#000000"/><rect x="1480" y="584" width="64" height="64" fill="#000000"/><rect x="1544" y="584" width="64" height="64" fill="#000000"/><rect x="1608" y="584" width="64" height="64" fill="#000000"/><rect x="1672" y="584" width="64" height="64" fill="#000000"/><rect x="1736" y="584" width="64" height="64" fill="#000000"/><rect x="1480" y="328" width="192" height="192" fill="#000000"/><rect x="1480" y="328" width="64" height="64" fill="#000000"/><rect x="1544" y="328" width="64" height="64" fill="#000000"/><rect x="1608" y="328" width="64" height="64" fill="#000000"/><rect x="1480" y="392" width="64" height="64" fill="#000000"/><rect x="1544" y="392" width="64" height="64" fill="#000000"/><rect x="1608" y="392" width="64" height="64" fill="#000000"/><rect x="1480" y="456" width="64" height="64" fill="#000000"/><rect x="1544" y="456" width="64" height="64" fill="#000000"/><rect x="1608" y="456" width="64" height="64" fill="#000000"/><rect x="200" y="1352" width="448" height="64" fill="#000000"/><rect x="200" y="1416" width="64" height="320" fill="#000000"/><rect x="584" y="1416" width="64" height="320" fill="#000000"/><rect x="200" y="1736" width="448" height="64" fill="#000000"/><rect x="200" y="1352" width="64" height="64" fill="#000000"/><rect x="264" y="1352" width="64" height="64" fill="#000000"/><rect x="328" y="1352" width="64" height="64" fill="#000000"/><rect x="392" y="1352" width="64" height="64" fill="#000000"/><rect x="456" y="1352" width="64" height="64" fill="#000000"/><rect x="520" y="1352" width="64" height="64" fill="#000000"/><rect x="584" y="1352" width="64" height="64" fill="#000000"/><rect x="200" y="1416" width="64" height="64" fill="#000000"/><rect x="584" y="1416" width="64" height="64" fill="#000000"/><rect x="200" y="1480" width="64" height="64" fill="#000000"/><rect x="584" y="1480" width="64" height="64" fill="#000000"/><rect x="200" y="1544" width="64" height="64" fill="#000000"/><rect x="584" y="1544" width="64" height="64" fill="#000000"/><rect x="200" y="1608" width="64" height="64" fill="#000000"/><rect x="584" y="1608" width="64" height="64" fill="#000000"/><rect x="200" y="1672" width="64" height="64" fill="#000000"/><rect x="584" y="1672" width="64" height="64" fill="#000000"/><rect x="200" y="1736" width="64" height="64" fill="#000000"/><rect x="264" y="1736" width="64" height="64" fill="#000000"/><rect x="328" y="1736" width="64" height="64" fill="#000000"/><rect x="392" y="1736" width="64" height="64" fill="#000000"/><rect x="456" y="1736" width="64" height="64" fill="#000000"/><rect x="520" y="1736" width="64" height="64" fill="#000000"/><rect x="584" y="1736" width="64" height="64" fill="#000000"/><rect x="328" y="1480" width="192" height="192" fill="#000000"/><rect x="328" y="1480" width="64" height="64" fill="#000000"/><rect x="392" y="1480" width="64" height="64" fill="#000000"/><rect x="456" y="1480" width="64" height="64" fill="#000000"/><rect x="328" y="1544" width="64" height="64" fill="#000000"/><rect x="392" y="1544" width="64" height="64" fill="#000000"/><rect x="456" y="1544" width="64" height="64" fill="#000000"/><rect x="328" y="1608" width="64" height="64" fill="#000000"/><rect x="392" y="1608" width="64" height="64" fill="#000000"/><rect x="456" y="1608" width="64" height="64" fill="#000000"/></svg>

</svg>
