<?xml version="1.0" encoding="UTF-8" standalone="no"?>
<svg
   version="1.1"
   x="0px"
   y="0px"
   viewBox="0 0 512 640"
   style="enable-background:new 0 0 512 512;"
   xml:space="preserve"
   id="svg22"
   sodipodi:docname="coding.svg"
   inkscape:version="1.1 (c4e8f9ed74, 2021-05-24)"
   xmlns:inkscape="http://www.inkscape.org/namespaces/inkscape"
   xmlns:sodipodi="http://sodipodi.sourceforge.net/DTD/sodipodi-0.dtd"
   xmlns="http://www.w3.org/2000/svg"
   xmlns:svg="http://www.w3.org/2000/svg"><defs
     id="defs26" /><sodipodi:namedview
     id="namedview24"
     pagecolor="#505050"
     bordercolor="#eeeeee"
     borderopacity="1"
     inkscape:pageshadow="0"
     inkscape:pageopacity="0"
     inkscape:pagecheckerboard="0"
     showgrid="false"
     inkscape:zoom="1.03125"
     inkscape:cx="255.51515"
     inkscape:cy="320"
     inkscape:window-width="1920"
     inkscape:window-height="1039"
     inkscape:window-x="0"
     inkscape:window-y="0"
     inkscape:window-maximized="1"
     inkscape:current-layer="svg22" /><g
     id="g16"><path
       d="M470.577,27.74H41.414c-4.313,0-7.815,3.502-7.815,7.815v440.881c0,4.313,3.502,7.825,7.815,7.825h429.163   c4.313,0,7.825-3.512,7.825-7.825V35.555C478.402,31.242,474.89,27.74,470.577,27.74z M462.753,468.612H49.229v-315.61h413.523   V468.612z M462.753,137.371H49.229V43.37h413.523V137.371z"
       id="path2" /><path
       d="M390.918,119.661h47.024c4.313,0,7.825-3.502,7.825-7.815V64.812c0-4.313-3.512-7.815-7.825-7.815h-47.024   c-4.313,0-7.825,3.502-7.825,7.815v47.034C383.094,116.159,386.605,119.661,390.918,119.661z M398.743,72.627h31.375v31.404   h-31.375V72.627z"
       id="path4" /><path
       d="M308.569,119.661h47.043c4.313,0,7.825-3.502,7.825-7.815V64.812c0-4.313-3.512-7.815-7.825-7.815h-47.043   c-4.313,0-7.825,3.502-7.825,7.815v47.034C300.744,116.159,304.256,119.661,308.569,119.661z M316.393,72.627h31.394v31.404   h-31.394V72.627z"
       id="path6" /><path
       d="M226.229,119.661h47.043c4.323,0,7.815-3.502,7.815-7.815V64.812c0-4.313-3.492-7.815-7.815-7.815h-47.043   c-4.313,0-7.815,3.502-7.815,7.815v47.034C218.414,116.159,221.916,119.661,226.229,119.661z M234.044,72.627h31.413v31.404   h-31.413V72.627z"
       id="path8" /><path
       d="M316.756,368.132c1.546,1.756,3.702,2.653,5.859,2.653c1.851,0,3.683-0.649,5.172-1.966l71.071-62.864   c1.699-1.489,2.653-3.645,2.653-5.897c-0.019-2.252-1.011-4.389-2.71-5.878L327.73,232.67c-3.244-2.844-8.206-2.462-11.031,0.792   c-2.824,3.263-2.462,8.197,0.802,11.021l64.315,55.67l-64.372,56.948C314.199,359.963,313.893,364.906,316.756,368.132z"
       id="path10" /><path
       d="M191.6,368.819c1.489,1.317,3.34,1.966,5.181,1.966c2.157,0,4.313-0.897,5.859-2.653c2.853-3.225,2.557-8.168-0.678-11.031   l-64.391-56.948l64.324-55.67c3.263-2.825,3.626-7.758,0.792-11.021c-2.825-3.254-7.739-3.607-11.021-0.792l-71.08,61.509   c-1.708,1.489-2.691,3.626-2.7,5.878c-0.01,2.252,0.945,4.409,2.634,5.897L191.6,368.819z"
       id="path12" /><path
       d="M233.098,397.921c0.553,0.115,1.097,0.172,1.641,0.172c3.607,0,6.851-2.519,7.634-6.202l41.022-192.715   c0.897-4.227-1.794-8.378-6.031-9.275c-4.122-0.907-8.369,1.803-9.266,6.012l-41.013,192.735   C226.189,392.864,228.88,397.024,233.098,397.921z"
       id="path14" /></g></svg>
