<?xml version="1.0" encoding="UTF-8" standalone="no"?>
<svg
   xmlns:dc="http://purl.org/dc/elements/1.1/"
   xmlns:cc="http://creativecommons.org/ns#"
   xmlns:rdf="http://www.w3.org/1999/02/22-rdf-syntax-ns#"
   xmlns:svg="http://www.w3.org/2000/svg"
   xmlns="http://www.w3.org/2000/svg"
   xmlns:sodipodi="http://sodipodi.sourceforge.net/DTD/sodipodi-0.dtd"
   xmlns:inkscape="http://www.inkscape.org/namespaces/inkscape"
   inkscape:version="1.0 (4035a4fb49, 2020-05-01)"
   height="80.900879"
   width="90.793907"
   sodipodi:docname="danger.svg"
   id="svg14"
   y="0px"
   x="0px"
   version="1.1"
   viewBox="0 0 90.793907 80.900879">
  <metadata
     id="metadata20">
    <rdf:RDF>
      <cc:Work
         rdf:about="">
        <dc:format>image/svg+xml</dc:format>
        <dc:type
           rdf:resource="http://purl.org/dc/dcmitype/StillImage" />
        <dc:title>Double bend - First to Left</dc:title>
      </cc:Work>
    </rdf:RDF>
  </metadata>
  <defs
     id="defs18" />
  <sodipodi:namedview
     inkscape:current-layer="svg14"
     inkscape:window-maximized="1"
     inkscape:window-y="0"
     inkscape:window-x="0"
     inkscape:cy="52.5"
     inkscape:cx="45"
     inkscape:zoom="5.024"
     showgrid="false"
     id="namedview16"
     inkscape:window-height="1039"
     inkscape:window-width="1920"
     inkscape:pageshadow="2"
     inkscape:pageopacity="0"
     guidetolerance="10"
     gridtolerance="10"
     objecttolerance="10"
     borderopacity="1"
     bordercolor="#666666"
     pagecolor="#ffffff" />
  <title
     id="title2">Double bend - First to Left</title>
  <desc
     id="desc4">Created with Sketch.</desc>
  <g
     transform="translate(-5,-10)"
     id="g8"
     fill-rule="evenodd"
     fill="none"
     stroke-width="1"
     stroke="none">
    <path
       id="path6"
       fill-rule="nonzero"
       fill="#000000"
       d="m 53.87198,13.020659 c -0.355264,-0.623524 -0.87173,-1.13999 -1.495254,-1.495254 -1.919442,-1.093636 -4.362024,-0.424187 -5.455659,1.495254 L 6.5245432,83.92068 C 6.1807759,84.524027 6,85.206474 6,85.900882 c 0,2.209139 1.790861,4 4,4 h 80.793047 c 0.694408,0 1.376855,-0.180776 1.980202,-0.524543 1.919442,-1.093635 2.58889,-3.536217 1.495255,-5.455659 z m 0.868864,-0.49505 40.396524,70.900021 c 1.367044,2.399302 0.530234,5.452529 -1.869068,6.819573 -0.754184,0.429709 -1.607242,0.655679 -2.475253,0.655679 H 10 c -2.7614237,0 -5,-2.238576 -5,-5 0,-0.86801 0.2259699,-1.721069 0.6556791,-2.475252 L 46.052203,12.525609 c 1.367044,-2.399302 4.420271,-3.2361128 6.819573,-1.869068 0.779406,0.444079 1.424989,1.089662 1.869068,1.869068 z M 53.00824,13.502493 C 52.739858,13.02746 52.34701,12.634612 51.871978,12.36623 50.429433,11.551226 48.599329,12.059948 47.784325,13.502493 L 7.7146577,84.425187 c -0.2543712,0.450233 -0.3880422,0.958574 -0.3880422,1.475695 0,1.656855 1.3431457,3 3.0000005,3 H 90.46595 c 0.517121,0 1.025462,-0.133671 1.475695,-0.388042 1.442544,-0.815004 1.951266,-2.645108 1.136262,-4.087653 z M 20.607858,79.900882 50.396283,27.175829 80.184707,79.900882 Z M 42.015338,60.049938 H 42 V 48.243243 L 45.5,45 49,48.243243 v 11.197159 l 5.834031,-4.308713 C 55.877629,54.417652 57.14004,54 58.5,54 c 3.503865,0 6.3602,2.772408 6.495022,6.243243 H 65 V 77 L 61.5,73.756757 58,77 V 61.423365 l -7.089373,5.11496 C 50.165208,66.836178 49.351735,67 48.5,67 44.910149,67 42,64.089851 42,60.5 c 0,-0.151283 0.0052,-0.30136 0.01534,-0.450062 z" />
  </g>
</svg>
