<svg xmlns="http://www.w3.org/2000/svg" width="1em" height="1em" viewBox="0 0 24 24">
	<path d="M0 0h24v24H0z" fill="none" />
	<path fill="currentColor" d="M8.23 15.196q-.69 0-1.152-.462t-.462-1.153V5.616q0-.691.462-1.153T8.231 4h11.154q.69 0 1.153.463T21 5.616v7.965q0 .69-.462 1.153t-1.153.462zm0-1h11.155q.269 0 .442-.173t.173-.442V5.616q0-.27-.173-.443T19.385 5H8.23q-.27 0-.442.173q-.173.173-.173.443v7.965q0 .269.173.442t.442.173m-.615 0V5zm9.192-5.677q.194 0 .347-.143t.153-.357t-.153-.357t-.347-.143h-6.025q-.195 0-.335.143q-.14.144-.14.357t.143.357t.357.143zm-3 3.154q.194 0 .347-.143t.153-.357t-.153-.357t-.347-.143h-3.025q-.195 0-.335.143t-.14.357t.143.357t.357.143zm-7.973 8.283q-.652.086-1.168-.317q-.515-.404-.62-1.056l-1.249-8.92q-.03-.213.094-.384q.125-.171.358-.202q.208-.03.379.101q.171.132.202.345l1.227 8.939q.038.25.23.404q.193.153.443.115l7.504-.97l4.83-.613q.22-.036.387.1q.167.137.186.362q.02.202-.115.355t-.337.183z" />
</svg>
