<?xml version="1.0" encoding="UTF-8" standalone="no"?>
<!DOCTYPE svg PUBLIC "-//W3C//DTD SVG 1.1//EN" "http://www.w3.org/Graphics/SVG/1.1/DTD/svg11.dtd">
<svg width="100%" height="100%" viewBox="0 0 288 496" version="1.1" xmlns="http://www.w3.org/2000/svg" xmlns:xlink="http://www.w3.org/1999/xlink" xml:space="preserve" xmlns:serif="http://www.serif.com/" style="fill-rule:evenodd;clip-rule:evenodd;stroke-linecap:round;stroke-linejoin:round;stroke-miterlimit:1.5;">
    <g transform="matrix(0.584375,-0.337389,0.337389,0.584375,-281.411,165.95)">
        <path d="M484.949,119.049L589.284,179.287L589.284,299.762L484.949,360L380.615,299.762L380.615,179.287L484.949,119.049Z" style="fill:none;stroke:black;stroke-width:4.45px;"/>
    </g>
    <g transform="matrix(0.584375,-0.337389,0.337389,0.584375,-159.771,95.5472)">
        <path d="M484.949,119.049L589.284,179.287L589.284,299.762L484.949,360L380.615,299.762L380.615,179.287L484.949,119.049Z" style="fill:none;stroke:black;stroke-width:4.45px;"/>
    </g>
    <g transform="matrix(0.584375,-0.337389,0.337389,0.584375,-281.411,306.756)">
        <path d="M484.949,119.049L589.284,179.287L589.284,299.762L484.949,360L380.615,299.762L380.615,179.287L484.949,119.049Z" style="fill:none;stroke:black;stroke-width:4.45px;"/>
    </g>
    <g transform="matrix(0.584375,-0.337389,0.337389,0.584375,-159.771,236.353)">
        <path d="M484.949,119.049L589.284,179.287L589.284,299.762L484.949,360L380.615,299.762L380.615,179.287L484.949,119.049Z" style="fill:none;stroke:black;stroke-width:4.45px;"/>
    </g>
    <g transform="matrix(0.584375,-0.337389,0.337389,0.584375,-281.411,447.561)">
        <path d="M484.949,119.049L589.284,179.287L589.284,299.762L484.949,360L380.615,299.762L380.615,179.287L484.949,119.049Z" style="fill:none;stroke:black;stroke-width:4.45px;"/>
    </g>
    <g transform="matrix(0.584375,-0.337389,0.337389,0.584375,-159.771,377.159)">
        <path d="M484.949,119.049L589.284,179.287L589.284,299.762L484.949,360L380.615,299.762L380.615,179.287L484.949,119.049Z" style="fill:none;stroke:black;stroke-width:4.45px;"/>
    </g>
</svg>
