<svg xmlns="http://www.w3.org/2000/svg" width="24" height="24" viewBox="0 0 24 24"><g fill="none" stroke="currentColor" stroke-linecap="round" stroke-linejoin="round" stroke-width="1.5"><path d="M12 22.8V5.387S9.545 2.66 1.268 2.55a.514.514 0 0 0-.52.52v16.374a.516.516 0 0 0 .5.52C9.543 20.071 12 22.8 12 22.8"/><path d="M9 11.855A21.3 21.3 0 0 0 3.74 10.8M9 16.05A21.3 21.3 0 0 0 3.74 15M15 11.855a21.3 21.3 0 0 1 5.26-1.055M15 16.05c1.702-.57 3.47-.923 5.26-1.05"/><path d="M20.26 2.67q1.139-.1 2.472-.12a.514.514 0 0 1 .518.52v16.374a.516.516 0 0 1-.5.52C14.457 20.071 12 22.8 12 22.8m0 0V5.387s1.143-1.27 4.5-2.111"/><path d="M20.25 7.8V1.2a24 24 0 0 0-3.75.6v6l1.875-1.5z"/></g></svg>