<svg xmlns="http://www.w3.org/2000/svg" width="24" height="24" viewBox="0 0 24 24"><path fill="currentColor" d="M19 18.59a1 1 0 0 0-1 1v2.16a.25.25 0 0 1-.25.25H2.25a.25.25 0 0 1-.25-.23v-17a.25.25 0 0 1 .25-.25H3.5a1 1 0 0 0 0-2H2a2 2 0 0 0-2 2V22a2 2 0 0 0 2 2h16a2 2 0 0 0 2-2v-2.41a1 1 0 0 0-1-1M16.5 4.5h1.25a.25.25 0 0 1 .25.25v.75a1 1 0 0 0 2 0v-1a2 2 0 0 0-2-2h-1.5a1 1 0 0 0 0 2"/><path fill="currentColor" d="M7 5.5h6A1.5 1.5 0 0 0 14.5 4v-.5A1.5 1.5 0 0 0 13 2h-1a2 2 0 0 0-4 0H7a1.5 1.5 0 0 0-1.5 1.5V4A1.5 1.5 0 0 0 7 5.5M4 10a1 1 0 0 0 1 1h8a1 1 0 0 0 0-2H5a1 1 0 0 0-1 1m1 4a1 1 0 0 0 0 2h4.5a1 1 0 0 0 0-2Zm18.41-5.76a2 2 0 0 0-2.82 0l-7.87 7.87a.45.45 0 0 0-.11.17l-1.42 3.53a.51.51 0 0 0 .11.54a.49.49 0 0 0 .54.11l3.54-1.41a.6.6 0 0 0 .17-.11l7.86-7.87a2 2 0 0 0 0-2.83"/></svg>