<?xml version="1.0" encoding="UTF-8" standalone="no"?>
<!DOCTYPE svg PUBLIC "-//W3C//DTD SVG 1.1//EN" "http://www.w3.org/Graphics/SVG/1.1/DTD/svg11.dtd">
<svg width="100%" height="100%" viewBox="0 0 4200 2550" version="1.1" xmlns="http://www.w3.org/2000/svg" xmlns:xlink="http://www.w3.org/1999/xlink" xml:space="preserve" xmlns:serif="http://www.serif.com/" style="fill-rule:evenodd;clip-rule:evenodd;stroke-linecap:round;stroke-linejoin:round;stroke-miterlimit:1.5;">
    <g transform="matrix(1,0,0,1,159.939,216.841)">
        <g transform="matrix(1.14204,0,0,2.61323,-636.671,-3079.33)">
            <path d="M700.103,2026.48C969.047,2026.48 1023.76,1804.57 1170.72,1804.57C1317.68,1804.57 1372.39,2026.48 1641.34,2026.48" style="fill:none;stroke:rgb(35,31,32);stroke-width:6.2px;"/>
        </g>
        <g transform="matrix(1.67545,0,0,2.61323,-1279.4,-3079.33)">
            <path d="M798.258,2026.48L1564.96,2026.48" style="fill:none;stroke:rgb(35,31,32);stroke-width:5.69px;"/>
        </g>
        <g transform="matrix(1.40201,0,0,4.01227,-956.292,-5914.46)">
            <path d="M1177.15,1881.94L1186.07,1881.94L1186.07,1883.52L1177.15,1883.52L1177.15,1881.94ZM1177.15,1886.66L1186.07,1886.66L1186.07,1889.8L1177.15,1889.8L1177.15,1886.66ZM1177.15,1892.94L1186.07,1892.94L1186.07,1896.08L1177.15,1896.08L1177.15,1892.94ZM1177.15,1899.23L1186.07,1899.23L1186.07,1902.37L1177.15,1902.37L1177.15,1899.23ZM1177.15,1905.51L1186.07,1905.51L1186.07,1908.65L1177.15,1908.65L1177.15,1905.51ZM1177.15,1911.79L1186.07,1911.79L1186.07,1914.94L1177.15,1914.94L1177.15,1911.79ZM1177.15,1918.08L1186.07,1918.08L1186.07,1921.22L1177.15,1921.22L1177.15,1918.08ZM1177.15,1924.36L1186.07,1924.36L1186.07,1927.5L1177.15,1927.5L1177.15,1924.36ZM1177.15,1930.65L1186.07,1930.65L1186.07,1933.79L1177.15,1933.79L1177.15,1930.65ZM1177.15,1936.93L1186.07,1936.93L1186.07,1940.07L1177.15,1940.07L1177.15,1936.93ZM1177.15,1943.21L1186.07,1943.21L1186.07,1946.36L1177.15,1946.36L1177.15,1943.21ZM1177.15,1949.5L1186.07,1949.5L1186.07,1952.64L1177.15,1952.64L1177.15,1949.5ZM1177.15,1955.78L1186.07,1955.78L1186.07,1958.92L1177.15,1958.92L1177.15,1955.78ZM1177.15,1962.07L1186.07,1962.07L1186.07,1965.21L1177.15,1965.21L1177.15,1962.07ZM1177.15,1968.35L1186.07,1968.35L1186.07,1971.49L1177.15,1971.49L1177.15,1968.35ZM1177.15,1974.63L1186.07,1974.63L1186.07,1977.78L1177.15,1977.78L1177.15,1974.63ZM1177.15,1980.92L1186.07,1980.92L1186.07,1984.06L1177.15,1984.06L1177.15,1980.92ZM1177.15,1987.2L1186.07,1987.2L1186.07,1990.35L1177.15,1990.35L1177.15,1987.2ZM1177.15,1993.49L1186.07,1993.49L1186.07,1996.63L1177.15,1996.63L1177.15,1993.49ZM1177.15,1999.77L1186.07,1999.77L1186.07,2002.91L1177.15,2002.91L1177.15,1999.77ZM1177.15,2006.06L1186.07,2006.06L1186.07,2009.2L1177.15,2009.2L1177.15,2006.06ZM1177.15,2012.34L1186.07,2012.34L1186.07,2015.48L1177.15,2015.48L1177.15,2012.34ZM1177.15,2018.62L1186.07,2018.62L1186.07,2021.77L1177.15,2021.77L1177.15,2018.62ZM1177.15,2024.91L1186.07,2024.91L1186.07,2026.48L1177.15,2026.48L1177.15,2024.91Z" style="fill:rgb(35,31,32);"/>
        </g>
        <g transform="matrix(1.40201,0,0,4.01227,-791.157,-5914.46)">
            <path d="M1177.15,1931.28L1186.07,1931.28L1186.07,1932.87L1177.15,1932.87L1177.15,1931.28ZM1177.15,1936.04L1186.07,1936.04L1186.07,1939.22L1177.15,1939.22L1177.15,1936.04ZM1177.15,1942.39L1186.07,1942.39L1186.07,1945.56L1177.15,1945.56L1177.15,1942.39ZM1177.15,1948.74L1186.07,1948.74L1186.07,1951.91L1177.15,1951.91L1177.15,1948.74ZM1177.15,1955.08L1186.07,1955.08L1186.07,1958.26L1177.15,1958.26L1177.15,1955.08ZM1177.15,1961.43L1186.07,1961.43L1186.07,1964.6L1177.15,1964.6L1177.15,1961.43ZM1177.15,1967.78L1186.07,1967.78L1186.07,1970.95L1177.15,1970.95L1177.15,1967.78ZM1177.15,1974.12L1186.07,1974.12L1186.07,1977.3L1177.15,1977.3L1177.15,1974.12ZM1177.15,1980.47L1186.07,1980.47L1186.07,1983.64L1177.15,1983.64L1177.15,1980.47ZM1177.15,1986.81L1186.07,1986.81L1186.07,1989.99L1177.15,1989.99L1177.15,1986.81ZM1177.15,1993.16L1186.07,1993.16L1186.07,1996.33L1177.15,1996.33L1177.15,1993.16ZM1177.15,1999.51L1186.07,1999.51L1186.07,2002.68L1177.15,2002.68L1177.15,1999.51ZM1177.15,2005.85L1186.07,2005.85L1186.07,2009.03L1177.15,2009.03L1177.15,2005.85ZM1177.15,2012.2L1186.07,2012.2L1186.07,2015.37L1177.15,2015.37L1177.15,2012.2ZM1177.15,2018.55L1186.07,2018.55L1186.07,2021.72L1177.15,2021.72L1177.15,2018.55ZM1177.15,2024.89L1186.07,2024.89L1186.07,2026.48L1177.15,2026.48L1177.15,2024.89Z" style="fill:rgb(35,31,32);"/>
        </g>
        <g transform="matrix(1.40201,0,0,4.01227,-626.023,-5914.46)">
            <path d="M1177.15,2000.51L1186.07,2000.51L1186.07,2002.13L1177.15,2002.13L1177.15,2000.51ZM1177.15,2005.38L1186.07,2005.38L1186.07,2008.62L1177.15,2008.62L1177.15,2005.38ZM1177.15,2011.87L1186.07,2011.87L1186.07,2015.12L1177.15,2015.12L1177.15,2011.87ZM1177.15,2018.36L1186.07,2018.36L1186.07,2021.61L1177.15,2021.61L1177.15,2018.36ZM1177.15,2024.86L1186.07,2024.86L1186.07,2026.48L1177.15,2026.48L1177.15,2024.86Z" style="fill:rgb(35,31,32);"/>
        </g>
        <g transform="matrix(1.40201,0,0,4.01227,-1121.43,-5914.46)">
            <path d="M1177.15,1931.28L1186.07,1931.28L1186.07,1932.87L1177.15,1932.87L1177.15,1931.28ZM1177.15,1936.04L1186.07,1936.04L1186.07,1939.22L1177.15,1939.22L1177.15,1936.04ZM1177.15,1942.39L1186.07,1942.39L1186.07,1945.56L1177.15,1945.56L1177.15,1942.39ZM1177.15,1948.74L1186.07,1948.74L1186.07,1951.91L1177.15,1951.91L1177.15,1948.74ZM1177.15,1955.08L1186.07,1955.08L1186.07,1958.26L1177.15,1958.26L1177.15,1955.08ZM1177.15,1961.43L1186.07,1961.43L1186.07,1964.6L1177.15,1964.6L1177.15,1961.43ZM1177.15,1967.78L1186.07,1967.78L1186.07,1970.95L1177.15,1970.95L1177.15,1967.78ZM1177.15,1974.12L1186.07,1974.12L1186.07,1977.3L1177.15,1977.3L1177.15,1974.12ZM1177.15,1980.47L1186.07,1980.47L1186.07,1983.64L1177.15,1983.64L1177.15,1980.47ZM1177.15,1986.81L1186.07,1986.81L1186.07,1989.99L1177.15,1989.99L1177.15,1986.81ZM1177.15,1993.16L1186.07,1993.16L1186.07,1996.33L1177.15,1996.33L1177.15,1993.16ZM1177.15,1999.51L1186.07,1999.51L1186.07,2002.68L1177.15,2002.68L1177.15,1999.51ZM1177.15,2005.85L1186.07,2005.85L1186.07,2009.03L1177.15,2009.03L1177.15,2005.85ZM1177.15,2012.2L1186.07,2012.2L1186.07,2015.37L1177.15,2015.37L1177.15,2012.2ZM1177.15,2018.55L1186.07,2018.55L1186.07,2021.72L1177.15,2021.72L1177.15,2018.55ZM1177.15,2024.89L1186.07,2024.89L1186.07,2026.48L1177.15,2026.48L1177.15,2024.89Z" style="fill:rgb(35,31,32);"/>
        </g>
        <g transform="matrix(1.40201,0,0,4.01227,-1286.56,-5914.46)">
            <path d="M1177.15,2000.51L1186.07,2000.51L1186.07,2002.13L1177.15,2002.13L1177.15,2000.51ZM1177.15,2005.38L1186.07,2005.38L1186.07,2008.62L1177.15,2008.62L1177.15,2005.38ZM1177.15,2011.87L1186.07,2011.87L1186.07,2015.12L1177.15,2015.12L1177.15,2011.87ZM1177.15,2018.36L1186.07,2018.36L1186.07,2021.61L1177.15,2021.61L1177.15,2018.36ZM1177.15,2024.86L1186.07,2024.86L1186.07,2026.48L1177.15,2026.48L1177.15,2024.86Z" style="fill:rgb(35,31,32);"/>
        </g>
        <g transform="matrix(1.18448,0,0,1.18448,-700.754,-185.654)">
            <g transform="matrix(105.531,0,0,105.531,1150.29,2106.29)">
                <path d="M0.082,0.179L0.082,-0.486L0.164,-0.486L0.164,-0.189C0.164,-0.146 0.171,-0.114 0.185,-0.092C0.199,-0.07 0.222,-0.059 0.253,-0.059C0.268,-0.059 0.282,-0.062 0.296,-0.066C0.31,-0.071 0.324,-0.08 0.338,-0.094C0.353,-0.108 0.367,-0.128 0.382,-0.154L0.382,-0.486L0.465,-0.486C0.464,-0.442 0.463,-0.398 0.462,-0.353C0.461,-0.308 0.461,-0.264 0.46,-0.22C0.46,-0.177 0.459,-0.136 0.459,-0.098C0.459,-0.084 0.463,-0.074 0.469,-0.068C0.476,-0.062 0.484,-0.059 0.495,-0.059C0.5,-0.059 0.504,-0.059 0.509,-0.061C0.514,-0.062 0.519,-0.063 0.524,-0.065L0.535,-0.002C0.528,0.001 0.52,0.003 0.511,0.006C0.501,0.008 0.49,0.009 0.477,0.009C0.449,0.009 0.429,0.002 0.415,-0.013C0.401,-0.027 0.393,-0.051 0.389,-0.082L0.387,-0.082C0.369,-0.051 0.349,-0.028 0.326,-0.013C0.303,0.002 0.279,0.01 0.252,0.01C0.233,0.01 0.215,0.007 0.199,0.001C0.183,-0.005 0.17,-0.018 0.158,-0.037C0.158,-0.005 0.159,0.022 0.159,0.045C0.159,0.068 0.16,0.089 0.161,0.11C0.162,0.13 0.163,0.153 0.165,0.179L0.082,0.179Z" style="fill:rgb(35,31,32);fill-rule:nonzero;"/>
            </g>
            <g transform="matrix(105.531,0,0,105.531,1209.58,2106.29)">
            </g>
        </g>
        <g transform="matrix(1.18448,0,0,1.18448,-615.78,-507.727)">
            <g transform="matrix(105.531,0,0,105.531,1150.29,2106.29)">
                <path d="M0.264,0.012C0.225,0.012 0.189,0.002 0.155,-0.017C0.122,-0.036 0.096,-0.064 0.076,-0.101C0.056,-0.139 0.046,-0.184 0.046,-0.238C0.046,-0.295 0.056,-0.341 0.077,-0.378C0.099,-0.415 0.126,-0.442 0.16,-0.46C0.194,-0.477 0.23,-0.486 0.268,-0.486L0.534,-0.486L0.534,-0.416C0.507,-0.418 0.481,-0.42 0.457,-0.421C0.433,-0.423 0.407,-0.424 0.38,-0.424L0.38,-0.42C0.41,-0.403 0.434,-0.379 0.451,-0.345C0.468,-0.312 0.476,-0.273 0.476,-0.227C0.476,-0.177 0.467,-0.134 0.448,-0.098C0.429,-0.062 0.404,-0.035 0.371,-0.016C0.339,0.003 0.304,0.012 0.264,0.012ZM0.265,-0.056C0.29,-0.056 0.313,-0.064 0.333,-0.078C0.352,-0.093 0.368,-0.113 0.379,-0.14C0.39,-0.166 0.396,-0.198 0.396,-0.234C0.396,-0.266 0.391,-0.297 0.381,-0.325C0.37,-0.353 0.356,-0.375 0.336,-0.392C0.317,-0.409 0.294,-0.418 0.266,-0.418C0.24,-0.418 0.217,-0.411 0.197,-0.398C0.177,-0.385 0.161,-0.365 0.149,-0.338C0.137,-0.312 0.131,-0.278 0.131,-0.238C0.131,-0.201 0.137,-0.168 0.148,-0.141C0.16,-0.114 0.176,-0.093 0.196,-0.079C0.216,-0.064 0.239,-0.056 0.265,-0.056Z" style="fill:rgb(35,31,32);fill-rule:nonzero;"/>
            </g>
            <g transform="matrix(105.531,0,0,105.531,1207.92,2106.29)">
            </g>
        </g>
        <g transform="matrix(1.05713,0,0,1,-41.1175,0)">
            <g transform="matrix(0.945959,-0,-0,1,-112.4,-216.841)">
                <path d="M985.937,2226.57L1001.56,2242.19L985.937,2257.82" style="fill:none;stroke:black;stroke-width:10.42px;stroke-linejoin:miter;stroke-miterlimit:10;"/>
                <path d="M879.686,2242.19L1001.56,2242.19" style="fill:none;stroke:black;stroke-width:10.42px;"/>
            </g>
        </g>
    </g>
    <g transform="matrix(1,0,0,1,746.153,-324.844)">
        <g transform="matrix(1,0,0,1.73677,1599.81,-2707.76)">
            <path d="M1175.36,1804.57L1187.86,1804.57L1187.86,1808.26L1175.36,1808.26L1175.36,1804.57ZM1175.36,1815.66L1187.86,1815.66L1187.86,1823.06L1175.36,1823.06L1175.36,1815.66ZM1175.36,1830.45L1187.86,1830.45L1187.86,1837.85L1175.36,1837.85L1175.36,1830.45ZM1175.36,1845.25L1187.86,1845.25L1187.86,1852.65L1175.36,1852.65L1175.36,1845.25ZM1175.36,1860.04L1187.86,1860.04L1187.86,1867.44L1175.36,1867.44L1175.36,1860.04ZM1175.36,1874.84L1187.86,1874.84L1187.86,1882.24L1175.36,1882.24L1175.36,1874.84ZM1175.36,1889.63L1187.86,1889.63L1187.86,1897.03L1175.36,1897.03L1175.36,1889.63ZM1175.36,1904.43L1187.86,1904.43L1187.86,1911.82L1175.36,1911.82L1175.36,1904.43ZM1175.36,1919.22L1187.86,1919.22L1187.86,1926.62L1175.36,1926.62L1175.36,1919.22ZM1175.36,1934.02L1187.86,1934.02L1187.86,1941.41L1175.36,1941.41L1175.36,1934.02ZM1175.36,1948.81L1187.86,1948.81L1187.86,1956.21L1175.36,1956.21L1175.36,1948.81ZM1175.36,1963.6L1187.86,1963.6L1187.86,1971L1175.36,1971L1175.36,1963.6ZM1175.36,1978.4L1187.86,1978.4L1187.86,1985.79L1175.36,1985.79L1175.36,1978.4ZM1175.36,1993.19L1187.86,1993.19L1187.86,2000.59L1175.36,2000.59L1175.36,1993.19ZM1175.36,2007.99L1187.86,2007.99L1187.86,2015.38L1175.36,2015.38L1175.36,2007.99ZM1175.36,2022.78L1187.86,2022.78L1187.86,2026.48L1175.36,2026.48L1175.36,2022.78Z" style="fill:rgb(35,31,32);"/>
        </g>
        <g transform="matrix(0.814572,0,0,1.73677,1827.79,-2707.76)">
            <path d="M1641.34,2026.48C1780.55,2026.48 1459.91,2026.48 1459.91,2026.48L1459.91,1984.27L1459.55,1984.27C1507.9,2009.19 1566.28,2026.48 1641.34,2026.48Z" style="fill:rgb(136,176,75);"/>
        </g>
        <g transform="matrix(1,0,0,0.330359,1364.25,142.294)">
            <path d="M1033.83,2026.48C1094.97,2026.48 1142.52,1935.6 1181.91,1804.57L1181.61,1804.57L1181.61,2026.48C1181.61,2026.48 920.426,2026.48 1033.83,2026.48Z" style="fill:rgb(136,176,75);"/>
        </g>
        <g transform="matrix(1.19504,0,0,1.73677,1369.36,-2707.76)">
            <path d="M798.258,2026.48L1564.96,2026.48" style="fill:none;stroke:rgb(35,31,32);stroke-width:8.39px;"/>
        </g>
        <g transform="matrix(0.814572,0,0,1.73677,1827.79,-2707.76)">
            <path d="M700.103,2026.48C969.047,2026.48 1023.76,1804.57 1170.72,1804.57C1317.68,1804.57 1372.39,2026.48 1641.34,2026.48" style="fill:none;stroke:rgb(35,31,32);stroke-width:9.22px;"/>
        </g>
        <g transform="matrix(1,0,0,1,1598.13,-1178.27)">
            <g transform="matrix(125,0,0,125,1150.29,2106.29)">
                <path d="M0.249,0.012C0.185,0.012 0.135,-0.017 0.099,-0.074C0.062,-0.132 0.044,-0.214 0.044,-0.321C0.044,-0.428 0.062,-0.51 0.099,-0.566C0.135,-0.622 0.185,-0.65 0.249,-0.65C0.312,-0.65 0.362,-0.622 0.398,-0.566C0.435,-0.509 0.453,-0.428 0.453,-0.321C0.453,-0.214 0.435,-0.132 0.398,-0.074C0.362,-0.017 0.312,0.012 0.249,0.012ZM0.249,-0.054C0.273,-0.054 0.295,-0.063 0.314,-0.082C0.332,-0.1 0.347,-0.129 0.357,-0.169C0.368,-0.208 0.373,-0.259 0.373,-0.321C0.373,-0.384 0.368,-0.434 0.357,-0.473C0.347,-0.511 0.332,-0.539 0.314,-0.557C0.295,-0.575 0.273,-0.584 0.249,-0.584C0.224,-0.584 0.202,-0.575 0.183,-0.557C0.165,-0.539 0.15,-0.511 0.14,-0.473C0.129,-0.434 0.124,-0.384 0.124,-0.321C0.124,-0.259 0.129,-0.208 0.14,-0.169C0.15,-0.129 0.165,-0.1 0.183,-0.082C0.202,-0.063 0.224,-0.054 0.249,-0.054Z" style="fill:rgb(35,31,32);fill-rule:nonzero;"/>
            </g>
            <g transform="matrix(125,0,0,125,1212.42,2106.29)">
            </g>
        </g>
    </g>
    <g transform="matrix(1.45114,0,0,1.19552,-832.585,-612.185)">
        <g transform="matrix(1.1244,0,0,1.2426,-347.283,-170.986)">
            <path d="M1860.97,1676.52L1860.97,2134.92L2538.2,2134.92" style="fill:none;stroke:rgb(35,31,32);stroke-width:8.01px;"/>
        </g>
        <g transform="matrix(3.17042e-17,-0.51777,0.386884,2.36898e-17,1121.17,2801.21)">
            <path d="M1641.34,2026.48C1372.39,2026.48 1493.64,2252.92 1170.72,2248.39C1023.78,2246.33 969.047,2026.48 700.103,2026.48C969.047,2026.48 1023.78,1806.63 1170.72,1804.57C1493.64,1800.04 1372.39,2026.48 1641.34,2026.48" style="fill:none;stroke:rgb(35,31,32);stroke-width:21.15px;"/>
        </g>
        <g transform="matrix(2.47875e-17,-0.404811,0.386884,2.36898e-17,1349.84,2615.81)">
            <path d="M1641.34,2026.48C1372.39,2026.48 1521.96,2252.92 1199.04,2248.39C1052.11,2246.33 969.047,2026.48 700.103,2026.48C969.047,2026.48 1052.11,1806.63 1199.04,1804.57C1521.96,1800.04 1372.39,2026.48 1641.34,2026.48" style="fill:none;stroke:rgb(35,31,32);stroke-width:23.85px;"/>
        </g>
        <g transform="matrix(2.47875e-17,0.404811,0.386884,-2.36898e-17,1562.71,1744.15)">
            <path d="M1641.34,2026.48C1372.39,2026.48 1395.72,2250.45 1248.79,2248.39C1101.85,2246.33 878.472,2026.48 609.528,2026.48C878.472,2026.48 1101.85,1806.63 1248.79,1804.57C1395.72,1802.51 1372.39,2026.48 1641.34,2026.48" style="fill:none;stroke:rgb(35,31,32);stroke-width:23.85px;"/>
        </g>
        <g transform="matrix(1.56582,0,0,1.89912,-1237.84,-1675.3)">
            <circle cx="2007.27" cy="2030.03" r="15.086"/>
        </g>
        <g transform="matrix(1.56582,0,0,1.89912,-1009.17,-1744.43)">
            <circle cx="2007.27" cy="2030.03" r="15.086"/>
        </g>
        <g transform="matrix(1.56582,0,0,1.89912,-796.303,-1615.04)">
            <circle cx="2007.27" cy="2030.03" r="15.086"/>
        </g>
        <g transform="matrix(1,0,0,1,-102.09,127.931)">
            <path d="M2007.27,2052.03L2235.94,1982.89" style="fill:none;stroke:black;stroke-width:9.4px;"/>
        </g>
        <g transform="matrix(1,0,0,1,-102.09,127.931)">
            <path d="M2007.27,2052.03L2448.81,2112.29" style="fill:none;stroke:black;stroke-width:9.4px;"/>
        </g>
    </g>
    <g transform="matrix(1,0,0,1,-304.155,-228.605)">
        <g transform="matrix(1.06431,0,0,0.844279,-601.428,-257.845)">
            <path d="M1860.97,1676.52L1860.97,2134.92L2538.2,2134.92" style="fill:none;stroke:rgb(35,31,32);stroke-width:13.01px;"/>
        </g>
        <g transform="matrix(0.540219,0,0,1,619.42,0)">
            <path d="M1406.45,1356.91L1406.45,1344.41L1418.54,1344.41L1418.54,1356.91L1406.45,1356.91ZM1442.73,1356.91L1442.73,1344.41L1466.92,1344.41L1466.92,1356.91L1442.73,1356.91ZM1491.1,1356.91L1491.1,1344.41L1515.29,1344.41L1515.29,1356.91L1491.1,1356.91ZM1539.48,1356.91L1539.48,1344.41L1563.66,1344.41L1563.66,1356.91L1539.48,1356.91ZM1587.85,1356.91L1587.85,1344.41L1612.04,1344.41L1612.04,1356.91L1587.85,1356.91ZM1636.23,1356.91L1636.23,1344.41L1660.41,1344.41L1660.41,1356.91L1636.23,1356.91ZM1684.6,1356.91L1684.6,1344.41L1708.79,1344.41L1708.79,1356.91L1684.6,1356.91ZM1732.98,1356.91L1732.98,1344.41L1757.16,1344.41L1757.16,1356.91L1732.98,1356.91ZM1781.35,1356.91L1781.35,1344.41L1805.54,1344.41L1805.54,1356.91L1781.35,1356.91ZM1829.72,1356.91L1829.72,1344.41L1853.91,1344.41L1853.91,1356.91L1829.72,1356.91ZM1878.1,1356.91L1878.1,1344.41L1902.28,1344.41L1902.28,1356.91L1878.1,1356.91ZM1926.47,1356.91L1926.47,1344.41L1950.66,1344.41L1950.66,1356.91L1926.47,1356.91ZM1974.85,1356.91L1974.85,1344.41L1999.03,1344.41L1999.03,1356.91L1974.85,1356.91ZM2023.22,1356.91L2023.22,1344.41L2047.41,1344.41L2047.41,1356.91L2023.22,1356.91ZM2071.59,1356.91L2071.59,1344.41L2083.69,1344.41L2083.69,1356.91L2071.59,1356.91Z"/>
        </g>
        <g transform="matrix(1,0,0,0.583622,0,659.365)">
            <path d="M1751.32,1516.83L1738.82,1516.83L1738.82,1504.96L1751.32,1504.96L1751.32,1516.83ZM1751.32,1481.22L1738.82,1481.22L1738.82,1457.49L1751.32,1457.49L1751.32,1481.22ZM1751.32,1433.75L1738.82,1433.75L1738.82,1410.01L1751.32,1410.01L1751.32,1433.75ZM1751.32,1386.27L1738.82,1386.27L1738.82,1362.54L1751.32,1362.54L1751.32,1386.27ZM1751.32,1338.8L1738.82,1338.8L1738.82,1315.06L1751.32,1315.06L1751.32,1338.8ZM1751.32,1291.32L1738.82,1291.32L1738.82,1267.58L1751.32,1267.58L1751.32,1291.32ZM1751.32,1243.84L1738.82,1243.84L1738.82,1220.11L1751.32,1220.11L1751.32,1243.84ZM1751.32,1196.37L1738.82,1196.37L1738.82,1184.5L1751.32,1184.5L1751.32,1196.37Z"/>
        </g>
        <g transform="matrix(-1,1.22465e-16,-1.22465e-16,-1,3490.26,2701.33)">
            <path d="M1406.45,1516.83C1639.12,1516.83 1688.11,1407.62 1745.07,1350.66" style="fill:none;stroke:black;stroke-width:12.5px;"/>
        </g>
        <g transform="matrix(1,0,0,1,0.128629,0)">
            <path d="M1406.45,1516.83C1639.12,1516.83 1688.11,1407.62 1745.07,1350.66" style="fill:none;stroke:black;stroke-width:12.5px;"/>
        </g>
        <g transform="matrix(1,0,0,1,563.84,-441.737)">
            <g transform="matrix(125,0,0,125,1150.29,2106.29)">
                <path d="M0.249,0.012C0.185,0.012 0.135,-0.017 0.099,-0.074C0.062,-0.132 0.044,-0.214 0.044,-0.321C0.044,-0.428 0.062,-0.51 0.099,-0.566C0.135,-0.622 0.185,-0.65 0.249,-0.65C0.312,-0.65 0.362,-0.622 0.398,-0.566C0.435,-0.509 0.453,-0.428 0.453,-0.321C0.453,-0.214 0.435,-0.132 0.398,-0.074C0.362,-0.017 0.312,0.012 0.249,0.012ZM0.249,-0.054C0.273,-0.054 0.295,-0.063 0.314,-0.082C0.332,-0.1 0.347,-0.129 0.357,-0.169C0.368,-0.208 0.373,-0.259 0.373,-0.321C0.373,-0.384 0.368,-0.434 0.357,-0.473C0.347,-0.511 0.332,-0.539 0.314,-0.557C0.295,-0.575 0.273,-0.584 0.249,-0.584C0.224,-0.584 0.202,-0.575 0.183,-0.557C0.165,-0.539 0.15,-0.511 0.14,-0.473C0.129,-0.434 0.124,-0.384 0.124,-0.321C0.124,-0.259 0.129,-0.208 0.14,-0.169C0.15,-0.129 0.165,-0.1 0.183,-0.082C0.202,-0.063 0.224,-0.054 0.249,-0.054Z" style="fill:rgb(35,31,32);fill-rule:nonzero;"/>
            </g>
            <g transform="matrix(125,0,0,125,1212.42,2106.29)">
            </g>
        </g>
        <g transform="matrix(1,0,0,1,127.273,-551.934)">
            <g transform="matrix(125,0,0,125,1150.29,2106.29)">
                <path d="M0.249,0.012C0.185,0.012 0.135,-0.017 0.099,-0.074C0.062,-0.132 0.044,-0.214 0.044,-0.321C0.044,-0.428 0.062,-0.51 0.099,-0.566C0.135,-0.622 0.185,-0.65 0.249,-0.65C0.312,-0.65 0.362,-0.622 0.398,-0.566C0.435,-0.509 0.453,-0.428 0.453,-0.321C0.453,-0.214 0.435,-0.132 0.398,-0.074C0.362,-0.017 0.312,0.012 0.249,0.012ZM0.249,-0.054C0.273,-0.054 0.295,-0.063 0.314,-0.082C0.332,-0.1 0.347,-0.129 0.357,-0.169C0.368,-0.208 0.373,-0.259 0.373,-0.321C0.373,-0.384 0.368,-0.434 0.357,-0.473C0.347,-0.511 0.332,-0.539 0.314,-0.557C0.295,-0.575 0.273,-0.584 0.249,-0.584C0.224,-0.584 0.202,-0.575 0.183,-0.557C0.165,-0.539 0.15,-0.511 0.14,-0.473C0.129,-0.434 0.124,-0.384 0.124,-0.321C0.124,-0.259 0.129,-0.208 0.14,-0.169C0.15,-0.129 0.165,-0.1 0.183,-0.082C0.202,-0.063 0.224,-0.054 0.249,-0.054Z" style="fill:rgb(35,31,32);fill-rule:nonzero;"/>
            </g>
            <g transform="matrix(125,0,0,125,1212.42,2106.29)">
            </g>
        </g>
        <g transform="matrix(1,0,0,1,34.4796,-725.285)">
            <g transform="matrix(125,0,0,125,1150.29,2106.29)">
                <path d="M0.249,0.012C0.185,0.012 0.135,-0.017 0.099,-0.074C0.062,-0.132 0.044,-0.214 0.044,-0.321C0.044,-0.428 0.062,-0.51 0.099,-0.566C0.135,-0.622 0.185,-0.65 0.249,-0.65C0.312,-0.65 0.362,-0.622 0.398,-0.566C0.435,-0.509 0.453,-0.428 0.453,-0.321C0.453,-0.214 0.435,-0.132 0.398,-0.074C0.362,-0.017 0.312,0.012 0.249,0.012ZM0.249,-0.054C0.273,-0.054 0.295,-0.063 0.314,-0.082C0.332,-0.1 0.347,-0.129 0.357,-0.169C0.368,-0.208 0.373,-0.259 0.373,-0.321C0.373,-0.384 0.368,-0.434 0.357,-0.473C0.347,-0.511 0.332,-0.539 0.314,-0.557C0.295,-0.575 0.273,-0.584 0.249,-0.584C0.224,-0.584 0.202,-0.575 0.183,-0.557C0.165,-0.539 0.15,-0.511 0.14,-0.473C0.129,-0.434 0.124,-0.384 0.124,-0.321C0.124,-0.259 0.129,-0.208 0.14,-0.169C0.15,-0.129 0.165,-0.1 0.183,-0.082C0.202,-0.063 0.224,-0.054 0.249,-0.054Z" style="fill:rgb(35,31,32);fill-rule:nonzero;"/>
            </g>
            <g transform="matrix(125,0,0,125,1212.42,2106.29)">
                <path d="M0.125,0.012C0.109,0.012 0.095,0.006 0.083,-0.006C0.071,-0.017 0.065,-0.032 0.065,-0.05C0.065,-0.07 0.071,-0.085 0.083,-0.096C0.095,-0.108 0.109,-0.114 0.125,-0.114C0.141,-0.114 0.155,-0.108 0.167,-0.096C0.178,-0.085 0.184,-0.07 0.184,-0.05C0.184,-0.032 0.178,-0.017 0.167,-0.006C0.155,0.006 0.141,0.012 0.125,0.012Z" style="fill:rgb(35,31,32);fill-rule:nonzero;"/>
            </g>
            <g transform="matrix(125,0,0,125,1243.57,2106.29)">
                <path d="M0.234,0.012C0.2,0.012 0.17,0.008 0.144,-0C0.118,-0.009 0.095,-0.02 0.076,-0.033C0.056,-0.047 0.039,-0.061 0.025,-0.075L0.065,-0.129C0.084,-0.11 0.107,-0.094 0.132,-0.079C0.157,-0.064 0.189,-0.056 0.226,-0.056C0.252,-0.056 0.275,-0.062 0.297,-0.074C0.318,-0.086 0.335,-0.103 0.347,-0.125C0.359,-0.146 0.366,-0.172 0.366,-0.202C0.366,-0.246 0.353,-0.28 0.329,-0.305C0.304,-0.33 0.271,-0.342 0.23,-0.342C0.208,-0.342 0.19,-0.339 0.174,-0.332C0.158,-0.326 0.14,-0.316 0.121,-0.303L0.077,-0.331L0.098,-0.638L0.417,-0.638L0.417,-0.567L0.17,-0.567L0.153,-0.378C0.169,-0.386 0.184,-0.392 0.199,-0.397C0.214,-0.402 0.232,-0.404 0.251,-0.404C0.288,-0.404 0.321,-0.397 0.351,-0.383C0.381,-0.369 0.404,-0.347 0.422,-0.317C0.44,-0.288 0.449,-0.25 0.449,-0.204C0.449,-0.158 0.439,-0.119 0.419,-0.087C0.398,-0.055 0.372,-0.03 0.339,-0.013C0.306,0.004 0.271,0.012 0.234,0.012Z" style="fill:rgb(35,31,32);fill-rule:nonzero;"/>
            </g>
            <g transform="matrix(125,0,0,125,1305.7,2106.29)">
            </g>
        </g>
        <g transform="matrix(1,0,0,1,129.048,-897.135)">
            <g transform="matrix(125,0,0,125,1150.29,2106.29)">
                <path d="M0.079,-0L0.079,-0.068L0.225,-0.068L0.225,-0.538L0.109,-0.538L0.109,-0.591C0.138,-0.596 0.163,-0.603 0.185,-0.61C0.207,-0.618 0.227,-0.627 0.244,-0.638L0.307,-0.638L0.307,-0.068L0.439,-0.068L0.439,-0L0.079,-0Z" style="fill:rgb(35,31,32);fill-rule:nonzero;"/>
            </g>
            <g transform="matrix(125,0,0,125,1212.42,2106.29)">
            </g>
        </g>
    </g>
    <g transform="matrix(1.42658,0,0,1.30643,-935.163,-216.437)">
        <g transform="matrix(1,0,0,1,373.49,-858.842)">
            <path d="M1860.97,1676.52L1860.97,2134.92L2538.2,2134.92" style="fill:none;stroke:rgb(35,31,32);stroke-width:9.14px;"/>
        </g>
        <path d="M2281.57,1163.53L2828.06,872.889" style="fill:none;stroke:rgb(35,31,32);stroke-width:9.14px;"/>
        <g transform="matrix(0.700979,-0,-0,0.765443,655.53,165.671)">
            <path d="M2690.73,1178.83L2709.48,1160.08L2728.23,1178.83" style="fill:none;stroke:rgb(35,31,32);stroke-width:12.5px;stroke-linejoin:miter;stroke-miterlimit:10;"/>
            <path d="M2524.1,1233.7L2709.48,1233.7L2709.48,1160.08" style="fill:none;stroke:rgb(35,31,32);stroke-width:12.5px;"/>
        </g>
        <g transform="matrix(1,0,0,0.577981,0,550.089)">
            <path d="M2424.87,1256.07L2424.87,1303.47" style="fill:none;stroke:rgb(35,31,32);stroke-width:10.95px;"/>
        </g>
        <g transform="matrix(1,0,0,0.577981,-129.986,550.089)">
            <path d="M2424.87,1256.07L2424.87,1303.47" style="fill:none;stroke:rgb(35,31,32);stroke-width:10.95px;"/>
        </g>
        <g transform="matrix(1,0,0,0.577981,129.949,550.089)">
            <path d="M2424.87,1256.07L2424.87,1303.47" style="fill:none;stroke:rgb(35,31,32);stroke-width:10.95px;"/>
        </g>
        <g transform="matrix(1,0,0,0.577981,259.898,550.089)">
            <path d="M2424.87,1256.07L2424.87,1303.47" style="fill:none;stroke:rgb(35,31,32);stroke-width:10.95px;"/>
        </g>
        <g transform="matrix(1,0,0,0.577981,389.847,550.089)">
            <path d="M2424.87,1256.07L2424.87,1303.47" style="fill:none;stroke:rgb(35,31,32);stroke-width:10.95px;"/>
        </g>
    </g>
    <g transform="matrix(1,0,0,0.852901,58.1772,39.5855)">
        <g transform="matrix(0.805964,0,0,1.34226,541.952,-2241.78)">
            <path d="M1860.97,1676.52L1860.97,2134.92L2538.2,2134.92" style="fill:none;stroke:rgb(35,31,32);stroke-width:12.63px;"/>
        </g>
        <g transform="matrix(2.10173,0,0,2.47842,-2016.42,-4746.78)">
            <circle cx="2007.27" cy="2030.03" r="15.086"/>
        </g>
        <g transform="matrix(2.10173,0,0,2.47842,-1791.61,-4915.02)">
            <circle cx="2007.27" cy="2030.03" r="15.086"/>
        </g>
        <g transform="matrix(2.10173,0,0,2.47842,-2016.42,-4573.36)">
            <circle cx="2007.27" cy="2030.03" r="15.086"/>
        </g>
        <g transform="matrix(2.10173,0,0,2.47842,-1791.61,-4628.36)">
            <circle cx="2007.27" cy="2030.03" r="15.086"/>
        </g>
        <g transform="matrix(1.34226,0,0,1.34226,-785.738,-146.935)">
            <path d="M2226.15,321.411L2393.63,196.07" style="fill:none;stroke:rgb(35,31,32);stroke-width:10.02px;"/>
        </g>
        <g transform="matrix(1.34226,0,0,1.34226,-785.738,-146.935)">
            <path d="M2226.15,450.614L2393.63,409.634" style="fill:none;stroke:rgb(35,31,32);stroke-width:10.02px;"/>
        </g>
    </g>
    <g transform="matrix(1.40033,0,0,1,-1093.35,-301.209)">
        <g transform="matrix(0.966381,0,0,0.952542,-463.394,-1131.43)">
            <path d="M1860.97,1676.52L1860.97,2134.92L2538.2,2134.92" style="fill:none;stroke:rgb(35,31,32);stroke-width:10.68px;"/>
        </g>
        <rect x="1369.48" y="683.74" width="74.084" height="217.44" style="fill:none;stroke:rgb(35,31,32);stroke-width:10.27px;stroke-linecap:butt;stroke-linejoin:miter;"/>
        <g transform="matrix(1,0,0,1.18073,74.0836,-162.868)">
            <rect x="1369.48" y="683.74" width="74.084" height="217.44" style="fill:none;stroke:rgb(35,31,32);stroke-width:9.65px;stroke-linecap:butt;stroke-linejoin:miter;"/>
        </g>
        <g transform="matrix(1,0,0,1.50515,148.167,-455.228)">
            <rect x="1369.48" y="683.74" width="74.084" height="217.44" style="fill:none;stroke:rgb(35,31,32);stroke-width:8.6px;stroke-linecap:butt;stroke-linejoin:miter;"/>
        </g>
        <g transform="matrix(1,0,0,0.83775,222.251,146.216)">
            <rect x="1369.48" y="683.74" width="74.084" height="217.44" style="fill:none;stroke:rgb(35,31,32);stroke-width:10.83px;stroke-linecap:butt;stroke-linejoin:miter;"/>
        </g>
        <g transform="matrix(1,0,0,1.8822,296.335,-795.023)">
            <rect x="1369.48" y="683.74" width="74.084" height="217.44" style="fill:none;stroke:rgb(35,31,32);stroke-width:7.54px;stroke-linecap:butt;stroke-linejoin:miter;"/>
        </g>
        <g transform="matrix(1,0,0,1.41519,370.418,-374.159)">
            <rect x="1369.48" y="683.74" width="74.084" height="217.44" style="fill:none;stroke:rgb(35,31,32);stroke-width:8.88px;stroke-linecap:butt;stroke-linejoin:miter;"/>
        </g>
        <g transform="matrix(1,0,0,0.418875,444.502,523.698)">
            <rect x="1369.48" y="683.74" width="74.084" height="217.44" style="fill:none;stroke:rgb(35,31,32);stroke-width:12.09px;stroke-linecap:butt;stroke-linejoin:miter;"/>
        </g>
        <g transform="matrix(1,0,0,0.752573,518.586,222.976)">
            <rect x="1369.48" y="683.74" width="74.084" height="217.44" style="fill:none;stroke:rgb(35,31,32);stroke-width:11.12px;stroke-linecap:butt;stroke-linejoin:miter;"/>
        </g>
    </g>
    <g transform="matrix(1.15109,0,0,1.17022,507.889,-869.39)">
        <g transform="matrix(0.686382,0,0,1.01518,1345.99,-302.142)">
            <path d="M1860.97,1676.52L1860.97,2134.92L2538.2,2134.92" style="fill:none;stroke:rgb(35,31,32);stroke-width:12.39px;"/>
        </g>
        <path d="M2627.19,1868.94L2619.45,1861.45L2623.32,1857.58L2631.06,1865.07L2627.19,1868.94ZM2638.8,1857.33L2631.06,1849.84L2638.8,1842.1L2646.54,1849.59L2638.8,1857.33ZM2654.28,1841.85L2646.54,1834.36L2654.28,1826.62L2662.02,1834.11L2654.28,1841.85ZM2669.76,1826.37L2662.01,1818.88L2669.75,1811.14L2677.49,1818.63L2669.76,1826.37ZM2685.24,1810.89L2677.49,1803.4L2685.23,1795.66L2692.97,1803.15L2685.24,1810.89ZM2700.71,1795.41L2692.97,1787.92L2700.71,1780.18L2708.45,1787.67L2700.71,1795.41ZM2716.19,1779.93L2708.45,1772.44L2716.19,1764.7L2723.93,1772.19L2716.19,1779.93ZM2731.67,1764.46L2723.93,1756.97L2731.67,1749.23L2739.41,1756.72L2731.67,1764.46ZM2747.15,1748.98L2739.41,1741.49L2747.15,1733.75L2754.89,1741.24L2747.15,1748.98ZM2762.63,1733.5L2754.89,1726.01L2762.62,1718.27L2770.37,1725.76L2762.63,1733.5ZM2778.11,1718.02L2770.37,1710.53L2778.1,1702.79L2785.85,1710.28L2778.11,1718.02ZM2793.59,1702.54L2785.84,1695.05L2793.58,1687.31L2801.32,1694.8L2793.59,1702.54ZM2809.06,1687.06L2801.32,1679.57L2809.06,1671.83L2816.8,1679.32L2809.06,1687.06ZM2824.54,1671.58L2816.8,1664.09L2824.54,1656.35L2832.28,1663.85L2824.54,1671.58ZM2840.02,1656.11L2832.28,1648.62L2840.02,1640.88L2847.76,1648.37L2840.02,1656.11ZM2855.5,1640.63L2847.76,1633.14L2855.5,1625.4L2863.24,1632.89L2855.5,1640.63ZM2870.98,1625.15L2863.24,1617.66L2870.98,1609.92L2878.72,1617.41L2870.98,1625.15ZM2886.46,1609.67L2878.72,1602.18L2886.45,1594.44L2894.2,1601.93L2886.46,1609.67ZM2901.93,1594.19L2894.19,1586.7L2901.93,1578.96L2909.67,1586.45L2901.93,1594.19ZM2917.41,1578.71L2909.67,1571.22L2917.41,1563.48L2925.15,1570.97L2917.41,1578.71ZM2932.89,1563.23L2925.15,1555.74L2932.89,1548L2940.63,1555.49L2932.89,1563.23ZM2948.37,1547.76L2940.63,1540.26L2948.37,1532.53L2956.11,1540.02L2948.37,1547.76ZM2963.85,1532.28L2956.11,1524.79L2963.85,1517.05L2971.59,1524.54L2963.85,1532.28ZM2979.33,1516.8L2971.59,1509.31L2979.33,1501.57L2987.07,1509.06L2979.33,1516.8ZM2994.81,1501.32L2987.07,1493.83L2994.8,1486.09L3002.55,1493.58L2994.81,1501.32ZM3010.28,1485.84L3002.54,1478.35L3010.28,1470.61L3018.03,1478.1L3010.28,1485.84ZM3025.76,1470.36L3018.02,1462.87L3025.76,1455.13L3033.5,1462.62L3025.76,1470.36ZM3041.24,1454.88L3033.5,1447.39L3041.24,1439.65L3048.98,1447.14L3041.24,1454.88ZM3056.72,1439.4L3048.98,1431.91L3056.72,1424.17L3064.46,1431.67L3056.72,1439.4ZM3072.2,1423.93L3064.46,1416.43L3072.2,1408.7L3079.94,1416.19L3072.2,1423.93ZM3087.68,1408.45L3079.94,1400.96L3083.81,1397.09L3091.55,1404.58L3087.68,1408.45Z" style="fill:rgb(35,31,32);"/>
        <g transform="matrix(1.56582,0,0,1.56582,-477.399,-1418)">
            <circle cx="2007.27" cy="2030.03" r="15.086" style="fill:none;stroke:rgb(35,31,32);stroke-width:5.73px;"/>
        </g>
        <g transform="matrix(1.56582,0,0,1.56582,-441.49,-1431.38)">
            <circle cx="2007.27" cy="2030.03" r="15.086" style="fill:none;stroke:rgb(35,31,32);stroke-width:5.73px;"/>
        </g>
        <g transform="matrix(1.56582,0,0,1.56582,-405.582,-1465.25)">
            <circle cx="2007.27" cy="2030.03" r="15.086" style="fill:none;stroke:rgb(35,31,32);stroke-width:5.73px;"/>
        </g>
        <g transform="matrix(1.56582,0,0,1.56582,-369.674,-1479.56)">
            <circle cx="2007.27" cy="2030.03" r="15.086" style="fill:none;stroke:rgb(35,31,32);stroke-width:5.73px;"/>
        </g>
        <g transform="matrix(1.56582,0,0,1.56582,-333.766,-1513.65)">
            <circle cx="2007.27" cy="2030.03" r="15.086" style="fill:none;stroke:rgb(35,31,32);stroke-width:5.73px;"/>
        </g>
        <g transform="matrix(1.56582,0,0,1.56582,-297.857,-1537.74)">
            <circle cx="2007.27" cy="2030.03" r="15.086" style="fill:none;stroke:rgb(35,31,32);stroke-width:5.73px;"/>
        </g>
        <g transform="matrix(1.56582,0,0,1.56582,-261.949,-1551.83)">
            <circle cx="2007.27" cy="2030.03" r="15.086" style="fill:none;stroke:rgb(35,31,32);stroke-width:5.73px;"/>
        </g>
        <g transform="matrix(1.56582,0,0,1.56582,-226.041,-1585.92)">
            <circle cx="2007.27" cy="2030.03" r="15.086" style="fill:none;stroke:rgb(35,31,32);stroke-width:5.73px;"/>
        </g>
        <g transform="matrix(1.56582,0,0,1.56582,-190.132,-1620.01)">
            <circle cx="2007.27" cy="2030.03" r="15.086" style="fill:none;stroke:rgb(35,31,32);stroke-width:5.73px;"/>
        </g>
        <g transform="matrix(1.56582,0,0,1.56582,-154.224,-1644.1)">
            <circle cx="2007.27" cy="2030.03" r="15.086" style="fill:none;stroke:rgb(35,31,32);stroke-width:5.73px;"/>
        </g>
        <g transform="matrix(1.56582,0,0,1.56582,-118.316,-1658.19)">
            <circle cx="2007.27" cy="2030.03" r="15.086" style="fill:none;stroke:rgb(35,31,32);stroke-width:5.73px;"/>
        </g>
        <g transform="matrix(1.56582,0,0,1.56582,-82.4075,-1661.34)">
            <circle cx="2007.27" cy="2030.03" r="15.086" style="fill:none;stroke:rgb(35,31,32);stroke-width:5.73px;"/>
        </g>
    </g>
    <g transform="matrix(1,0,0,1,133.378,185.938)">
        <g transform="matrix(1,0,0,1,-922.718,-942.081)">
            <g transform="matrix(125,0,0,125,1150.29,2106.29)">
                <path d="M0.249,0.012C0.185,0.012 0.135,-0.017 0.099,-0.074C0.062,-0.132 0.044,-0.214 0.044,-0.321C0.044,-0.428 0.062,-0.51 0.099,-0.566C0.135,-0.622 0.185,-0.65 0.249,-0.65C0.312,-0.65 0.362,-0.622 0.398,-0.566C0.435,-0.509 0.453,-0.428 0.453,-0.321C0.453,-0.214 0.435,-0.132 0.398,-0.074C0.362,-0.017 0.312,0.012 0.249,0.012ZM0.249,-0.054C0.273,-0.054 0.295,-0.063 0.314,-0.082C0.332,-0.1 0.347,-0.129 0.357,-0.169C0.368,-0.208 0.373,-0.259 0.373,-0.321C0.373,-0.384 0.368,-0.434 0.357,-0.473C0.347,-0.511 0.332,-0.539 0.314,-0.557C0.295,-0.575 0.273,-0.584 0.249,-0.584C0.224,-0.584 0.202,-0.575 0.183,-0.557C0.165,-0.539 0.15,-0.511 0.14,-0.473C0.129,-0.434 0.124,-0.384 0.124,-0.321C0.124,-0.259 0.129,-0.208 0.14,-0.169C0.15,-0.129 0.165,-0.1 0.183,-0.082C0.202,-0.063 0.224,-0.054 0.249,-0.054Z" style="fill:rgb(35,31,32);fill-rule:nonzero;"/>
            </g>
            <g transform="matrix(125,0,0,125,1212.42,2106.29)">
            </g>
        </g>
        <g transform="matrix(1,0,0,1,-775.965,-942.081)">
            <g transform="matrix(125,0,0,125,1150.29,2106.29)">
                <path d="M0.249,0.012C0.185,0.012 0.135,-0.017 0.099,-0.074C0.062,-0.132 0.044,-0.214 0.044,-0.321C0.044,-0.428 0.062,-0.51 0.099,-0.566C0.135,-0.622 0.185,-0.65 0.249,-0.65C0.312,-0.65 0.362,-0.622 0.398,-0.566C0.435,-0.509 0.453,-0.428 0.453,-0.321C0.453,-0.214 0.435,-0.132 0.398,-0.074C0.362,-0.017 0.312,0.012 0.249,0.012ZM0.249,-0.054C0.273,-0.054 0.295,-0.063 0.314,-0.082C0.332,-0.1 0.347,-0.129 0.357,-0.169C0.368,-0.208 0.373,-0.259 0.373,-0.321C0.373,-0.384 0.368,-0.434 0.357,-0.473C0.347,-0.511 0.332,-0.539 0.314,-0.557C0.295,-0.575 0.273,-0.584 0.249,-0.584C0.224,-0.584 0.202,-0.575 0.183,-0.557C0.165,-0.539 0.15,-0.511 0.14,-0.473C0.129,-0.434 0.124,-0.384 0.124,-0.321C0.124,-0.259 0.129,-0.208 0.14,-0.169C0.15,-0.129 0.165,-0.1 0.183,-0.082C0.202,-0.063 0.224,-0.054 0.249,-0.054Z" style="fill:rgb(35,31,32);fill-rule:nonzero;"/>
            </g>
            <g transform="matrix(125,0,0,125,1212.42,2106.29)">
            </g>
        </g>
        <g transform="matrix(1,0,0,1,-1072.47,-942.081)">
            <g transform="matrix(125,0,0,125,1150.29,2106.29)">
                <path d="M0.079,-0L0.079,-0.068L0.225,-0.068L0.225,-0.538L0.109,-0.538L0.109,-0.591C0.138,-0.596 0.163,-0.603 0.185,-0.61C0.207,-0.618 0.227,-0.627 0.244,-0.638L0.307,-0.638L0.307,-0.068L0.439,-0.068L0.439,-0L0.079,-0Z" style="fill:rgb(35,31,32);fill-rule:nonzero;"/>
            </g>
            <g transform="matrix(125,0,0,125,1212.42,2106.29)">
            </g>
        </g>
        <g transform="matrix(1,0,0,1,-1071.2,-793.815)">
            <g transform="matrix(125,0,0,125,1150.29,2106.29)">
                <path d="M0.249,0.012C0.185,0.012 0.135,-0.017 0.099,-0.074C0.062,-0.132 0.044,-0.214 0.044,-0.321C0.044,-0.428 0.062,-0.51 0.099,-0.566C0.135,-0.622 0.185,-0.65 0.249,-0.65C0.312,-0.65 0.362,-0.622 0.398,-0.566C0.435,-0.509 0.453,-0.428 0.453,-0.321C0.453,-0.214 0.435,-0.132 0.398,-0.074C0.362,-0.017 0.312,0.012 0.249,0.012ZM0.249,-0.054C0.273,-0.054 0.295,-0.063 0.314,-0.082C0.332,-0.1 0.347,-0.129 0.357,-0.169C0.368,-0.208 0.373,-0.259 0.373,-0.321C0.373,-0.384 0.368,-0.434 0.357,-0.473C0.347,-0.511 0.332,-0.539 0.314,-0.557C0.295,-0.575 0.273,-0.584 0.249,-0.584C0.224,-0.584 0.202,-0.575 0.183,-0.557C0.165,-0.539 0.15,-0.511 0.14,-0.473C0.129,-0.434 0.124,-0.384 0.124,-0.321C0.124,-0.259 0.129,-0.208 0.14,-0.169C0.15,-0.129 0.165,-0.1 0.183,-0.082C0.202,-0.063 0.224,-0.054 0.249,-0.054Z" style="fill:rgb(35,31,32);fill-rule:nonzero;"/>
            </g>
            <g transform="matrix(125,0,0,125,1212.42,2106.29)">
            </g>
        </g>
        <g transform="matrix(1,0,0,1,-775.965,-793.815)">
            <g transform="matrix(125,0,0,125,1150.29,2106.29)">
                <path d="M0.249,0.012C0.185,0.012 0.135,-0.017 0.099,-0.074C0.062,-0.132 0.044,-0.214 0.044,-0.321C0.044,-0.428 0.062,-0.51 0.099,-0.566C0.135,-0.622 0.185,-0.65 0.249,-0.65C0.312,-0.65 0.362,-0.622 0.398,-0.566C0.435,-0.509 0.453,-0.428 0.453,-0.321C0.453,-0.214 0.435,-0.132 0.398,-0.074C0.362,-0.017 0.312,0.012 0.249,0.012ZM0.249,-0.054C0.273,-0.054 0.295,-0.063 0.314,-0.082C0.332,-0.1 0.347,-0.129 0.357,-0.169C0.368,-0.208 0.373,-0.259 0.373,-0.321C0.373,-0.384 0.368,-0.434 0.357,-0.473C0.347,-0.511 0.332,-0.539 0.314,-0.557C0.295,-0.575 0.273,-0.584 0.249,-0.584C0.224,-0.584 0.202,-0.575 0.183,-0.557C0.165,-0.539 0.15,-0.511 0.14,-0.473C0.129,-0.434 0.124,-0.384 0.124,-0.321C0.124,-0.259 0.129,-0.208 0.14,-0.169C0.15,-0.129 0.165,-0.1 0.183,-0.082C0.202,-0.063 0.224,-0.054 0.249,-0.054Z" style="fill:rgb(35,31,32);fill-rule:nonzero;"/>
            </g>
            <g transform="matrix(125,0,0,125,1212.42,2106.29)">
            </g>
        </g>
        <g transform="matrix(1,0,0,1,-923.989,-793.815)">
            <g transform="matrix(125,0,0,125,1150.29,2106.29)">
                <path d="M0.079,-0L0.079,-0.068L0.225,-0.068L0.225,-0.538L0.109,-0.538L0.109,-0.591C0.138,-0.596 0.163,-0.603 0.185,-0.61C0.207,-0.618 0.227,-0.627 0.244,-0.638L0.307,-0.638L0.307,-0.068L0.439,-0.068L0.439,-0L0.079,-0Z" style="fill:rgb(35,31,32);fill-rule:nonzero;"/>
            </g>
            <g transform="matrix(125,0,0,125,1212.42,2106.29)">
            </g>
        </g>
        <g transform="matrix(1,0,0,1,-1071.2,-644.048)">
            <g transform="matrix(125,0,0,125,1150.29,2106.29)">
                <path d="M0.249,0.012C0.185,0.012 0.135,-0.017 0.099,-0.074C0.062,-0.132 0.044,-0.214 0.044,-0.321C0.044,-0.428 0.062,-0.51 0.099,-0.566C0.135,-0.622 0.185,-0.65 0.249,-0.65C0.312,-0.65 0.362,-0.622 0.398,-0.566C0.435,-0.509 0.453,-0.428 0.453,-0.321C0.453,-0.214 0.435,-0.132 0.398,-0.074C0.362,-0.017 0.312,0.012 0.249,0.012ZM0.249,-0.054C0.273,-0.054 0.295,-0.063 0.314,-0.082C0.332,-0.1 0.347,-0.129 0.357,-0.169C0.368,-0.208 0.373,-0.259 0.373,-0.321C0.373,-0.384 0.368,-0.434 0.357,-0.473C0.347,-0.511 0.332,-0.539 0.314,-0.557C0.295,-0.575 0.273,-0.584 0.249,-0.584C0.224,-0.584 0.202,-0.575 0.183,-0.557C0.165,-0.539 0.15,-0.511 0.14,-0.473C0.129,-0.434 0.124,-0.384 0.124,-0.321C0.124,-0.259 0.129,-0.208 0.14,-0.169C0.15,-0.129 0.165,-0.1 0.183,-0.082C0.202,-0.063 0.224,-0.054 0.249,-0.054Z" style="fill:rgb(35,31,32);fill-rule:nonzero;"/>
            </g>
            <g transform="matrix(125,0,0,125,1212.42,2106.29)">
            </g>
        </g>
        <g transform="matrix(1,0,0,1,-922.718,-645.548)">
            <g transform="matrix(125,0,0,125,1150.29,2106.29)">
                <path d="M0.249,0.012C0.185,0.012 0.135,-0.017 0.099,-0.074C0.062,-0.132 0.044,-0.214 0.044,-0.321C0.044,-0.428 0.062,-0.51 0.099,-0.566C0.135,-0.622 0.185,-0.65 0.249,-0.65C0.312,-0.65 0.362,-0.622 0.398,-0.566C0.435,-0.509 0.453,-0.428 0.453,-0.321C0.453,-0.214 0.435,-0.132 0.398,-0.074C0.362,-0.017 0.312,0.012 0.249,0.012ZM0.249,-0.054C0.273,-0.054 0.295,-0.063 0.314,-0.082C0.332,-0.1 0.347,-0.129 0.357,-0.169C0.368,-0.208 0.373,-0.259 0.373,-0.321C0.373,-0.384 0.368,-0.434 0.357,-0.473C0.347,-0.511 0.332,-0.539 0.314,-0.557C0.295,-0.575 0.273,-0.584 0.249,-0.584C0.224,-0.584 0.202,-0.575 0.183,-0.557C0.165,-0.539 0.15,-0.511 0.14,-0.473C0.129,-0.434 0.124,-0.384 0.124,-0.321C0.124,-0.259 0.129,-0.208 0.14,-0.169C0.15,-0.129 0.165,-0.1 0.183,-0.082C0.202,-0.063 0.224,-0.054 0.249,-0.054Z" style="fill:rgb(35,31,32);fill-rule:nonzero;"/>
            </g>
            <g transform="matrix(125,0,0,125,1212.42,2106.29)">
            </g>
        </g>
        <g transform="matrix(1,0,0,1,-777.236,-645.548)">
            <g transform="matrix(125,0,0,125,1150.29,2106.29)">
                <path d="M0.079,-0L0.079,-0.068L0.225,-0.068L0.225,-0.538L0.109,-0.538L0.109,-0.591C0.138,-0.596 0.163,-0.603 0.185,-0.61C0.207,-0.618 0.227,-0.627 0.244,-0.638L0.307,-0.638L0.307,-0.068L0.439,-0.068L0.439,-0L0.079,-0Z" style="fill:rgb(35,31,32);fill-rule:nonzero;"/>
            </g>
            <g transform="matrix(125,0,0,125,1212.42,2106.29)">
            </g>
        </g>
        <g transform="matrix(1,0,0,1,-1071.2,-1090.35)">
            <g transform="matrix(125,0,0,125,1150.29,2106.29)">
                <path d="M0.249,0.012C0.185,0.012 0.135,-0.017 0.099,-0.074C0.062,-0.132 0.044,-0.214 0.044,-0.321C0.044,-0.428 0.062,-0.51 0.099,-0.566C0.135,-0.622 0.185,-0.65 0.249,-0.65C0.312,-0.65 0.362,-0.622 0.398,-0.566C0.435,-0.509 0.453,-0.428 0.453,-0.321C0.453,-0.214 0.435,-0.132 0.398,-0.074C0.362,-0.017 0.312,0.012 0.249,0.012ZM0.249,-0.054C0.273,-0.054 0.295,-0.063 0.314,-0.082C0.332,-0.1 0.347,-0.129 0.357,-0.169C0.368,-0.208 0.373,-0.259 0.373,-0.321C0.373,-0.384 0.368,-0.434 0.357,-0.473C0.347,-0.511 0.332,-0.539 0.314,-0.557C0.295,-0.575 0.273,-0.584 0.249,-0.584C0.224,-0.584 0.202,-0.575 0.183,-0.557C0.165,-0.539 0.15,-0.511 0.14,-0.473C0.129,-0.434 0.124,-0.384 0.124,-0.321C0.124,-0.259 0.129,-0.208 0.14,-0.169C0.15,-0.129 0.165,-0.1 0.183,-0.082C0.202,-0.063 0.224,-0.054 0.249,-0.054Z" style="fill:rgb(35,31,32);fill-rule:nonzero;"/>
            </g>
            <g transform="matrix(125,0,0,125,1212.42,2106.29)">
            </g>
        </g>
        <g transform="matrix(1,0,0,1,-922.718,-1090.35)">
            <g transform="matrix(125,0,0,125,1150.29,2106.29)">
                <path d="M0.249,0.012C0.185,0.012 0.135,-0.017 0.099,-0.074C0.062,-0.132 0.044,-0.214 0.044,-0.321C0.044,-0.428 0.062,-0.51 0.099,-0.566C0.135,-0.622 0.185,-0.65 0.249,-0.65C0.312,-0.65 0.362,-0.622 0.398,-0.566C0.435,-0.509 0.453,-0.428 0.453,-0.321C0.453,-0.214 0.435,-0.132 0.398,-0.074C0.362,-0.017 0.312,0.012 0.249,0.012ZM0.249,-0.054C0.273,-0.054 0.295,-0.063 0.314,-0.082C0.332,-0.1 0.347,-0.129 0.357,-0.169C0.368,-0.208 0.373,-0.259 0.373,-0.321C0.373,-0.384 0.368,-0.434 0.357,-0.473C0.347,-0.511 0.332,-0.539 0.314,-0.557C0.295,-0.575 0.273,-0.584 0.249,-0.584C0.224,-0.584 0.202,-0.575 0.183,-0.557C0.165,-0.539 0.15,-0.511 0.14,-0.473C0.129,-0.434 0.124,-0.384 0.124,-0.321C0.124,-0.259 0.129,-0.208 0.14,-0.169C0.15,-0.129 0.165,-0.1 0.183,-0.082C0.202,-0.063 0.224,-0.054 0.249,-0.054Z" style="fill:rgb(35,31,32);fill-rule:nonzero;"/>
            </g>
            <g transform="matrix(125,0,0,125,1212.42,2106.29)">
            </g>
        </g>
        <g transform="matrix(1,0,0,1,-775.965,-1090.35)">
            <g transform="matrix(125,0,0,125,1150.29,2106.29)">
                <path d="M0.249,0.012C0.185,0.012 0.135,-0.017 0.099,-0.074C0.062,-0.132 0.044,-0.214 0.044,-0.321C0.044,-0.428 0.062,-0.51 0.099,-0.566C0.135,-0.622 0.185,-0.65 0.249,-0.65C0.312,-0.65 0.362,-0.622 0.398,-0.566C0.435,-0.509 0.453,-0.428 0.453,-0.321C0.453,-0.214 0.435,-0.132 0.398,-0.074C0.362,-0.017 0.312,0.012 0.249,0.012ZM0.249,-0.054C0.273,-0.054 0.295,-0.063 0.314,-0.082C0.332,-0.1 0.347,-0.129 0.357,-0.169C0.368,-0.208 0.373,-0.259 0.373,-0.321C0.373,-0.384 0.368,-0.434 0.357,-0.473C0.347,-0.511 0.332,-0.539 0.314,-0.557C0.295,-0.575 0.273,-0.584 0.249,-0.584C0.224,-0.584 0.202,-0.575 0.183,-0.557C0.165,-0.539 0.15,-0.511 0.14,-0.473C0.129,-0.434 0.124,-0.384 0.124,-0.321C0.124,-0.259 0.129,-0.208 0.14,-0.169C0.15,-0.129 0.165,-0.1 0.183,-0.082C0.202,-0.063 0.224,-0.054 0.249,-0.054Z" style="fill:rgb(35,31,32);fill-rule:nonzero;"/>
            </g>
            <g transform="matrix(125,0,0,125,1212.42,2106.29)">
            </g>
        </g>
    </g>
    <g transform="matrix(1,0,0,1,201.312,1673.97)">
        <g transform="matrix(2.41238,0,0,2.41238,-1863.04,-4669.1)">
            <circle cx="2007.27" cy="2030.03" r="15.086"/>
        </g>
        <g transform="matrix(1.54065,0,0,1.82229,1568.05,-176.478)">
            <g transform="matrix(0.649075,-0,-0,0.548761,-1148.45,-821.764)">
                <path d="M3205.58,1757.87L3155.58,1757.87" style="fill:none;stroke:rgb(35,31,32);stroke-width:12.5px;stroke-linejoin:miter;stroke-miterlimit:10;"/>
                <path d="M3205.58,2046.25L3155.58,2046.25" style="fill:none;stroke:rgb(35,31,32);stroke-width:12.5px;stroke-linejoin:miter;stroke-miterlimit:10;"/>
                <path d="M3180.58,1757.87L3180.58,2046.25" style="fill:none;stroke:rgb(35,31,32);stroke-width:12.5px;"/>
            </g>
        </g>
        <g transform="matrix(1.16795,0,0,1.38145,2220.04,-192.654)">
            <g transform="matrix(0.856201,-0,-0,0.723876,-2073.17,-1072.29)">
                <path d="M3516.18,1680.22L3466.18,1680.22" style="fill:none;stroke:rgb(35,31,32);stroke-width:12.5px;stroke-linejoin:miter;stroke-miterlimit:10;"/>
                <path d="M3516.18,1895.81L3466.18,1895.81" style="fill:none;stroke:rgb(35,31,32);stroke-width:12.5px;stroke-linejoin:miter;stroke-miterlimit:10;"/>
                <path d="M3491.18,1680.22L3491.18,1895.81" style="fill:none;stroke:rgb(35,31,32);stroke-width:12.5px;"/>
            </g>
        </g>
        <g transform="matrix(1.54065,0,0,2.65289,1730.15,-184.157)">
            <g transform="matrix(0.649075,-0,-0,0.376948,-1253.66,-561.58)">
                <path d="M3367.68,1866.03L3317.68,1866.03" style="fill:none;stroke:rgb(35,31,32);stroke-width:12.5px;stroke-linejoin:miter;stroke-miterlimit:10;"/>
                <path d="M3367.68,2291.55L3317.68,2291.55" style="fill:none;stroke:rgb(35,31,32);stroke-width:12.5px;stroke-linejoin:miter;stroke-miterlimit:10;"/>
                <path d="M3342.68,1866.03L3342.68,2291.55" style="fill:none;stroke:rgb(35,31,32);stroke-width:12.5px;"/>
            </g>
        </g>
        <g transform="matrix(2.41238,0,0,2.41238,-1700.94,-4492.37)">
            <circle cx="2007.27" cy="2030.03" r="15.086"/>
        </g>
        <g transform="matrix(2.41238,0,0,2.41238,-1552.44,-4783.15)">
            <circle cx="2007.27" cy="2030.03" r="15.086"/>
        </g>
    </g>
    <g transform="matrix(1,0,0,1,-320.874,-208.515)">
        <g transform="matrix(1.95727,0,0,1.95727,-3213.11,-3514.46)">
            <circle cx="2007.27" cy="2030.03" r="15.086"/>
        </g>
        <g transform="matrix(1,0,0,0.254229,197.73,413.707)">
            <path d="M517.939,548.051L517.939,948.738" style="fill:none;stroke:rgb(35,31,32);stroke-width:17.13px;"/>
        </g>
        <g transform="matrix(1,0,0,0.172108,197.73,820.569)">
            <path d="M517.939,548.051L517.939,948.738" style="fill:none;stroke:rgb(35,31,32);stroke-width:17.42px;"/>
        </g>
        <g transform="matrix(1,0,0,1,192.961,30.7111)">
            <rect x="438.031" y="624.193" width="169.352" height="259.989" style="fill:none;stroke:rgb(35,31,32);stroke-width:12.5px;"/>
        </g>
        <g transform="matrix(1,0,0,1,197.73,36.5043)">
            <path d="M433.263,781.176L602.615,781.176" style="fill:none;stroke:rgb(35,31,32);stroke-width:12.5px;"/>
        </g>
    </g>
    <g transform="matrix(1,0,0,1,379.692,14.3343)">
        <g transform="matrix(1,0,0,1,2474.2,-24.6524)">
            <g transform="matrix(125,0,0,125,1150.29,2106.29)">
                <path d="M0.249,0.012C0.185,0.012 0.135,-0.017 0.099,-0.074C0.062,-0.132 0.044,-0.214 0.044,-0.321C0.044,-0.428 0.062,-0.51 0.099,-0.566C0.135,-0.622 0.185,-0.65 0.249,-0.65C0.312,-0.65 0.362,-0.622 0.398,-0.566C0.435,-0.509 0.453,-0.428 0.453,-0.321C0.453,-0.214 0.435,-0.132 0.398,-0.074C0.362,-0.017 0.312,0.012 0.249,0.012ZM0.249,-0.054C0.273,-0.054 0.295,-0.063 0.314,-0.082C0.332,-0.1 0.347,-0.129 0.357,-0.169C0.368,-0.208 0.373,-0.259 0.373,-0.321C0.373,-0.384 0.368,-0.434 0.357,-0.473C0.347,-0.511 0.332,-0.539 0.314,-0.557C0.295,-0.575 0.273,-0.584 0.249,-0.584C0.224,-0.584 0.202,-0.575 0.183,-0.557C0.165,-0.539 0.15,-0.511 0.14,-0.473C0.129,-0.434 0.124,-0.384 0.124,-0.321C0.124,-0.259 0.129,-0.208 0.14,-0.169C0.15,-0.129 0.165,-0.1 0.183,-0.082C0.202,-0.063 0.224,-0.054 0.249,-0.054Z" style="fill:rgb(35,31,32);fill-rule:nonzero;"/>
            </g>
            <g transform="matrix(125,0,0,125,1212.42,2106.29)">
            </g>
        </g>
        <g transform="matrix(1,0,0,1,2304.45,-24.6524)">
            <g transform="matrix(125,0,0,125,1150.29,2106.29)">
                <path d="M0.079,-0L0.079,-0.068L0.225,-0.068L0.225,-0.538L0.109,-0.538L0.109,-0.591C0.138,-0.596 0.163,-0.603 0.185,-0.61C0.207,-0.618 0.227,-0.627 0.244,-0.638L0.307,-0.638L0.307,-0.068L0.439,-0.068L0.439,-0L0.079,-0Z" style="fill:rgb(35,31,32);fill-rule:nonzero;"/>
            </g>
            <g transform="matrix(125,0,0,125,1212.42,2106.29)">
            </g>
        </g>
        <g transform="matrix(1,0,0,1,2305.72,123.614)">
            <g transform="matrix(125,0,0,125,1150.29,2106.29)">
                <path d="M0.249,0.012C0.185,0.012 0.135,-0.017 0.099,-0.074C0.062,-0.132 0.044,-0.214 0.044,-0.321C0.044,-0.428 0.062,-0.51 0.099,-0.566C0.135,-0.622 0.185,-0.65 0.249,-0.65C0.312,-0.65 0.362,-0.622 0.398,-0.566C0.435,-0.509 0.453,-0.428 0.453,-0.321C0.453,-0.214 0.435,-0.132 0.398,-0.074C0.362,-0.017 0.312,0.012 0.249,0.012ZM0.249,-0.054C0.273,-0.054 0.295,-0.063 0.314,-0.082C0.332,-0.1 0.347,-0.129 0.357,-0.169C0.368,-0.208 0.373,-0.259 0.373,-0.321C0.373,-0.384 0.368,-0.434 0.357,-0.473C0.347,-0.511 0.332,-0.539 0.314,-0.557C0.295,-0.575 0.273,-0.584 0.249,-0.584C0.224,-0.584 0.202,-0.575 0.183,-0.557C0.165,-0.539 0.15,-0.511 0.14,-0.473C0.129,-0.434 0.124,-0.384 0.124,-0.321C0.124,-0.259 0.129,-0.208 0.14,-0.169C0.15,-0.129 0.165,-0.1 0.183,-0.082C0.202,-0.063 0.224,-0.054 0.249,-0.054Z" style="fill:rgb(35,31,32);fill-rule:nonzero;"/>
            </g>
            <g transform="matrix(125,0,0,125,1212.42,2106.29)">
            </g>
        </g>
        <g transform="matrix(1,0,0,1,2472.93,123.614)">
            <g transform="matrix(125,0,0,125,1150.29,2106.29)">
                <path d="M0.079,-0L0.079,-0.068L0.225,-0.068L0.225,-0.538L0.109,-0.538L0.109,-0.591C0.138,-0.596 0.163,-0.603 0.185,-0.61C0.207,-0.618 0.227,-0.627 0.244,-0.638L0.307,-0.638L0.307,-0.068L0.439,-0.068L0.439,-0L0.079,-0Z" style="fill:rgb(35,31,32);fill-rule:nonzero;"/>
            </g>
            <g transform="matrix(125,0,0,125,1212.42,2106.29)">
            </g>
        </g>
        <g transform="matrix(1,0,0,1,2305.72,266.25)">
            <g transform="matrix(125,0,0,125,1090.29,2106.29)">
                <rect x="0.041" y="-0.28" width="0.397" height="0.057" style="fill:rgb(35,31,32);fill-rule:nonzero;"/>
            </g>
            <g transform="matrix(125,0,0,125,1150.29,2106.29)">
                <path d="M0.079,-0L0.079,-0.068L0.225,-0.068L0.225,-0.538L0.109,-0.538L0.109,-0.591C0.138,-0.596 0.163,-0.603 0.185,-0.61C0.207,-0.618 0.227,-0.627 0.244,-0.638L0.307,-0.638L0.307,-0.068L0.439,-0.068L0.439,-0L0.079,-0Z" style="fill:rgb(35,31,32);fill-rule:nonzero;"/>
            </g>
            <g transform="matrix(125,0,0,125,1212.42,2106.29)">
            </g>
        </g>
        <g transform="matrix(1,0,0,1,2474.2,266.25)">
            <g transform="matrix(125,0,0,125,1090.29,2106.29)">
                <rect x="0.041" y="-0.28" width="0.397" height="0.057" style="fill:rgb(35,31,32);fill-rule:nonzero;"/>
            </g>
            <g transform="matrix(125,0,0,125,1150.29,2106.29)">
                <path d="M0.079,-0L0.079,-0.068L0.225,-0.068L0.225,-0.538L0.109,-0.538L0.109,-0.591C0.138,-0.596 0.163,-0.603 0.185,-0.61C0.207,-0.618 0.227,-0.627 0.244,-0.638L0.307,-0.638L0.307,-0.068L0.439,-0.068L0.439,-0L0.079,-0Z" style="fill:rgb(35,31,32);fill-rule:nonzero;"/>
            </g>
            <g transform="matrix(125,0,0,125,1212.42,2106.29)">
            </g>
        </g>
    </g>
</svg>
