<?xml version="1.0" encoding="UTF-8" standalone="no"?>
<!DOCTYPE svg PUBLIC "-//W3C//DTD SVG 1.1//EN" "http://www.w3.org/Graphics/SVG/1.1/DTD/svg11.dtd">
<svg width="100%" height="100%" viewBox="0 0 780 389" version="1.1" xmlns="http://www.w3.org/2000/svg" xmlns:xlink="http://www.w3.org/1999/xlink" xml:space="preserve" xmlns:serif="http://www.serif.com/" style="fill-rule:evenodd;clip-rule:evenodd;stroke-linecap:round;stroke-linejoin:round;stroke-miterlimit:1.5;">
    <g transform="matrix(0.542618,-0.038497,-0.038497,0.916975,20.6465,-182.131)">
        <path d="M416.74,414.942L1172.52,491.858" style="fill:none;stroke:rgb(15,76,129);stroke-width:8.73px;"/>
    </g>
    <g transform="matrix(1.03407,0,0,1.03407,-837.436,-7.79639)">
        <circle cx="1033.04" cy="183.058" r="17.355" style="fill:rgb(15,76,129);"/>
    </g>
    <g transform="matrix(1.03407,0,0,1.03407,-430.297,34.4567)">
        <circle cx="1033.04" cy="183.058" r="17.355" style="fill:rgb(15,76,129);"/>
    </g>
    <g id="ppt1" transform="matrix(1,0,0,1,83.2517,-33.4838)">
        <g transform="matrix(0.920893,0,0,-0.920893,-40.5609,463.591)">
            <rect x="186.577" y="165.703" width="35.389" height="35.389" style="fill:rgb(136,176,75);"/>
        </g>
        <g transform="matrix(0.920893,0,0,-0.920893,366.578,484.215)">
            <rect x="186.577" y="165.703" width="35.389" height="35.389" style="fill:rgb(136,176,75);"/>
        </g>
        <g transform="matrix(0.542618,-0.038497,-0.038497,0.916975,-62.6051,-68.9288)">
            <path d="M416.74,414.942L1170.84,468.2" style="fill:none;stroke:rgb(136,176,75);stroke-width:8.73px;"/>
        </g>
        <g transform="matrix(1,0,0,1,-58.1122,37.1997)">
            <g transform="matrix(48,0,0,48,10.985,233.359)">
                <rect x="0.041" y="-0.28" width="0.397" height="0.057" style="fill-rule:nonzero;"/>
            </g>
            <g transform="matrix(48,0,0,48,34.025,233.359)">
                <path d="M0.249,0.012C0.185,0.012 0.135,-0.017 0.099,-0.074C0.062,-0.132 0.044,-0.214 0.044,-0.321C0.044,-0.428 0.062,-0.51 0.099,-0.566C0.135,-0.622 0.185,-0.65 0.249,-0.65C0.312,-0.65 0.362,-0.622 0.398,-0.566C0.435,-0.509 0.453,-0.428 0.453,-0.321C0.453,-0.214 0.435,-0.132 0.398,-0.074C0.362,-0.017 0.312,0.012 0.249,0.012ZM0.249,-0.054C0.273,-0.054 0.295,-0.063 0.314,-0.082C0.332,-0.1 0.347,-0.129 0.357,-0.169C0.368,-0.208 0.373,-0.259 0.373,-0.321C0.373,-0.384 0.368,-0.434 0.357,-0.473C0.347,-0.511 0.332,-0.539 0.314,-0.557C0.295,-0.575 0.273,-0.584 0.249,-0.584C0.224,-0.584 0.202,-0.575 0.183,-0.557C0.165,-0.539 0.15,-0.511 0.14,-0.473C0.129,-0.434 0.124,-0.384 0.124,-0.321C0.124,-0.259 0.129,-0.208 0.14,-0.169C0.15,-0.129 0.165,-0.1 0.183,-0.082C0.202,-0.063 0.224,-0.054 0.249,-0.054Z" style="fill-rule:nonzero;"/>
            </g>
            <g transform="matrix(48,0,0,48,57.8821,233.359)">
                <path d="M0.125,0.012C0.109,0.012 0.095,0.006 0.083,-0.006C0.071,-0.017 0.065,-0.032 0.065,-0.05C0.065,-0.07 0.071,-0.085 0.083,-0.096C0.095,-0.108 0.109,-0.114 0.125,-0.114C0.141,-0.114 0.155,-0.108 0.167,-0.096C0.178,-0.085 0.184,-0.07 0.184,-0.05C0.184,-0.032 0.178,-0.017 0.167,-0.006C0.155,0.006 0.141,0.012 0.125,0.012Z" style="fill-rule:nonzero;"/>
            </g>
            <g transform="matrix(48,0,0,48,69.8443,233.359)">
                <path d="M0.04,-0L0.04,-0.05C0.103,-0.113 0.158,-0.168 0.202,-0.217C0.247,-0.265 0.281,-0.309 0.305,-0.348C0.328,-0.387 0.34,-0.424 0.34,-0.458C0.34,-0.495 0.33,-0.525 0.31,-0.548C0.29,-0.571 0.26,-0.583 0.219,-0.583C0.192,-0.583 0.168,-0.575 0.145,-0.561C0.122,-0.546 0.102,-0.528 0.083,-0.506L0.037,-0.551C0.064,-0.581 0.092,-0.605 0.122,-0.623C0.152,-0.641 0.188,-0.65 0.229,-0.65C0.268,-0.65 0.302,-0.642 0.331,-0.627C0.36,-0.611 0.382,-0.589 0.397,-0.561C0.413,-0.533 0.42,-0.5 0.421,-0.463C0.42,-0.422 0.409,-0.381 0.386,-0.34C0.363,-0.299 0.331,-0.256 0.291,-0.212C0.251,-0.167 0.205,-0.118 0.153,-0.065C0.17,-0.067 0.188,-0.068 0.207,-0.069C0.226,-0.07 0.244,-0.071 0.26,-0.071L0.452,-0.071L0.452,-0L0.04,-0Z" style="fill-rule:nonzero;"/>
            </g>
            <g transform="matrix(48,0,0,48,93.7014,233.359)">
                <path d="M0.04,-0L0.04,-0.05C0.103,-0.113 0.158,-0.168 0.202,-0.217C0.247,-0.265 0.281,-0.309 0.305,-0.348C0.328,-0.387 0.34,-0.424 0.34,-0.458C0.34,-0.495 0.33,-0.525 0.31,-0.548C0.29,-0.571 0.26,-0.583 0.219,-0.583C0.192,-0.583 0.168,-0.575 0.145,-0.561C0.122,-0.546 0.102,-0.528 0.083,-0.506L0.037,-0.551C0.064,-0.581 0.092,-0.605 0.122,-0.623C0.152,-0.641 0.188,-0.65 0.229,-0.65C0.268,-0.65 0.302,-0.642 0.331,-0.627C0.36,-0.611 0.382,-0.589 0.397,-0.561C0.413,-0.533 0.42,-0.5 0.421,-0.463C0.42,-0.422 0.409,-0.381 0.386,-0.34C0.363,-0.299 0.331,-0.256 0.291,-0.212C0.251,-0.167 0.205,-0.118 0.153,-0.065C0.17,-0.067 0.188,-0.068 0.207,-0.069C0.226,-0.07 0.244,-0.071 0.26,-0.071L0.452,-0.071L0.452,-0L0.04,-0Z" style="fill-rule:nonzero;"/>
            </g>
            <g transform="matrix(48,0,0,48,117.559,233.359)">
                <path d="M0.205,0.012C0.171,0.012 0.141,0.006 0.116,-0.007C0.09,-0.02 0.069,-0.036 0.051,-0.055L0.097,-0.107C0.11,-0.091 0.126,-0.079 0.145,-0.07C0.163,-0.061 0.182,-0.056 0.202,-0.056C0.233,-0.056 0.261,-0.066 0.286,-0.084C0.312,-0.102 0.332,-0.132 0.347,-0.174C0.363,-0.215 0.371,-0.272 0.371,-0.343C0.371,-0.395 0.365,-0.44 0.354,-0.475C0.343,-0.511 0.327,-0.539 0.306,-0.557C0.285,-0.576 0.259,-0.585 0.228,-0.585C0.207,-0.585 0.189,-0.579 0.172,-0.568C0.155,-0.556 0.142,-0.54 0.132,-0.519C0.122,-0.498 0.117,-0.473 0.117,-0.445C0.117,-0.418 0.122,-0.394 0.13,-0.373C0.139,-0.353 0.152,-0.337 0.17,-0.326C0.187,-0.315 0.209,-0.31 0.235,-0.31C0.256,-0.31 0.279,-0.317 0.303,-0.331C0.327,-0.344 0.35,-0.368 0.372,-0.4L0.375,-0.335C0.356,-0.309 0.332,-0.287 0.304,-0.272C0.276,-0.256 0.249,-0.248 0.221,-0.248C0.185,-0.248 0.153,-0.255 0.125,-0.27C0.098,-0.285 0.077,-0.307 0.062,-0.336C0.047,-0.365 0.04,-0.402 0.04,-0.445C0.04,-0.486 0.048,-0.522 0.065,-0.553C0.083,-0.583 0.106,-0.607 0.134,-0.624C0.163,-0.641 0.194,-0.65 0.228,-0.65C0.259,-0.65 0.289,-0.643 0.315,-0.631C0.342,-0.618 0.365,-0.599 0.385,-0.573C0.405,-0.548 0.42,-0.516 0.431,-0.477C0.443,-0.439 0.448,-0.394 0.448,-0.343C0.448,-0.279 0.442,-0.224 0.428,-0.179C0.415,-0.134 0.397,-0.097 0.374,-0.069C0.351,-0.041 0.326,-0.021 0.296,-0.008C0.267,0.005 0.237,0.012 0.205,0.012Z" style="fill-rule:nonzero;"/>
            </g>
            <g transform="matrix(48,0,0,48,141.416,233.359)">
            </g>
        </g>
        <g transform="matrix(1,0,0,1.06459,-188.239,-21.5867)">
            <path d="M292.371,222.216L292.371,297.866" style="fill:none;"/>
            <g transform="matrix(1,-0,-0,0.939326,104.987,51.7291)">
                <path d="M199.884,247.179L187.384,259.679L174.884,247.179" style="fill:none;stroke:black;stroke-width:3.33px;stroke-linejoin:miter;stroke-miterlimit:10;"/>
                <path d="M187.384,181.499L187.384,259.679" style="fill:none;stroke:black;stroke-width:3.33px;"/>
            </g>
        </g>
        <g transform="matrix(0.80624,0.591589,0.591589,-0.80624,-8.48917,41.2554)">
            <g transform="matrix(0.80624,0.591589,0.591589,-0.80624,-64.8741,-37.9629)">
                <path d="M587.999,314.261L599.07,300.479L612.852,311.551" style="fill:none;stroke:black;stroke-width:3.33px;stroke-linejoin:miter;stroke-miterlimit:10;"/>
                <path d="M582.083,351.992C592.164,346.186 600.944,321.506 599.07,300.479" style="fill:none;stroke:black;stroke-width:3.33px;"/>
            </g>
        </g>
        <g id="x" transform="matrix(1,0,0,1,549.908,145.095)">
            <g transform="matrix(48,0,0,48,-13.1445,233.359)">
                <path d="M0.216,-0.104L0.216,-0.299L0.034,-0.299L0.034,-0.361L0.216,-0.361L0.216,-0.556L0.281,-0.556L0.281,-0.361L0.463,-0.361L0.463,-0.299L0.281,-0.299L0.281,-0.104L0.216,-0.104Z" style="fill-rule:nonzero;"/>
            </g>
            <g transform="matrix(48,0,0,48,10.7126,233.359)">
                <path d="M0.249,0.012C0.185,0.012 0.135,-0.017 0.099,-0.074C0.062,-0.132 0.044,-0.214 0.044,-0.321C0.044,-0.428 0.062,-0.51 0.099,-0.566C0.135,-0.622 0.185,-0.65 0.249,-0.65C0.312,-0.65 0.362,-0.622 0.398,-0.566C0.435,-0.509 0.453,-0.428 0.453,-0.321C0.453,-0.214 0.435,-0.132 0.398,-0.074C0.362,-0.017 0.312,0.012 0.249,0.012ZM0.249,-0.054C0.273,-0.054 0.295,-0.063 0.314,-0.082C0.332,-0.1 0.347,-0.129 0.357,-0.169C0.368,-0.208 0.373,-0.259 0.373,-0.321C0.373,-0.384 0.368,-0.434 0.357,-0.473C0.347,-0.511 0.332,-0.539 0.314,-0.557C0.295,-0.575 0.273,-0.584 0.249,-0.584C0.224,-0.584 0.202,-0.575 0.183,-0.557C0.165,-0.539 0.15,-0.511 0.14,-0.473C0.129,-0.434 0.124,-0.384 0.124,-0.321C0.124,-0.259 0.129,-0.208 0.14,-0.169C0.15,-0.129 0.165,-0.1 0.183,-0.082C0.202,-0.063 0.224,-0.054 0.249,-0.054Z" style="fill-rule:nonzero;"/>
            </g>
            <g transform="matrix(48,0,0,48,34.5697,233.359)">
                <path d="M0.125,0.012C0.109,0.012 0.095,0.006 0.083,-0.006C0.071,-0.017 0.065,-0.032 0.065,-0.05C0.065,-0.07 0.071,-0.085 0.083,-0.096C0.095,-0.108 0.109,-0.114 0.125,-0.114C0.141,-0.114 0.155,-0.108 0.167,-0.096C0.178,-0.085 0.184,-0.07 0.184,-0.05C0.184,-0.032 0.178,-0.017 0.167,-0.006C0.155,0.006 0.141,0.012 0.125,0.012Z" style="fill-rule:nonzero;"/>
            </g>
            <g transform="matrix(48,0,0,48,46.532,233.359)">
                <path d="M0.04,-0L0.04,-0.05C0.103,-0.113 0.158,-0.168 0.202,-0.217C0.247,-0.265 0.281,-0.309 0.305,-0.348C0.328,-0.387 0.34,-0.424 0.34,-0.458C0.34,-0.495 0.33,-0.525 0.31,-0.548C0.29,-0.571 0.26,-0.583 0.219,-0.583C0.192,-0.583 0.168,-0.575 0.145,-0.561C0.122,-0.546 0.102,-0.528 0.083,-0.506L0.037,-0.551C0.064,-0.581 0.092,-0.605 0.122,-0.623C0.152,-0.641 0.188,-0.65 0.229,-0.65C0.268,-0.65 0.302,-0.642 0.331,-0.627C0.36,-0.611 0.382,-0.589 0.397,-0.561C0.413,-0.533 0.42,-0.5 0.421,-0.463C0.42,-0.422 0.409,-0.381 0.386,-0.34C0.363,-0.299 0.331,-0.256 0.291,-0.212C0.251,-0.167 0.205,-0.118 0.153,-0.065C0.17,-0.067 0.188,-0.068 0.207,-0.069C0.226,-0.07 0.244,-0.071 0.26,-0.071L0.452,-0.071L0.452,-0L0.04,-0Z" style="fill-rule:nonzero;"/>
            </g>
            <g transform="matrix(48,0,0,48,70.3891,233.359)">
                <path d="M0.249,0.012C0.185,0.012 0.135,-0.017 0.099,-0.074C0.062,-0.132 0.044,-0.214 0.044,-0.321C0.044,-0.428 0.062,-0.51 0.099,-0.566C0.135,-0.622 0.185,-0.65 0.249,-0.65C0.312,-0.65 0.362,-0.622 0.398,-0.566C0.435,-0.509 0.453,-0.428 0.453,-0.321C0.453,-0.214 0.435,-0.132 0.398,-0.074C0.362,-0.017 0.312,0.012 0.249,0.012ZM0.249,-0.054C0.273,-0.054 0.295,-0.063 0.314,-0.082C0.332,-0.1 0.347,-0.129 0.357,-0.169C0.368,-0.208 0.373,-0.259 0.373,-0.321C0.373,-0.384 0.368,-0.434 0.357,-0.473C0.347,-0.511 0.332,-0.539 0.314,-0.557C0.295,-0.575 0.273,-0.584 0.249,-0.584C0.224,-0.584 0.202,-0.575 0.183,-0.557C0.165,-0.539 0.15,-0.511 0.14,-0.473C0.129,-0.434 0.124,-0.384 0.124,-0.321C0.124,-0.259 0.129,-0.208 0.14,-0.169C0.15,-0.129 0.165,-0.1 0.183,-0.082C0.202,-0.063 0.224,-0.054 0.249,-0.054Z" style="fill-rule:nonzero;"/>
            </g>
            <g transform="matrix(48,0,0,48,94.2462,233.359)">
                <path d="M0.04,-0L0.04,-0.05C0.103,-0.113 0.158,-0.168 0.202,-0.217C0.247,-0.265 0.281,-0.309 0.305,-0.348C0.328,-0.387 0.34,-0.424 0.34,-0.458C0.34,-0.495 0.33,-0.525 0.31,-0.548C0.29,-0.571 0.26,-0.583 0.219,-0.583C0.192,-0.583 0.168,-0.575 0.145,-0.561C0.122,-0.546 0.102,-0.528 0.083,-0.506L0.037,-0.551C0.064,-0.581 0.092,-0.605 0.122,-0.623C0.152,-0.641 0.188,-0.65 0.229,-0.65C0.268,-0.65 0.302,-0.642 0.331,-0.627C0.36,-0.611 0.382,-0.589 0.397,-0.561C0.413,-0.533 0.42,-0.5 0.421,-0.463C0.42,-0.422 0.409,-0.381 0.386,-0.34C0.363,-0.299 0.331,-0.256 0.291,-0.212C0.251,-0.167 0.205,-0.118 0.153,-0.065C0.17,-0.067 0.188,-0.068 0.207,-0.069C0.226,-0.07 0.244,-0.071 0.26,-0.071L0.452,-0.071L0.452,-0L0.04,-0Z" style="fill-rule:nonzero;"/>
            </g>
            <g transform="matrix(48,0,0,48,118.103,233.359)">
                <path d="M0.25,0.012C0.21,0.012 0.174,0.004 0.143,-0.011C0.111,-0.026 0.086,-0.046 0.068,-0.073C0.05,-0.099 0.041,-0.129 0.041,-0.163C0.041,-0.191 0.047,-0.216 0.058,-0.237C0.07,-0.259 0.085,-0.278 0.104,-0.294C0.122,-0.311 0.141,-0.324 0.161,-0.335L0.161,-0.339C0.138,-0.356 0.117,-0.376 0.099,-0.4C0.081,-0.424 0.072,-0.453 0.072,-0.486C0.072,-0.519 0.08,-0.548 0.096,-0.572C0.112,-0.597 0.133,-0.616 0.161,-0.63C0.188,-0.643 0.218,-0.65 0.253,-0.65C0.308,-0.65 0.353,-0.634 0.385,-0.602C0.417,-0.571 0.433,-0.53 0.433,-0.48C0.433,-0.458 0.428,-0.437 0.419,-0.417C0.41,-0.398 0.398,-0.38 0.385,-0.365C0.371,-0.349 0.358,-0.336 0.345,-0.326L0.345,-0.322C0.364,-0.311 0.382,-0.298 0.399,-0.284C0.416,-0.269 0.429,-0.252 0.44,-0.232C0.451,-0.211 0.456,-0.187 0.456,-0.158C0.456,-0.127 0.447,-0.098 0.43,-0.072C0.413,-0.047 0.389,-0.026 0.358,-0.011C0.328,0.004 0.291,0.012 0.25,0.012ZM0.295,-0.348C0.317,-0.367 0.333,-0.388 0.345,-0.409C0.356,-0.43 0.362,-0.452 0.362,-0.476C0.362,-0.497 0.358,-0.516 0.349,-0.533C0.34,-0.55 0.328,-0.563 0.311,-0.574C0.295,-0.584 0.274,-0.589 0.251,-0.589C0.221,-0.589 0.197,-0.579 0.177,-0.561C0.157,-0.542 0.148,-0.517 0.148,-0.486C0.148,-0.461 0.154,-0.44 0.168,-0.423C0.182,-0.406 0.2,-0.392 0.223,-0.38C0.245,-0.369 0.269,-0.358 0.295,-0.348ZM0.252,-0.049C0.277,-0.049 0.298,-0.054 0.317,-0.063C0.336,-0.073 0.351,-0.086 0.361,-0.103C0.372,-0.119 0.377,-0.139 0.377,-0.161C0.377,-0.188 0.369,-0.211 0.353,-0.228C0.337,-0.246 0.316,-0.261 0.29,-0.273C0.264,-0.285 0.235,-0.297 0.204,-0.31C0.179,-0.293 0.158,-0.273 0.141,-0.25C0.124,-0.227 0.115,-0.2 0.115,-0.171C0.115,-0.147 0.121,-0.126 0.133,-0.108C0.145,-0.09 0.161,-0.075 0.182,-0.065C0.202,-0.054 0.226,-0.049 0.252,-0.049Z" style="fill-rule:nonzero;"/>
            </g>
            <g transform="matrix(48,0,0,48,141.96,233.359)">
            </g>
        </g>
    </g>
</svg>
