<?xml version="1.0" encoding="UTF-8" standalone="no"?>
<!DOCTYPE svg PUBLIC "-//W3C//DTD SVG 1.1//EN" "http://www.w3.org/Graphics/SVG/1.1/DTD/svg11.dtd">
<svg width="100%" height="100%" viewBox="0 0 660 389" version="1.1" xmlns="http://www.w3.org/2000/svg" xmlns:xlink="http://www.w3.org/1999/xlink" xml:space="preserve" xmlns:serif="http://www.serif.com/" style="fill-rule:evenodd;clip-rule:evenodd;stroke-linecap:round;stroke-linejoin:round;stroke-miterlimit:1.5;">
    <g transform="matrix(0.542618,-0.038497,-0.038497,0.916975,15.7672,-182.131)">
        <path d="M416.74,414.942L1172.52,491.858" style="fill:none;stroke:rgb(15,76,129);stroke-width:8.73px;"/>
    </g>
    <g transform="matrix(1.03407,0,0,1.03407,-842.315,-7.79639)">
        <circle cx="1033.04" cy="183.058" r="17.355" style="fill:rgb(15,76,129);"/>
    </g>
    <g transform="matrix(1.03407,0,0,1.03407,-435.177,34.4567)">
        <circle cx="1033.04" cy="183.058" r="17.355" style="fill:rgb(15,76,129);"/>
    </g>
    <g id="ppt100" transform="matrix(1,0,0,1,78.3724,-71.7368)">
        <g transform="matrix(0.920893,0,0,-0.920893,-40.5609,463.591)">
            <rect x="186.577" y="165.703" width="35.389" height="35.389" style="fill:rgb(136,176,75);"/>
        </g>
        <g transform="matrix(0.920893,0,0,-0.920893,366.578,505.844)">
            <rect x="186.577" y="165.703" width="35.389" height="35.389" style="fill:rgb(136,176,75);"/>
        </g>
        <g transform="matrix(0.542618,-0.038497,-0.038497,0.916975,-62.6051,-68.9288)">
            <path d="M416.74,414.942L1172.52,491.858" style="fill:none;stroke:rgb(136,176,75);stroke-width:8.73px;"/>
        </g>
        <g transform="matrix(1,0,0,1,-56.7629,55.917)">
            <g transform="matrix(48,0,0,48,-12.8721,233.359)">
                <rect x="0.041" y="-0.28" width="0.397" height="0.057" style="fill-rule:nonzero;"/>
            </g>
            <g transform="matrix(48,0,0,48,10.1679,233.359)">
                <path d="M0.249,0.012C0.185,0.012 0.135,-0.017 0.099,-0.074C0.062,-0.132 0.044,-0.214 0.044,-0.321C0.044,-0.428 0.062,-0.51 0.099,-0.566C0.135,-0.622 0.185,-0.65 0.249,-0.65C0.312,-0.65 0.362,-0.622 0.398,-0.566C0.435,-0.509 0.453,-0.428 0.453,-0.321C0.453,-0.214 0.435,-0.132 0.398,-0.074C0.362,-0.017 0.312,0.012 0.249,0.012ZM0.249,-0.054C0.273,-0.054 0.295,-0.063 0.314,-0.082C0.332,-0.1 0.347,-0.129 0.357,-0.169C0.368,-0.208 0.373,-0.259 0.373,-0.321C0.373,-0.384 0.368,-0.434 0.357,-0.473C0.347,-0.511 0.332,-0.539 0.314,-0.557C0.295,-0.575 0.273,-0.584 0.249,-0.584C0.224,-0.584 0.202,-0.575 0.183,-0.557C0.165,-0.539 0.15,-0.511 0.14,-0.473C0.129,-0.434 0.124,-0.384 0.124,-0.321C0.124,-0.259 0.129,-0.208 0.14,-0.169C0.15,-0.129 0.165,-0.1 0.183,-0.082C0.202,-0.063 0.224,-0.054 0.249,-0.054Z" style="fill-rule:nonzero;"/>
            </g>
            <g transform="matrix(48,0,0,48,34.025,233.359)">
                <path d="M0.125,0.012C0.109,0.012 0.095,0.006 0.083,-0.006C0.071,-0.017 0.065,-0.032 0.065,-0.05C0.065,-0.07 0.071,-0.085 0.083,-0.096C0.095,-0.108 0.109,-0.114 0.125,-0.114C0.141,-0.114 0.155,-0.108 0.167,-0.096C0.178,-0.085 0.184,-0.07 0.184,-0.05C0.184,-0.032 0.178,-0.017 0.167,-0.006C0.155,0.006 0.141,0.012 0.125,0.012Z" style="fill-rule:nonzero;"/>
            </g>
            <g transform="matrix(48,0,0,48,45.9873,233.359)">
                <path d="M0.249,0.012C0.185,0.012 0.135,-0.017 0.099,-0.074C0.062,-0.132 0.044,-0.214 0.044,-0.321C0.044,-0.428 0.062,-0.51 0.099,-0.566C0.135,-0.622 0.185,-0.65 0.249,-0.65C0.312,-0.65 0.362,-0.622 0.398,-0.566C0.435,-0.509 0.453,-0.428 0.453,-0.321C0.453,-0.214 0.435,-0.132 0.398,-0.074C0.362,-0.017 0.312,0.012 0.249,0.012ZM0.249,-0.054C0.273,-0.054 0.295,-0.063 0.314,-0.082C0.332,-0.1 0.347,-0.129 0.357,-0.169C0.368,-0.208 0.373,-0.259 0.373,-0.321C0.373,-0.384 0.368,-0.434 0.357,-0.473C0.347,-0.511 0.332,-0.539 0.314,-0.557C0.295,-0.575 0.273,-0.584 0.249,-0.584C0.224,-0.584 0.202,-0.575 0.183,-0.557C0.165,-0.539 0.15,-0.511 0.14,-0.473C0.129,-0.434 0.124,-0.384 0.124,-0.321C0.124,-0.259 0.129,-0.208 0.14,-0.169C0.15,-0.129 0.165,-0.1 0.183,-0.082C0.202,-0.063 0.224,-0.054 0.249,-0.054Z" style="fill-rule:nonzero;"/>
            </g>
            <g transform="matrix(48,0,0,48,69.8443,233.359)">
                <path d="M0.268,0.012C0.237,0.012 0.208,0.006 0.181,-0.007C0.154,-0.02 0.131,-0.039 0.111,-0.064C0.091,-0.09 0.076,-0.122 0.065,-0.16C0.054,-0.199 0.048,-0.244 0.048,-0.295C0.048,-0.359 0.055,-0.413 0.068,-0.459C0.081,-0.504 0.099,-0.54 0.122,-0.568C0.145,-0.596 0.171,-0.617 0.2,-0.63C0.229,-0.643 0.259,-0.65 0.291,-0.65C0.326,-0.65 0.355,-0.643 0.381,-0.631C0.406,-0.618 0.427,-0.602 0.445,-0.582L0.399,-0.531C0.386,-0.547 0.371,-0.559 0.352,-0.568C0.334,-0.577 0.314,-0.581 0.294,-0.581C0.264,-0.581 0.236,-0.572 0.21,-0.554C0.185,-0.536 0.164,-0.506 0.149,-0.464C0.133,-0.422 0.126,-0.366 0.126,-0.295C0.126,-0.242 0.131,-0.198 0.142,-0.162C0.153,-0.126 0.169,-0.099 0.191,-0.081C0.212,-0.062 0.238,-0.053 0.268,-0.053C0.289,-0.053 0.308,-0.059 0.325,-0.07C0.342,-0.082 0.355,-0.098 0.365,-0.119C0.374,-0.14 0.379,-0.165 0.379,-0.193C0.379,-0.22 0.375,-0.244 0.366,-0.265C0.357,-0.285 0.344,-0.3 0.327,-0.311C0.309,-0.322 0.287,-0.328 0.261,-0.328C0.24,-0.328 0.218,-0.321 0.193,-0.308C0.169,-0.294 0.146,-0.271 0.124,-0.238L0.121,-0.303C0.141,-0.33 0.165,-0.351 0.193,-0.367C0.22,-0.382 0.248,-0.39 0.275,-0.39C0.312,-0.39 0.344,-0.383 0.371,-0.368C0.398,-0.353 0.419,-0.331 0.434,-0.302C0.449,-0.273 0.457,-0.236 0.457,-0.193C0.457,-0.152 0.448,-0.116 0.431,-0.086C0.414,-0.055 0.391,-0.031 0.362,-0.014C0.334,0.003 0.302,0.012 0.268,0.012Z" style="fill-rule:nonzero;"/>
            </g>
            <g transform="matrix(48,0,0,48,93.7014,233.359)">
                <path d="M0.234,0.012C0.2,0.012 0.17,0.008 0.144,-0C0.118,-0.009 0.095,-0.02 0.076,-0.033C0.056,-0.047 0.039,-0.061 0.025,-0.075L0.065,-0.129C0.084,-0.11 0.107,-0.094 0.132,-0.079C0.157,-0.064 0.189,-0.056 0.226,-0.056C0.252,-0.056 0.275,-0.062 0.297,-0.074C0.318,-0.086 0.335,-0.103 0.347,-0.125C0.359,-0.146 0.366,-0.172 0.366,-0.202C0.366,-0.246 0.353,-0.28 0.329,-0.305C0.304,-0.33 0.271,-0.342 0.23,-0.342C0.208,-0.342 0.19,-0.339 0.174,-0.332C0.158,-0.326 0.14,-0.316 0.121,-0.303L0.077,-0.331L0.098,-0.638L0.417,-0.638L0.417,-0.567L0.17,-0.567L0.153,-0.378C0.169,-0.386 0.184,-0.392 0.199,-0.397C0.214,-0.402 0.232,-0.404 0.251,-0.404C0.288,-0.404 0.321,-0.397 0.351,-0.383C0.381,-0.369 0.404,-0.347 0.422,-0.317C0.44,-0.288 0.449,-0.25 0.449,-0.204C0.449,-0.158 0.439,-0.119 0.419,-0.087C0.398,-0.055 0.372,-0.03 0.339,-0.013C0.306,0.004 0.271,0.012 0.234,0.012Z" style="fill-rule:nonzero;"/>
            </g>
            <g transform="matrix(48,0,0,48,117.559,233.359)">
                <path d="M0.079,-0L0.079,-0.068L0.225,-0.068L0.225,-0.538L0.109,-0.538L0.109,-0.591C0.138,-0.596 0.163,-0.603 0.185,-0.61C0.207,-0.618 0.227,-0.627 0.244,-0.638L0.307,-0.638L0.307,-0.068L0.439,-0.068L0.439,-0L0.079,-0Z" style="fill-rule:nonzero;"/>
            </g>
            <g transform="matrix(48,0,0,48,141.416,233.359)">
            </g>
        </g>
        <g transform="matrix(0.51486,0,0,0.548116,-46.3979,131.436)">
            <path d="M292.371,222.216L292.371,297.866" style="fill:none;"/>
            <g transform="matrix(1.94228,-0,-0,1.82443,-62.1032,-108.916)">
                <path d="M195.004,208.107L182.504,220.607L170.004,208.107" style="fill:none;stroke:black;stroke-width:3.33px;stroke-linejoin:miter;stroke-miterlimit:10;"/>
                <path d="M182.504,181.499L182.504,220.607" style="fill:none;stroke:black;stroke-width:3.33px;"/>
            </g>
        </g>
    </g>
</svg>
