<?xml version="1.0" encoding="UTF-8" standalone="no"?>
<!DOCTYPE svg PUBLIC "-//W3C//DTD SVG 1.1//EN" "http://www.w3.org/Graphics/SVG/1.1/DTD/svg11.dtd">
<svg width="100%" height="100%" viewBox="0 0 750 389" version="1.1" xmlns="http://www.w3.org/2000/svg" xmlns:xlink="http://www.w3.org/1999/xlink" xml:space="preserve" xmlns:serif="http://www.serif.com/" style="fill-rule:evenodd;clip-rule:evenodd;stroke-linecap:round;stroke-linejoin:round;stroke-miterlimit:1.5;">
    <g transform="matrix(0.542618,-0.038497,-0.038497,0.916975,-9.35347,-182.131)">
        <path d="M416.74,414.942L1172.52,491.858" style="fill:none;stroke:rgb(15,76,129);stroke-width:8.73px;"/>
    </g>
    <g transform="matrix(1.03407,0,0,1.03407,-867.436,-7.79639)">
        <circle cx="1033.04" cy="183.058" r="17.355" style="fill:rgb(15,76,129);"/>
    </g>
    <g transform="matrix(1.03407,0,0,1.03407,-460.297,34.4567)">
        <circle cx="1033.04" cy="183.058" r="17.355" style="fill:rgb(15,76,129);"/>
    </g>
    <g id="ppt1-int-4.6--slp--0.7" serif:id="ppt1 int 4.6, slp –0.7" transform="matrix(1,0,0,1,53.2517,-33.4838)">
        <g transform="matrix(0.920893,0,0,-0.920893,-40.5609,463.591)">
            <rect x="186.577" y="165.703" width="35.389" height="35.389" style="fill:rgb(136,176,75);"/>
        </g>
        <g transform="matrix(0.920893,0,0,-0.920893,366.578,485.844)">
            <rect x="186.577" y="165.703" width="35.389" height="35.389" style="fill:rgb(136,176,75);"/>
        </g>
        <g transform="matrix(0.542618,-0.038497,-0.038497,0.916975,-62.6051,-68.9288)">
            <path d="M416.74,414.942L1170.97,469.982" style="fill:none;stroke:rgb(136,176,75);stroke-width:8.73px;"/>
        </g>
        <g transform="matrix(1,0,0,1,-58.1122,37.1997)">
            <g transform="matrix(48,0,0,48,10.985,233.359)">
                <rect x="0.041" y="-0.28" width="0.397" height="0.057" style="fill-rule:nonzero;"/>
            </g>
            <g transform="matrix(48,0,0,48,34.025,233.359)">
                <path d="M0.249,0.012C0.185,0.012 0.135,-0.017 0.099,-0.074C0.062,-0.132 0.044,-0.214 0.044,-0.321C0.044,-0.428 0.062,-0.51 0.099,-0.566C0.135,-0.622 0.185,-0.65 0.249,-0.65C0.312,-0.65 0.362,-0.622 0.398,-0.566C0.435,-0.509 0.453,-0.428 0.453,-0.321C0.453,-0.214 0.435,-0.132 0.398,-0.074C0.362,-0.017 0.312,0.012 0.249,0.012ZM0.249,-0.054C0.273,-0.054 0.295,-0.063 0.314,-0.082C0.332,-0.1 0.347,-0.129 0.357,-0.169C0.368,-0.208 0.373,-0.259 0.373,-0.321C0.373,-0.384 0.368,-0.434 0.357,-0.473C0.347,-0.511 0.332,-0.539 0.314,-0.557C0.295,-0.575 0.273,-0.584 0.249,-0.584C0.224,-0.584 0.202,-0.575 0.183,-0.557C0.165,-0.539 0.15,-0.511 0.14,-0.473C0.129,-0.434 0.124,-0.384 0.124,-0.321C0.124,-0.259 0.129,-0.208 0.14,-0.169C0.15,-0.129 0.165,-0.1 0.183,-0.082C0.202,-0.063 0.224,-0.054 0.249,-0.054Z" style="fill-rule:nonzero;"/>
            </g>
            <g transform="matrix(48,0,0,48,57.8821,233.359)">
                <path d="M0.125,0.012C0.109,0.012 0.095,0.006 0.083,-0.006C0.071,-0.017 0.065,-0.032 0.065,-0.05C0.065,-0.07 0.071,-0.085 0.083,-0.096C0.095,-0.108 0.109,-0.114 0.125,-0.114C0.141,-0.114 0.155,-0.108 0.167,-0.096C0.178,-0.085 0.184,-0.07 0.184,-0.05C0.184,-0.032 0.178,-0.017 0.167,-0.006C0.155,0.006 0.141,0.012 0.125,0.012Z" style="fill-rule:nonzero;"/>
            </g>
            <g transform="matrix(48,0,0,48,69.8443,233.359)">
                <path d="M0.079,-0L0.079,-0.068L0.225,-0.068L0.225,-0.538L0.109,-0.538L0.109,-0.591C0.138,-0.596 0.163,-0.603 0.185,-0.61C0.207,-0.618 0.227,-0.627 0.244,-0.638L0.307,-0.638L0.307,-0.068L0.439,-0.068L0.439,-0L0.079,-0Z" style="fill-rule:nonzero;"/>
            </g>
            <g transform="matrix(48,0,0,48,93.7014,233.359)">
                <path d="M0.171,-0C0.174,-0.06 0.179,-0.115 0.188,-0.165C0.196,-0.216 0.207,-0.263 0.222,-0.308C0.238,-0.352 0.257,-0.396 0.28,-0.438C0.303,-0.48 0.33,-0.523 0.363,-0.567L0.044,-0.567L0.044,-0.638L0.455,-0.638L0.455,-0.587C0.417,-0.539 0.385,-0.493 0.36,-0.449C0.336,-0.404 0.316,-0.36 0.302,-0.314C0.287,-0.269 0.277,-0.221 0.27,-0.17C0.264,-0.119 0.259,-0.062 0.256,-0L0.171,-0Z" style="fill-rule:nonzero;"/>
            </g>
            <g transform="matrix(48,0,0,48,117.559,233.359)">
                <path d="M0.079,-0L0.079,-0.068L0.225,-0.068L0.225,-0.538L0.109,-0.538L0.109,-0.591C0.138,-0.596 0.163,-0.603 0.185,-0.61C0.207,-0.618 0.227,-0.627 0.244,-0.638L0.307,-0.638L0.307,-0.068L0.439,-0.068L0.439,-0L0.079,-0Z" style="fill-rule:nonzero;"/>
            </g>
            <g transform="matrix(48,0,0,48,141.416,233.359)">
            </g>
        </g>
        <g transform="matrix(1,0,0,1.06459,-188.239,-21.5867)">
            <path d="M292.371,222.216L292.371,297.866" style="fill:none;"/>
            <g transform="matrix(1,-0,-0,0.939326,134.987,51.7291)">
                <path d="M169.884,247.179L157.384,259.679L144.884,247.179" style="fill:none;stroke:black;stroke-width:3.33px;stroke-linejoin:miter;stroke-miterlimit:10;"/>
                <path d="M157.384,181.499L157.384,259.679" style="fill:none;stroke:black;stroke-width:3.33px;"/>
            </g>
        </g>
        <g transform="matrix(0.80624,0.591589,0.591589,-0.80624,-6.80384,36.0345)">
            <g transform="matrix(0.80624,0.591589,0.591589,-0.80624,-38.9571,-25.4215)">
                <path d="M558.284,308.007L570.545,295.272L583.28,307.533" style="fill:none;stroke:black;stroke-width:3.33px;stroke-linejoin:miter;stroke-miterlimit:10;"/>
                <path d="M554.352,329.955C568.802,320.228 570.683,308.228 570.545,295.272" style="fill:none;stroke:black;stroke-width:3.33px;"/>
            </g>
        </g>
        <g id="x" transform="matrix(1,0,0,1,546.908,145.387)">
            <g transform="matrix(48,0,0,48,-13.1445,233.359)">
                <path d="M0.216,-0.104L0.216,-0.299L0.034,-0.299L0.034,-0.361L0.216,-0.361L0.216,-0.556L0.281,-0.556L0.281,-0.361L0.463,-0.361L0.463,-0.299L0.281,-0.299L0.281,-0.104L0.216,-0.104Z" style="fill-rule:nonzero;"/>
            </g>
            <g transform="matrix(48,0,0,48,10.7126,233.359)">
                <path d="M0.249,0.012C0.185,0.012 0.135,-0.017 0.099,-0.074C0.062,-0.132 0.044,-0.214 0.044,-0.321C0.044,-0.428 0.062,-0.51 0.099,-0.566C0.135,-0.622 0.185,-0.65 0.249,-0.65C0.312,-0.65 0.362,-0.622 0.398,-0.566C0.435,-0.509 0.453,-0.428 0.453,-0.321C0.453,-0.214 0.435,-0.132 0.398,-0.074C0.362,-0.017 0.312,0.012 0.249,0.012ZM0.249,-0.054C0.273,-0.054 0.295,-0.063 0.314,-0.082C0.332,-0.1 0.347,-0.129 0.357,-0.169C0.368,-0.208 0.373,-0.259 0.373,-0.321C0.373,-0.384 0.368,-0.434 0.357,-0.473C0.347,-0.511 0.332,-0.539 0.314,-0.557C0.295,-0.575 0.273,-0.584 0.249,-0.584C0.224,-0.584 0.202,-0.575 0.183,-0.557C0.165,-0.539 0.15,-0.511 0.14,-0.473C0.129,-0.434 0.124,-0.384 0.124,-0.321C0.124,-0.259 0.129,-0.208 0.14,-0.169C0.15,-0.129 0.165,-0.1 0.183,-0.082C0.202,-0.063 0.224,-0.054 0.249,-0.054Z" style="fill-rule:nonzero;"/>
            </g>
            <g transform="matrix(48,0,0,48,34.5697,233.359)">
                <path d="M0.125,0.012C0.109,0.012 0.095,0.006 0.083,-0.006C0.071,-0.017 0.065,-0.032 0.065,-0.05C0.065,-0.07 0.071,-0.085 0.083,-0.096C0.095,-0.108 0.109,-0.114 0.125,-0.114C0.141,-0.114 0.155,-0.108 0.167,-0.096C0.178,-0.085 0.184,-0.07 0.184,-0.05C0.184,-0.032 0.178,-0.017 0.167,-0.006C0.155,0.006 0.141,0.012 0.125,0.012Z" style="fill-rule:nonzero;"/>
            </g>
            <g transform="matrix(48,0,0,48,46.532,233.359)">
                <path d="M0.249,0.012C0.185,0.012 0.135,-0.017 0.099,-0.074C0.062,-0.132 0.044,-0.214 0.044,-0.321C0.044,-0.428 0.062,-0.51 0.099,-0.566C0.135,-0.622 0.185,-0.65 0.249,-0.65C0.312,-0.65 0.362,-0.622 0.398,-0.566C0.435,-0.509 0.453,-0.428 0.453,-0.321C0.453,-0.214 0.435,-0.132 0.398,-0.074C0.362,-0.017 0.312,0.012 0.249,0.012ZM0.249,-0.054C0.273,-0.054 0.295,-0.063 0.314,-0.082C0.332,-0.1 0.347,-0.129 0.357,-0.169C0.368,-0.208 0.373,-0.259 0.373,-0.321C0.373,-0.384 0.368,-0.434 0.357,-0.473C0.347,-0.511 0.332,-0.539 0.314,-0.557C0.295,-0.575 0.273,-0.584 0.249,-0.584C0.224,-0.584 0.202,-0.575 0.183,-0.557C0.165,-0.539 0.15,-0.511 0.14,-0.473C0.129,-0.434 0.124,-0.384 0.124,-0.321C0.124,-0.259 0.129,-0.208 0.14,-0.169C0.15,-0.129 0.165,-0.1 0.183,-0.082C0.202,-0.063 0.224,-0.054 0.249,-0.054Z" style="fill-rule:nonzero;"/>
            </g>
            <g transform="matrix(48,0,0,48,70.3891,233.359)">
                <path d="M0.268,0.012C0.237,0.012 0.208,0.006 0.181,-0.007C0.154,-0.02 0.131,-0.039 0.111,-0.064C0.091,-0.09 0.076,-0.122 0.065,-0.16C0.054,-0.199 0.048,-0.244 0.048,-0.295C0.048,-0.359 0.055,-0.413 0.068,-0.459C0.081,-0.504 0.099,-0.54 0.122,-0.568C0.145,-0.596 0.171,-0.617 0.2,-0.63C0.229,-0.643 0.259,-0.65 0.291,-0.65C0.326,-0.65 0.355,-0.643 0.381,-0.631C0.406,-0.618 0.427,-0.602 0.445,-0.582L0.399,-0.531C0.386,-0.547 0.371,-0.559 0.352,-0.568C0.334,-0.577 0.314,-0.581 0.294,-0.581C0.264,-0.581 0.236,-0.572 0.21,-0.554C0.185,-0.536 0.164,-0.506 0.149,-0.464C0.133,-0.422 0.126,-0.366 0.126,-0.295C0.126,-0.242 0.131,-0.198 0.142,-0.162C0.153,-0.126 0.169,-0.099 0.191,-0.081C0.212,-0.062 0.238,-0.053 0.268,-0.053C0.289,-0.053 0.308,-0.059 0.325,-0.07C0.342,-0.082 0.355,-0.098 0.365,-0.119C0.374,-0.14 0.379,-0.165 0.379,-0.193C0.379,-0.22 0.375,-0.244 0.366,-0.265C0.357,-0.285 0.344,-0.3 0.327,-0.311C0.309,-0.322 0.287,-0.328 0.261,-0.328C0.24,-0.328 0.218,-0.321 0.193,-0.308C0.169,-0.294 0.146,-0.271 0.124,-0.238L0.121,-0.303C0.141,-0.33 0.165,-0.351 0.193,-0.367C0.22,-0.382 0.248,-0.39 0.275,-0.39C0.312,-0.39 0.344,-0.383 0.371,-0.368C0.398,-0.353 0.419,-0.331 0.434,-0.302C0.449,-0.273 0.457,-0.236 0.457,-0.193C0.457,-0.152 0.448,-0.116 0.431,-0.086C0.414,-0.055 0.391,-0.031 0.362,-0.014C0.334,0.003 0.302,0.012 0.268,0.012Z" style="fill-rule:nonzero;"/>
            </g>
            <g transform="matrix(48,0,0,48,94.2462,233.359)">
                <path d="M0.205,0.012C0.171,0.012 0.141,0.006 0.116,-0.007C0.09,-0.02 0.069,-0.036 0.051,-0.055L0.097,-0.107C0.11,-0.091 0.126,-0.079 0.145,-0.07C0.163,-0.061 0.182,-0.056 0.202,-0.056C0.233,-0.056 0.261,-0.066 0.286,-0.084C0.312,-0.102 0.332,-0.132 0.347,-0.174C0.363,-0.215 0.371,-0.272 0.371,-0.343C0.371,-0.395 0.365,-0.44 0.354,-0.475C0.343,-0.511 0.327,-0.539 0.306,-0.557C0.285,-0.576 0.259,-0.585 0.228,-0.585C0.207,-0.585 0.189,-0.579 0.172,-0.568C0.155,-0.556 0.142,-0.54 0.132,-0.519C0.122,-0.498 0.117,-0.473 0.117,-0.445C0.117,-0.418 0.122,-0.394 0.13,-0.373C0.139,-0.353 0.152,-0.337 0.17,-0.326C0.187,-0.315 0.209,-0.31 0.235,-0.31C0.256,-0.31 0.279,-0.317 0.303,-0.331C0.327,-0.344 0.35,-0.368 0.372,-0.4L0.375,-0.335C0.356,-0.309 0.332,-0.287 0.304,-0.272C0.276,-0.256 0.249,-0.248 0.221,-0.248C0.185,-0.248 0.153,-0.255 0.125,-0.27C0.098,-0.285 0.077,-0.307 0.062,-0.336C0.047,-0.365 0.04,-0.402 0.04,-0.445C0.04,-0.486 0.048,-0.522 0.065,-0.553C0.083,-0.583 0.106,-0.607 0.134,-0.624C0.163,-0.641 0.194,-0.65 0.228,-0.65C0.259,-0.65 0.289,-0.643 0.315,-0.631C0.342,-0.618 0.365,-0.599 0.385,-0.573C0.405,-0.548 0.42,-0.516 0.431,-0.477C0.443,-0.439 0.448,-0.394 0.448,-0.343C0.448,-0.279 0.442,-0.224 0.428,-0.179C0.415,-0.134 0.397,-0.097 0.374,-0.069C0.351,-0.041 0.326,-0.021 0.296,-0.008C0.267,0.005 0.237,0.012 0.205,0.012Z" style="fill-rule:nonzero;"/>
            </g>
            <g transform="matrix(48,0,0,48,118.103,233.359)">
                <path d="M0.04,-0L0.04,-0.05C0.103,-0.113 0.158,-0.168 0.202,-0.217C0.247,-0.265 0.281,-0.309 0.305,-0.348C0.328,-0.387 0.34,-0.424 0.34,-0.458C0.34,-0.495 0.33,-0.525 0.31,-0.548C0.29,-0.571 0.26,-0.583 0.219,-0.583C0.192,-0.583 0.168,-0.575 0.145,-0.561C0.122,-0.546 0.102,-0.528 0.083,-0.506L0.037,-0.551C0.064,-0.581 0.092,-0.605 0.122,-0.623C0.152,-0.641 0.188,-0.65 0.229,-0.65C0.268,-0.65 0.302,-0.642 0.331,-0.627C0.36,-0.611 0.382,-0.589 0.397,-0.561C0.413,-0.533 0.42,-0.5 0.421,-0.463C0.42,-0.422 0.409,-0.381 0.386,-0.34C0.363,-0.299 0.331,-0.256 0.291,-0.212C0.251,-0.167 0.205,-0.118 0.153,-0.065C0.17,-0.067 0.188,-0.068 0.207,-0.069C0.226,-0.07 0.244,-0.071 0.26,-0.071L0.452,-0.071L0.452,-0L0.04,-0Z" style="fill-rule:nonzero;"/>
            </g>
            <g transform="matrix(48,0,0,48,141.96,233.359)">
            </g>
        </g>
    </g>
</svg>
