<?xml version="1.0" encoding="UTF-8" standalone="no"?>
<!DOCTYPE svg PUBLIC "-//W3C//DTD SVG 1.1//EN" "http://www.w3.org/Graphics/SVG/1.1/DTD/svg11.dtd">
<svg width="100%" height="100%" viewBox="0 0 703 466" version="1.1" xmlns="http://www.w3.org/2000/svg" xmlns:xlink="http://www.w3.org/1999/xlink" xml:space="preserve" xmlns:serif="http://www.serif.com/" style="fill-rule:evenodd;clip-rule:evenodd;stroke-linecap:round;stroke-linejoin:round;stroke-miterlimit:1.5;">
    <g transform="matrix(0.920893,0,0,0.724323,-513.911,-251.795)">
        <path d="M561.451,351.942L561.451,985.7L1317.23,985.7" style="fill:none;stroke:black;stroke-width:7.54px;"/>
    </g>
    <g transform="matrix(0.542618,-0.038497,-0.038497,0.916975,-62.6051,-148.929)">
        <path d="M416.74,414.942L1172.52,491.858" style="fill:none;stroke:rgb(15,76,129);stroke-width:8.73px;"/>
    </g>
    <g transform="matrix(1.03407,0,0,1.03407,-513.549,67.6586)">
        <circle cx="1033.04" cy="183.058" r="17.355" style="fill:rgb(15,76,129);"/>
    </g>
    <g transform="matrix(1.03407,0,0,1.03407,-920.688,25.4056)">
        <circle cx="1033.04" cy="183.058" r="17.355" style="fill:rgb(15,76,129);"/>
    </g>
    <g id="slp-pos" transform="matrix(1,0,0,1,0,196.677)">
        <g transform="matrix(0.542618,-0.038497,-0.038497,0.916975,-62.6051,-247.477)">
            <path d="M409.062,306.713L1153.39,222.246" style="fill:none;stroke:rgb(136,176,75);stroke-width:8.73px;"/>
        </g>
        <g transform="matrix(0.920893,0,0,0.920893,-40.5609,-150.866)">
            <rect x="186.577" y="165.703" width="35.389" height="35.389" style="fill:rgb(136,176,75);"/>
        </g>
        <g transform="matrix(0.920893,0,0,0.920893,366.578,-256.975)">
            <rect x="186.577" y="165.703" width="35.389" height="35.389" style="fill:rgb(136,176,75);"/>
        </g>
        <g transform="matrix(1.00248,-0.167664,0.150369,0.899069,378.538,-140.425)">
            <g transform="matrix(0.970384,0.180964,-0.162297,1.082,-358.197,-129.366)">
                <path d="M512.348,172.66L508.359,144.658L536.361,140.669" style="fill:none;stroke:black;stroke-width:5.33px;stroke-linejoin:miter;stroke-miterlimit:10;"/>
                <path d="M520.161,230.996C550.199,197.815 540.936,169.727 508.359,144.658" style="fill:none;stroke:black;stroke-width:5.33px;"/>
            </g>
        </g>
    </g>
</svg>
