<?xml version="1.0" encoding="UTF-8" standalone="no"?>
<!DOCTYPE svg PUBLIC "-//W3C//DTD SVG 1.1//EN" "http://www.w3.org/Graphics/SVG/1.1/DTD/svg11.dtd">
<svg width="100%" height="100%" viewBox="0 0 4349 2488" version="1.1" xmlns="http://www.w3.org/2000/svg" xmlns:xlink="http://www.w3.org/1999/xlink" xml:space="preserve" xmlns:serif="http://www.serif.com/" style="fill-rule:evenodd;clip-rule:evenodd;stroke-linecap:round;stroke-linejoin:round;stroke-miterlimit:1.5;">
    <g transform="matrix(1,0,0,1,-346.832,-753.38)">
        <g transform="matrix(100,0,0,100,2641.58,2575.75)">
        </g>
        <text x="2401.58px" y="2575.75px" style="font-family:'FiraMono-Bold', 'Fira Mono', monospace;font-weight:700;font-size:100px;fill:rgb(35,31,32);">0.52</text>
    </g>
    <g transform="matrix(1,0,0,1,-346.832,-1010.71)">
        <g transform="matrix(100,0,0,100,2641.58,2575.75)">
        </g>
        <text x="2401.58px" y="2575.75px" style="font-family:'FiraMono-Bold', 'Fira Mono', monospace;font-weight:700;font-size:100px;fill:rgb(35,31,32);">mean</text>
    </g>
    <g transform="matrix(1,0,0,1,205.733,-1010.71)">
        <g transform="matrix(100,0,0,100,2671.58,2575.75)">
        </g>
        <text x="2371.58px" y="2575.75px" style="font-family:'FiraMono-Bold', 'Fira Mono', monospace;font-weight:700;font-size:100px;fill:rgb(35,31,32);">+1 SD</text>
    </g>
    <g transform="matrix(1,0,0,1,-1464.01,-1010.71)">
        <g transform="matrix(100,0,0,100,2671.58,2575.75)">
        </g>
        <text x="2371.58px" y="2575.75px" style="font-family:'FiraMono-Bold', 'Fira Mono', monospace;font-weight:700;font-size:100px;fill:rgb(35,31,32);">-2 SD</text>
    </g>
    <g transform="matrix(1,0,0,1,762.098,-1010.71)">
        <g transform="matrix(100,0,0,100,2671.58,2575.75)">
        </g>
        <text x="2371.58px" y="2575.75px" style="font-family:'FiraMono-Bold', 'Fira Mono', monospace;font-weight:700;font-size:100px;fill:rgb(35,31,32);">+2 SD</text>
    </g>
    <g transform="matrix(1,0,0,1,-907.647,-1010.71)">
        <g transform="matrix(100,0,0,100,2671.58,2575.75)">
        </g>
        <text x="2371.58px" y="2575.75px" style="font-family:'FiraMono-Bold', 'Fira Mono', monospace;font-weight:700;font-size:100px;fill:rgb(35,31,32);">-1 SD</text>
    </g>
    <g transform="matrix(1,0,0,1,237.883,-753.38)">
        <text x="2431.58px" y="2575.75px" style="font-family:'FiraMono-Regular', 'Fira Mono', monospace;font-size:100px;fill:rgb(35,31,32);">0.52</text>
        <text x="2311.58px" y="2675.75px" style="font-family:'FiraMono-Regular', 'Fira Mono', monospace;font-size:100px;fill:rgb(35,31,32);">+ 0.42</text>
        <g transform="matrix(100,0,0,100,2671.58,2775.75)">
        </g>
        <text x="2311.58px" y="2775.75px" style="font-family:'FiraMono-Bold', 'Fira Mono', monospace;font-weight:700;font-size:100px;fill:rgb(35,31,32);">= 0.94</text>
    </g>
    <g transform="matrix(1,0,0,1,-874.697,-753.38)">
        <text x="2431.58px" y="2575.75px" style="font-family:'FiraMono-Regular', 'Fira Mono', monospace;font-size:100px;fill:rgb(35,31,32);">0.52</text>
        <text x="2311.58px" y="2675.75px" style="font-family:'FiraMono-Regular', 'Fira Mono', monospace;font-size:100px;fill:rgb(35,31,32);">- 0.42</text>
        <g transform="matrix(100,0,0,100,2671.58,2775.75)">
        </g>
        <text x="2311.58px" y="2775.75px" style="font-family:'FiraMono-Bold', 'Fira Mono', monospace;font-weight:700;font-size:100px;fill:rgb(35,31,32);">= 0.10</text>
    </g>
    <g transform="matrix(1,0,0,1,794.198,-753.38)">
        <text x="2431.58px" y="2575.75px" style="font-family:'FiraMono-Regular', 'Fira Mono', monospace;font-size:100px;fill:rgb(35,31,32);">0.52</text>
        <text x="2311.58px" y="2675.75px" style="font-family:'FiraMono-Regular', 'Fira Mono', monospace;font-size:100px;fill:rgb(35,31,32);">+ 0.42</text>
        <text x="2311.58px" y="2775.75px" style="font-family:'FiraMono-Regular', 'Fira Mono', monospace;font-size:100px;fill:rgb(35,31,32);">+ 0.42</text>
        <g transform="matrix(100,0,0,100,2671.58,2875.75)">
        </g>
        <text x="2311.58px" y="2875.75px" style="font-family:'FiraMono-Bold', 'Fira Mono', monospace;font-weight:700;font-size:100px;fill:rgb(35,31,32);">= 1.36</text>
    </g>
    <g transform="matrix(1,0,0,1,-1460.11,-753.38)">
        <text x="2491.58px" y="2575.75px" style="font-family:'FiraMono-Regular', 'Fira Mono', monospace;font-size:100px;fill:rgb(35,31,32);">0.52</text>
        <text x="2311.58px" y="2675.75px" style="font-family:'FiraMono-Regular', 'Fira Mono', monospace;font-size:100px;fill:rgb(35,31,32);">-  0.42</text>
        <text x="2311.58px" y="2775.75px" style="font-family:'FiraMono-Regular', 'Fira Mono', monospace;font-size:100px;fill:rgb(35,31,32);">-  0.42</text>
        <g transform="matrix(100,0,0,100,2731.58,2875.75)">
        </g>
        <text x="2311.58px" y="2875.75px" style="font-family:'FiraMono-Bold', 'Fira Mono', monospace;font-weight:700;font-size:100px;fill:rgb(35,31,32);">= -0.32</text>
    </g>
    <g transform="matrix(1,0,0,1,-693.371,-645.879)">
        <g transform="matrix(100,0,0,100,3307.36,3110.72)">
        </g>
        <text x="2467.37px" y="3110.72px" style="font-family:'FiraMono-Bold', 'Fira Mono', monospace;font-weight:700;font-size:100px;fill:rgb(35,31,32);">slope over age</text>
    </g>
    <g transform="matrix(3.84771,0,0,6.26579,-2330.2,-11296.6)">
        <path d="M1459.91,1984.46L1459.91,2026.48L881.528,2026.48L881.528,1984.46C1006.66,1920.12 1064.68,1804.57 1170.72,1804.57C1276.72,1804.57 1334.73,1920.02 1459.76,1984.38" style="fill:rgb(229,238,215);"/>
    </g>
    <g transform="matrix(3.84771,0,0,6.26579,-2330.2,-11296.6)">
        <path d="M700.103,2026.48C969.047,2026.48 1023.76,1804.57 1170.72,1804.57C1317.68,1804.57 1372.39,2026.48 1641.34,2026.48" style="fill:none;stroke:rgb(35,31,32);stroke-width:4.01px;"/>
    </g>
    <g transform="matrix(5.64488,0,0,6.26579,-4495.65,-11296.6)">
        <path d="M798.258,2026.48L1564.96,2026.48" style="fill:none;stroke:rgb(35,31,32);stroke-width:3.49px;"/>
    </g>
    <g transform="matrix(4.7236,0,0,9.6203,-3407.06,-18094.4)">
        <path d="M1179.4,1881.94L1183.82,1881.94L1183.82,1883.04L1179.4,1883.04L1179.4,1881.94ZM1179.4,1885.23L1183.82,1885.23L1183.82,1887.42L1179.4,1887.42L1179.4,1885.23ZM1179.4,1889.61L1183.82,1889.61L1183.82,1891.8L1179.4,1891.8L1179.4,1889.61ZM1179.4,1893.99L1183.82,1893.99L1183.82,1896.18L1179.4,1896.18L1179.4,1893.99ZM1179.4,1898.37L1183.82,1898.37L1183.82,1900.56L1179.4,1900.56L1179.4,1898.37ZM1179.4,1902.75L1183.82,1902.75L1183.82,1904.94L1179.4,1904.94L1179.4,1902.75ZM1179.4,1907.13L1183.82,1907.13L1183.82,1909.32L1179.4,1909.32L1179.4,1907.13ZM1179.4,1911.51L1183.82,1911.51L1183.82,1913.7L1179.4,1913.7L1179.4,1911.51ZM1179.4,1915.89L1183.82,1915.89L1183.82,1918.08L1179.4,1918.08L1179.4,1915.89ZM1179.4,1920.27L1183.82,1920.27L1183.82,1922.46L1179.4,1922.46L1179.4,1920.27ZM1179.4,1924.65L1183.82,1924.65L1183.82,1926.84L1179.4,1926.84L1179.4,1924.65ZM1179.4,1929.03L1183.82,1929.03L1183.82,1931.22L1179.4,1931.22L1179.4,1929.03ZM1179.4,1933.41L1183.82,1933.41L1183.82,1935.6L1179.4,1935.6L1179.4,1933.41ZM1179.4,1937.79L1183.82,1937.79L1183.82,1939.98L1179.4,1939.98L1179.4,1937.79ZM1179.4,1942.17L1183.82,1942.17L1183.82,1944.36L1179.4,1944.36L1179.4,1942.17ZM1179.4,1946.55L1183.82,1946.55L1183.82,1948.74L1179.4,1948.74L1179.4,1946.55ZM1179.4,1950.93L1183.82,1950.93L1183.82,1953.12L1179.4,1953.12L1179.4,1950.93ZM1179.4,1955.31L1183.82,1955.31L1183.82,1957.5L1179.4,1957.5L1179.4,1955.31ZM1179.4,1959.69L1183.82,1959.69L1183.82,1961.88L1179.4,1961.88L1179.4,1959.69ZM1179.4,1964.07L1183.82,1964.07L1183.82,1966.26L1179.4,1966.26L1179.4,1964.07ZM1179.4,1968.45L1183.82,1968.45L1183.82,1970.64L1179.4,1970.64L1179.4,1968.45ZM1179.4,1972.83L1183.82,1972.83L1183.82,1975.02L1179.4,1975.02L1179.4,1972.83ZM1179.4,1977.21L1183.82,1977.21L1183.82,1979.39L1179.4,1979.39L1179.4,1977.21ZM1179.4,1981.59L1183.82,1981.59L1183.82,1983.78L1179.4,1983.78L1179.4,1981.59ZM1179.4,1985.97L1183.82,1985.97L1183.82,1988.15L1179.4,1988.15L1179.4,1985.97ZM1179.4,1990.35L1183.82,1990.35L1183.82,1992.54L1179.4,1992.54L1179.4,1990.35ZM1179.4,1994.73L1183.82,1994.73L1183.82,1996.91L1179.4,1996.91L1179.4,1994.73ZM1179.4,1999.11L1183.82,1999.11L1183.82,2001.3L1179.4,2001.3L1179.4,1999.11ZM1179.4,2003.48L1183.82,2003.48L1183.82,2005.67L1179.4,2005.67L1179.4,2003.48ZM1179.4,2007.86L1183.82,2007.86L1183.82,2010.05L1179.4,2010.05L1179.4,2007.86ZM1179.4,2012.24L1183.82,2012.24L1183.82,2014.43L1179.4,2014.43L1179.4,2012.24ZM1179.4,2016.62L1183.82,2016.62L1183.82,2018.81L1179.4,2018.81L1179.4,2016.62ZM1179.4,2021L1183.82,2021L1183.82,2023.19L1179.4,2023.19L1179.4,2021ZM1179.4,2025.38L1183.82,2025.38L1183.82,2026.48L1179.4,2026.48L1179.4,2025.38Z" style="fill:rgb(35,31,32);"/>
    </g>
    <g transform="matrix(4.7236,0,0,9.6203,-2850.69,-18094.4)">
        <path d="M1179.4,1931.28L1183.82,1931.28L1183.82,1932.42L1179.4,1932.42L1179.4,1931.28ZM1179.4,1934.68L1183.82,1934.68L1183.82,1936.95L1179.4,1936.95L1179.4,1934.68ZM1179.4,1939.22L1183.82,1939.22L1183.82,1941.48L1179.4,1941.48L1179.4,1939.22ZM1179.4,1943.75L1183.82,1943.75L1183.82,1946.02L1179.4,1946.02L1179.4,1943.75ZM1179.4,1948.28L1183.82,1948.28L1183.82,1950.55L1179.4,1950.55L1179.4,1948.28ZM1179.4,1952.82L1183.82,1952.82L1183.82,1955.08L1179.4,1955.08L1179.4,1952.82ZM1179.4,1957.35L1183.82,1957.35L1183.82,1959.62L1179.4,1959.62L1179.4,1957.35ZM1179.4,1961.88L1183.82,1961.88L1183.82,1964.15L1179.4,1964.15L1179.4,1961.88ZM1179.4,1966.41L1183.82,1966.41L1183.82,1968.68L1179.4,1968.68L1179.4,1966.41ZM1179.4,1970.95L1183.82,1970.95L1183.82,1973.22L1179.4,1973.22L1179.4,1970.95ZM1179.4,1975.48L1183.82,1975.48L1183.82,1977.75L1179.4,1977.75L1179.4,1975.48ZM1179.4,1980.02L1183.82,1980.02L1183.82,1982.28L1179.4,1982.28L1179.4,1980.02ZM1179.4,1984.55L1183.82,1984.55L1183.82,1986.81L1179.4,1986.81L1179.4,1984.55ZM1179.4,1989.08L1183.82,1989.08L1183.82,1991.35L1179.4,1991.35L1179.4,1989.08ZM1179.4,1993.61L1183.82,1993.61L1183.82,1995.88L1179.4,1995.88L1179.4,1993.61ZM1179.4,1998.15L1183.82,1998.15L1183.82,2000.41L1179.4,2000.41L1179.4,1998.15ZM1179.4,2002.68L1183.82,2002.68L1183.82,2004.95L1179.4,2004.95L1179.4,2002.68ZM1179.4,2007.21L1183.82,2007.21L1183.82,2009.48L1179.4,2009.48L1179.4,2007.21ZM1179.4,2011.75L1183.82,2011.75L1183.82,2014.01L1179.4,2014.01L1179.4,2011.75ZM1179.4,2016.28L1183.82,2016.28L1183.82,2018.55L1179.4,2018.55L1179.4,2016.28ZM1179.4,2020.81L1183.82,2020.81L1183.82,2023.08L1179.4,2023.08L1179.4,2020.81ZM1179.4,2025.35L1183.82,2025.35L1183.82,2026.48L1179.4,2026.48L1179.4,2025.35Z" style="fill:rgb(35,31,32);"/>
    </g>
    <g transform="matrix(4.7236,0,0,9.6203,-2294.33,-18094.4)">
        <path d="M1179.4,2000.51L1183.82,2000.51L1183.82,2001.81L1179.4,2001.81L1179.4,2000.51ZM1179.4,2004.4L1183.82,2004.4L1183.82,2007L1179.4,2007L1179.4,2004.4ZM1179.4,2009.6L1183.82,2009.6L1183.82,2012.19L1179.4,2012.19L1179.4,2009.6ZM1179.4,2014.79L1183.82,2014.79L1183.82,2017.39L1179.4,2017.39L1179.4,2014.79ZM1179.4,2019.99L1183.82,2019.99L1183.82,2022.58L1179.4,2022.58L1179.4,2019.99ZM1179.4,2025.18L1183.82,2025.18L1183.82,2026.48L1179.4,2026.48L1179.4,2025.18Z" style="fill:rgb(35,31,32);"/>
    </g>
    <g transform="matrix(4.7236,0,0,9.6203,-3963.42,-18094.4)">
        <path d="M1179.4,1931.28L1183.82,1931.28L1183.82,1932.42L1179.4,1932.42L1179.4,1931.28ZM1179.4,1934.68L1183.82,1934.68L1183.82,1936.95L1179.4,1936.95L1179.4,1934.68ZM1179.4,1939.22L1183.82,1939.22L1183.82,1941.48L1179.4,1941.48L1179.4,1939.22ZM1179.4,1943.75L1183.82,1943.75L1183.82,1946.02L1179.4,1946.02L1179.4,1943.75ZM1179.4,1948.28L1183.82,1948.28L1183.82,1950.55L1179.4,1950.55L1179.4,1948.28ZM1179.4,1952.82L1183.82,1952.82L1183.82,1955.08L1179.4,1955.08L1179.4,1952.82ZM1179.4,1957.35L1183.82,1957.35L1183.82,1959.62L1179.4,1959.62L1179.4,1957.35ZM1179.4,1961.88L1183.82,1961.88L1183.82,1964.15L1179.4,1964.15L1179.4,1961.88ZM1179.4,1966.41L1183.82,1966.41L1183.82,1968.68L1179.4,1968.68L1179.4,1966.41ZM1179.4,1970.95L1183.82,1970.95L1183.82,1973.22L1179.4,1973.22L1179.4,1970.95ZM1179.4,1975.48L1183.82,1975.48L1183.82,1977.75L1179.4,1977.75L1179.4,1975.48ZM1179.4,1980.02L1183.82,1980.02L1183.82,1982.28L1179.4,1982.28L1179.4,1980.02ZM1179.4,1984.55L1183.82,1984.55L1183.82,1986.81L1179.4,1986.81L1179.4,1984.55ZM1179.4,1989.08L1183.82,1989.08L1183.82,1991.35L1179.4,1991.35L1179.4,1989.08ZM1179.4,1993.61L1183.82,1993.61L1183.82,1995.88L1179.4,1995.88L1179.4,1993.61ZM1179.4,1998.15L1183.82,1998.15L1183.82,2000.41L1179.4,2000.41L1179.4,1998.15ZM1179.4,2002.68L1183.82,2002.68L1183.82,2004.95L1179.4,2004.95L1179.4,2002.68ZM1179.4,2007.21L1183.82,2007.21L1183.82,2009.48L1179.4,2009.48L1179.4,2007.21ZM1179.4,2011.75L1183.82,2011.75L1183.82,2014.01L1179.4,2014.01L1179.4,2011.75ZM1179.4,2016.28L1183.82,2016.28L1183.82,2018.55L1179.4,2018.55L1179.4,2016.28ZM1179.4,2020.81L1183.82,2020.81L1183.82,2023.08L1179.4,2023.08L1179.4,2020.81ZM1179.4,2025.35L1183.82,2025.35L1183.82,2026.48L1179.4,2026.48L1179.4,2025.35Z" style="fill:rgb(35,31,32);"/>
    </g>
    <g transform="matrix(4.7236,0,0,9.6203,-4519.79,-18094.4)">
        <path d="M1179.4,2000.51L1183.82,2000.51L1183.82,2001.81L1179.4,2001.81L1179.4,2000.51ZM1179.4,2004.4L1183.82,2004.4L1183.82,2007L1179.4,2007L1179.4,2004.4ZM1179.4,2009.6L1183.82,2009.6L1183.82,2012.19L1179.4,2012.19L1179.4,2009.6ZM1179.4,2014.79L1183.82,2014.79L1183.82,2017.39L1179.4,2017.39L1179.4,2014.79ZM1179.4,2019.99L1183.82,2019.99L1183.82,2022.58L1179.4,2022.58L1179.4,2019.99ZM1179.4,2025.18L1183.82,2025.18L1183.82,2026.48L1179.4,2026.48L1179.4,2025.18Z" style="fill:rgb(35,31,32);"/>
    </g>
    <g transform="matrix(1,0,0,1,-612.081,-2013.52)">
        <g transform="matrix(100,0,0,100,2611.58,2575.75)">
        </g>
        <text x="2431.58px" y="2575.75px" style="font-family:'FiraMono-Bold', 'Fira Mono', monospace;font-weight:700;font-size:100px;fill:rgb(64,91,19);">95%</text>
    </g>
</svg>
